<svg xmlns="http://www.w3.org/2000/svg" viewBox="0 0 946.92 103.53"><title>ar_copy1</title><g id="レイヤー_2" data-name="レイヤー 2"><g id="レイヤー_1-2" data-name="レイヤー 1"><path d="M16.48,12.53v2.56H10.32q2.41,4.1,5.39,9.44l-2.06,1.69q-.52-1.13-3.81-7.34V36H7.21v-16A37.72,37.72,0,0,1,1.57,30.36L0,27.91A37.48,37.48,0,0,0,6.54,15.08H.59V12.53H7.21V5.79q-2.52.34-5.81.64L1.15,4A102.8,102.8,0,0,0,15.46,1.77l.67,2.33Q12.73,5,9.83,5.42v7.11ZM25.85,18l2.59-1A165.21,165.21,0,0,1,34.25,34.8l-2.66.94s-.15-.57-.46-1.64l-.7-2.46A120.21,120.21,0,0,1,12,34.5l-.14-2.67q1.57-.07,2.34-.15A236.73,236.73,0,0,0,22.46,1.88l2.8.49a242.45,242.45,0,0,1-8,29q5.63-.64,12.49-2.11Q27.74,22.95,25.85,18Z"/><path d="M42.82,9.18V6.62h5.95q.49-2.67.84-5l2.62.26q-.52,3.46-.8,4.78h13V9.18H50.94a208.41,208.41,0,0,1-6.58,25.47L41.73,34A183.28,183.28,0,0,0,48.24,9.18Zm28,21.33.35,2.56a44.7,44.7,0,0,1-7.56.79,13.93,13.93,0,0,1-7.45-1.77,5.26,5.26,0,0,1-2.83-4.59q0-2.86,4-5.94L59,23.29a14.09,14.09,0,0,0-2.36,2.2,2.87,2.87,0,0,0-.68,1.75,3.31,3.31,0,0,0,2.1,2.9,11.75,11.75,0,0,0,5.56,1.13A39.61,39.61,0,0,0,70.81,30.51ZM70.39,16.4a100.13,100.13,0,0,0-14.2,1l-.25-2.52a99.8,99.8,0,0,1,14.45-1.05Z"/><path d="M80.46,9.86V7.26h8.43q.28-1.39.91-5.3l2.62.23q-.31,2.33-.91,5.08h17.42v2.6h-18a58.73,58.73,0,0,1-3.11,9l0,.08a21.51,21.51,0,0,1,4.55-1.73A18.05,18.05,0,0,1,97,16.51q4.86,0,7.38,2.16a7.71,7.71,0,0,1,2.52,6.19,8,8,0,0,1-3.5,6.83q-3.5,2.54-9.38,2.54a42,42,0,0,1-8.64-.9l.42-2.56a38.2,38.2,0,0,0,8.22.87,12.81,12.81,0,0,0,7.38-1.88,5.84,5.84,0,0,0,2.73-5q0-5.64-7.28-5.61a17.53,17.53,0,0,0-5.49,1,18.94,18.94,0,0,0-5.07,2.5L84,21.41A66.21,66.21,0,0,0,88.3,9.86Z"/><path d="M122.41,3.5a64.23,64.23,0,0,0-1.75,15.31,64.69,64.69,0,0,0,1.75,15.35l-2.55.38A66.89,66.89,0,0,1,118,18.81a64.06,64.06,0,0,1,1.8-15.69Zm25.4,8h-6.33v12.6a48.22,48.22,0,0,1,6.37,5.94L146,32a63,63,0,0,0-4.55-4.55q-.24,7-7.07,7a8.34,8.34,0,0,1-5.7-1.79,6.34,6.34,0,0,1-2-5,5.65,5.65,0,0,1,2-4.65,8.85,8.85,0,0,1,5.72-1.64,10.07,10.07,0,0,1,4.44,1.05V11.51H127.62V8.92h11.23V2.52h2.62V8.92h6.33Zm-9,13.92A8.33,8.33,0,0,0,134.3,24q-5,0-5,3.65,0,4.25,5,4.25a4.4,4.4,0,0,0,3.48-1.22,5.92,5.92,0,0,0,1.07-3.93Z"/><path d="M166,33l-2.34,2a97.74,97.74,0,0,0-7-8.2l2.2-2.11A105.55,105.55,0,0,1,166,33Z"/><path d="M196.39,11.59h4.9V5.83q-2.13.34-4.41.6L196.67,4A63.56,63.56,0,0,0,208,1.77L208.71,4q-2,.68-4.79,1.32v6.25h4.62v2.48h-3.85q1.29,2.67,4,8.35l-2,1.39q-1.43-3.31-2.8-6.28V36h-2.62V20.46a40.26,40.26,0,0,1-4,8.77l-1.61-2.41a42.48,42.48,0,0,0,5.46-12.75h-4.76Zm12.14,8.5-.73-2.48A26.08,26.08,0,0,0,218,13.43q-1.29-1.32-3.71-3.5l1.64-1.77q2.52,2.3,4,3.76a21.67,21.67,0,0,0,4.44-5.83h-8a26.61,26.61,0,0,1-6.68,5.08l-1.33-2.11a25.59,25.59,0,0,0,5-3.56,23.84,23.84,0,0,0,4-4.42l2.38.9a14.87,14.87,0,0,1-1.29,1.88h8.57V6.09a20.93,20.93,0,0,1-6.23,8.5l2.2.6a17.76,17.76,0,0,1-1.61,2.14h8v2.37a23.37,23.37,0,0,1-7.75,10.78,27,27,0,0,1-12.89,5.4L208,33.37a25,25,0,0,0,12.17-5.12q-1-1.09-4-4L218,22.42q2.2,2.18,4.06,4.18a21.92,21.92,0,0,0,4.65-6.88H219a35.35,35.35,0,0,1-9.62,6.81l-1.19-2.22a29.41,29.41,0,0,0,6.23-3.87,29.94,29.94,0,0,0,5.11-5A29.11,29.11,0,0,1,208.53,20.09Z"/><path d="M237.15,3.54h2.69V14h.07a17.21,17.21,0,0,1,4.88-7.13,10.19,10.19,0,0,1,6.63-2.58,7.45,7.45,0,0,1,6.42,3.2q2.29,3.2,2.29,9.14,0,9.14-4.76,13.43t-14.94,4.29l-.11-2.71q9,0,13-3.54t4-11.47q0-4.7-1.56-7.09a5.08,5.08,0,0,0-4.53-2.39q-4,0-7.49,4.63a20,20,0,0,0-3.88,11.17h-2.66Z"/><path d="M270.94,18.73,268.81,17a23.32,23.32,0,0,0,6.12-8.5l2.48,1.05A23.48,23.48,0,0,1,270.94,18.73Zm6.19,6.66,1.89-2a27.94,27.94,0,0,0,6.4,4.7A24,24,0,0,0,292.14,23H278.43a38.23,38.23,0,0,1-8.29,4.85l-1.22-2.22a30.62,30.62,0,0,0,11.72-8.09l2.17,1.24a23.52,23.52,0,0,1-1.68,1.84h14.41V23a25.08,25.08,0,0,1-7.35,6.47,44.82,44.82,0,0,0,12.07,3.35l-.59,2.67A47.34,47.34,0,0,1,285.36,31a53.84,53.84,0,0,1-15.57,4.48l-.59-2.67a52.19,52.19,0,0,0,13.4-3.31A29.42,29.42,0,0,1,277.13,25.39Zm9.1-9.86q1,0,1.19-.19A2.65,2.65,0,0,0,287.6,14V6.7h-4.51A17.76,17.76,0,0,1,281.44,14a16.06,16.06,0,0,1-4.62,5.34l-2-1.84a14,14,0,0,0,4.2-4.59,14.77,14.77,0,0,0,1.47-6.24H269.4V4.18h13.89V.79h2.87V4.18h13.89V6.7h-9.76v7.22q0,2.75-.56,3.44t-2.66.7q-.91,0-4.2-.19l-.14-2.52Q285.46,15.54,286.23,15.54Zm5.28-5.61,2.13-1.5a51,51,0,0,1,7,8.61l-2.24,1.5A50.34,50.34,0,0,0,291.51,9.93Z"/><path d="M310,8.69h7.63V2.37h2.52V12.94a26.88,26.88,0,0,1,6-4.81,10.59,10.59,0,0,1,5-1.35,7.45,7.45,0,0,1,6.65,3.31q2.2,3.31,2.2,10.16,0,6-2.69,9.42a8.76,8.76,0,0,1-7.24,3.4,11.57,11.57,0,0,1-5.49-1.39l.8-2.48a11,11,0,0,0,4.69,1.13,6.23,6.23,0,0,0,5.28-2.65q2-2.65,2-7.43,0-5.64-1.52-8.18A5.13,5.13,0,0,0,331,9.52a9,9,0,0,0-4.67,1.58,32.18,32.18,0,0,0-6.21,5.64V34.87h-2.52V19.64q-2.62,3.16-6.37,8.2l-1.85-1.77q4.62-6.32,8.22-10.46V11.13H310Z"/><path d="M367.6,31.34q6.12-1.54,6.12-7.79a5.66,5.66,0,0,0-2-4.78q-2-1.58-6.39-1.58-7.28,0-15.15,4.78l-1-2.07L368.48,6.77V6.7H351.68V4.18H373.3l.14,2.56-14.06,9.14.07,0a23.67,23.67,0,0,1,6.68-1.05q10.53,0,10.53,8.39,0,5.34-3.53,8.22T363,34.35q-10.15,0-10.15-6.17a4.68,4.68,0,0,1,2-3.8,9.36,9.36,0,0,1,5.83-1.58q7.52,0,7.52,5.53A8.55,8.55,0,0,1,367.6,31.34Zm-2.73.41a7.29,7.29,0,0,0,.91-3.2q0-3.31-5.21-3.31a6.67,6.67,0,0,0-3.71.87,2.48,2.48,0,0,0-1.29,2.07,3,3,0,0,0,1.84,2.67,12.29,12.29,0,0,0,5.58,1Q363.65,31.83,364.87,31.75Z"/><path d="M388.62,32.43v2.45H386V3.31h10V32.43Zm0-16.48h4.76v-10h-4.76Zm0,2.56V29.87h4.76V18.51Zm28.86-3.35H414v4.33h3.5V22H414v8.5q0,3.5-.68,4.33t-3.55.83q-1,0-4.55-.19l-.11-2.6q3.29.19,4.2.19,1.4,0,1.64-.32a5.11,5.11,0,0,0,.25-2.16V22H397V19.49h14.17V15.16H397v-2.6h9V7.45h-7.35V5H406V.83h2.8V5h7.42V7.45h-7.42v5.12h8.71Zm-18.68,9.93,1.85-1.92a53.32,53.32,0,0,1,5.95,6.4l-1.92,1.88A54.42,54.42,0,0,0,398.81,25.09Z"/><path d="M431.79,12.56V36H429V17.49a36.6,36.6,0,0,1-3.22,4.93l-1.43-2.75A44.19,44.19,0,0,0,432.49,1.5l2.66.64A42.79,42.79,0,0,1,431.79,12.56Zm11.62-11.1h2.73q0,4.7.38,9l10.85-1,.18,2.6-10.71,1.05a64.22,64.22,0,0,0,1.24,7.09,48.44,48.44,0,0,0,1.59,5.51,30.65,30.65,0,0,0,1.64,3.76,13.31,13.31,0,0,0,1.45,2.29q.61.71,1,.71t.73-.56a8.74,8.74,0,0,0,.65-2.16q.33-1.6.72-4.42l2.31.9q-1,9.59-4.23,9.59A3.42,3.42,0,0,1,452,35.1a9.86,9.86,0,0,1-2.24-2.43,23.9,23.9,0,0,1-2.29-4.2,39.31,39.31,0,0,1-2-6.41A66.27,66.27,0,0,1,444,13.35l-10.29,1-.17-2.63,10.22-1Q443.41,6.51,443.41,1.47ZM448.48,3l1.75-1.84a61.34,61.34,0,0,1,6,5.76l-1.85,1.77A51.41,51.41,0,0,0,448.48,3Z"/><path d="M484.58,30.89a9.34,9.34,0,0,0,6.7-3.65,13.6,13.6,0,0,0,2.4-8.43,11.34,11.34,0,0,0-3-8.09A10.6,10.6,0,0,0,483,7.37,117.57,117.57,0,0,1,481.08,20a33.26,33.26,0,0,1-2.48,7.81,11.23,11.23,0,0,1-2.71,3.71,4.74,4.74,0,0,1-3,1.05q-2.59,0-4.74-3.35A14.86,14.86,0,0,1,466,21a15.83,15.83,0,0,1,4.6-11.79q4.6-4.53,12-4.53a13.14,13.14,0,0,1,9.83,4,13.91,13.91,0,0,1,3.88,10.12q0,6.4-3,10.35a11.12,11.12,0,0,1-8.15,4.44ZM480.25,7.52a12.85,12.85,0,0,0-8.47,4.35A13.57,13.57,0,0,0,468.63,21a12.32,12.32,0,0,0,1.43,6.15q1.43,2.54,2.83,2.54a2.38,2.38,0,0,0,1.35-.51,6.37,6.37,0,0,0,1.57-2,20.58,20.58,0,0,0,1.61-3.86A56.4,56.4,0,0,0,479,16.89Q479.72,12.79,480.25,7.52Z"/><path d="M505.43,31.79V28.93h28.48v2.86ZM508,8.73V5.83h23.44v2.9Z"/><path d="M543.11,20.28V17.34h29.18v2.93Z"/><path d="M584.6,8.24V5.45h21q-.56-1.13-2-3.69l2-1.13q1.47,2.6,3,5.76l-1.71.9v.94a41.84,41.84,0,0,1-7.73,12.6q5.18,5.15,10.67,11.32l-1.92,2q-5.25-5.94-10.6-11.32a59.26,59.26,0,0,1-14.48,10.87l-1.22-2.48a59.07,59.07,0,0,0,13.75-10.4,41,41,0,0,0,8.54-12.58Zm23.79-7.11,2-1.13q1.43,2.6,3.08,5.87l-2,1.09Q609.89,3.76,608.39,1.13Z"/><path d="M626,3.5a64.4,64.4,0,0,0-1.71,15.33A64.39,64.39,0,0,0,626,34.16l-2.69.38a66.4,66.4,0,0,1-1.78-15.73,65.93,65.93,0,0,1,1.78-15.69ZM648.83,29l.38,2.56a30.74,30.74,0,0,1-8.22,1.2,13.6,13.6,0,0,1-7.75-1.94,6,6,0,0,1-2.85-5.17,8,8,0,0,1,1.22-3.82,15.24,15.24,0,0,1,3.36-4l1.92,1.77a14,14,0,0,0-2.76,3.22,5.79,5.79,0,0,0-1,2.84,3.56,3.56,0,0,0,2,3.27A12.23,12.23,0,0,0,641,30.06,29.5,29.5,0,0,0,648.83,29ZM633.12,9.18V6.58h15.22v2.6Z"/><path d="M661.32,31.64v2.48h-2.69V3.69h9.55v28Zm0-2.52h4.23V6.32h-4.23Zm8.12-24.26q12.35-.53,19.94-2.71l.56,2.63a54.86,54.86,0,0,1-8.57,1.69v14h9.38v2.67h-9.38v7.52q0,3.2-.66,4t-3.11.83q-1.68,0-5.25-.19l-.07-2.56q3.15.19,4.62.19,1.19,0,1.47-.34a3.8,3.8,0,0,0,.28-1.92V23.14h-9.55V20.46h9.55V6.81q-3.39.38-8.78.64ZM672.34,9A84.06,84.06,0,0,1,676,17.61l-2.34.94A88,88,0,0,0,670,10Zm17.46-.79a63,63,0,0,1-3.92,10.31l-2.38-.94a63.42,63.42,0,0,0,3.81-10.19Z"/><path d="M729.19,7.34h-26.7v10q0,11.55-3.18,18.25l-2.06-2.33q2.55-6.06,2.52-17.76V4.78h13.57V.6h2.83V4.78h13ZM702.28,31.79a64.42,64.42,0,0,0,3.22-14l2.55.49A63.13,63.13,0,0,1,704.76,33Zm7.63-21,.7-2.41A63,63,0,0,1,724,12.34l-.94,2.48A65.66,65.66,0,0,0,709.91,10.83Zm3.43,3.46V31.07a2.84,2.84,0,0,0,.16,1.18q.16.28.87.41a17.11,17.11,0,0,0,2.61.13l1.29,0a5.29,5.29,0,0,0,1-.08l.82-.11a1.51,1.51,0,0,0,.59-.3,1.76,1.76,0,0,0,.47-.41c0-.09.14-.31.28-.68a3,3,0,0,0,.23-.88q0-.34.11-1.28t.1-1.54q0-.6.05-2l2.69.26q-.07,2-.12,3.08a21.7,21.7,0,0,1-.25,2.31Q724,32.47,723.9,33a2.85,2.85,0,0,1-.65,1.13,2.67,2.67,0,0,1-.93.75,8.56,8.56,0,0,1-1.35.36,10.08,10.08,0,0,1-1.77.21l-2.38,0q-4.2,0-5.25-.64t-1-3.2V14.29Zm10.81,3.57,2.52-.87a103.19,103.19,0,0,1,4,14.78l-2.66.75A97.48,97.48,0,0,0,724.15,17.87Z"/><path d="M741.78,3q-.42,10.46-.42,17.38a35.42,35.42,0,0,0,.4,5.91,8,8,0,0,0,1.37,3.54,4.93,4.93,0,0,0,2.2,1.69,9.78,9.78,0,0,0,3.27.45,9.57,9.57,0,0,0,6.88-3.07,23.62,23.62,0,0,0,5.2-8.93L763.12,21q-2.34,6.74-6.07,10.23a12,12,0,0,1-8.45,3.5q-5.67,0-7.85-3.1t-2.19-11.27q0-7.75.38-17.49Z"/><path d="M781.31,33l-2.34,2a97.92,97.92,0,0,0-7-8.2l2.2-2.11A106,106,0,0,1,781.31,33Z"/><path d="M33.13,90v2.37H30.61v7.22H27.85V97.51H18.51v1.84q0,2.6-.75,3.18t-3.87.58q-1.57,0-5.21-.19l0-2.45q3.22.19,5,.19a5.38,5.38,0,0,0,1.66-.13q.23-.13.23-1v-2H2.41V95.29H15.5v-2.9H.87V90H15.5V87.28H2.41V85H15.5V82.84H3.85v-7.3H15.5V73.4H1.22V71H15.5v-2.6h3V71H32.78V73.4H18.51v2.14H30.16v7.3H18.51V85H30.61v5ZM6.61,80.73H15.5v-3H6.61Zm11.9,0h8.89v-3H18.51Zm0,9.29h9.34V87.28H18.51Zm0,5.27h9.34v-2.9H18.51Z"/><path d="M72.17,92.09v2.33H60.28a48.85,48.85,0,0,0,13.29,5.83l-1.19,2.41a46.77,46.77,0,0,1-13.82-6.77v7.56H55.69V95.89a48.06,48.06,0,0,1-13.82,6.77l-1.19-2.41A48.85,48.85,0,0,0,54,94.43H42.08V92.09H55.69V89.2H43.76V86.94H55.69V84.12H42.43V81.82H50.8q-1.22-3.31-2.1-5.3h-7V74.11H46.6q-1.19-2.18-2.2-3.84l2.31-1.05a49.33,49.33,0,0,1,2.73,4.89h3.11V68.69H55.1v5.42h4.06V68.69h2.55v5.42h3.22a44.19,44.19,0,0,0,2.62-4.89l2.34.9q-1.12,2.26-2.1,4h4.72v2.41H65.7a39.6,39.6,0,0,1-2.24,5.3h8.36v2.29H58.56v2.82H70.49V89.2H58.56v2.9ZM60.52,81.82a34.26,34.26,0,0,0,2.34-5.3H51.57q1.12,2.56,2.06,5.3Z"/><path d="M106,91.42l1.89-1.54a85.79,85.79,0,0,1,6.05,6.51L112,98q-.25-.26-.89-1t-1-1.2l-11.51.38v7.15H95.75V96.19l-14.27.38-.07-2.37,9.8-.26q-3.67-2.78-6.68-4.78l2-1.69,1.31.9q1,.68,1.56,1.05,1.19-.64,2.69-1.66h-.24l-2.31-.15L89.49,86h-5c0,.18-.1.43-.17.77s-.12.6-.14.77l-2.52-.19q.7-3.08,1.22-6.25H81.23V78.85h2l.32-2.45q-.67.75-1.4,1.5l-1.08-2.63a20.34,20.34,0,0,0,4.55-7l2.52.41a14.13,14.13,0,0,1-.7,1.69h10v2.22H86.3q-.24.45-.84,1.32H96.62q-.24,2.63-.56,4.93h1.68v2.29h-2q-.21,1.47-.42,2.78h1.82l0,2.11H95a.48.48,0,0,1-.05.15.47.47,0,0,0-.05.15l1.47,1.43q-2.17,1.54-4.9,3.2,1.26.94,2.55,2a102.18,102.18,0,0,0,10.74-6.62l1.89,1.81a97.47,97.47,0,0,1-9.31,5.72l10.71-.26Q107,92.43,106,91.42Zm-24.25,9.74a50.71,50.71,0,0,0,9.59-4.55l1.4,2a50.76,50.76,0,0,1-9.9,4.81ZM87.6,83.93q.17-.94.46-2.78H85.43q-.14.94-.49,2.78Zm.8-5.08q.1-.83.35-2.82H86.23q-.14,1.09-.42,2.82ZM90,83.93h2.69q.21-1,.46-2.78H90.57Zm.84-5.08h2.66q.14-.83.35-2.82H91.24Q91,78,90.89,78.85Zm7.45.11L96.8,76.78a21,21,0,0,0,5-8.5l2.52.41a20.82,20.82,0,0,1-.87,2.48h10.36v2.29h-2.2a16.32,16.32,0,0,1-4.06,8.69,22,22,0,0,0,6.37,3l-1.33,2.29a24.3,24.3,0,0,1-7-3.61,27.81,27.81,0,0,1-7.1,3.35l-1-2.56A26.91,26.91,0,0,0,103.55,82a15.5,15.5,0,0,1-2.87-5.87A18.3,18.3,0,0,1,98.34,79Zm3,19.53,1.08-2.07a92.84,92.84,0,0,1,10.25,4.89l-1.12,2.18A102.74,102.74,0,0,0,101.31,98.49Zm4.27-18.1A13,13,0,0,0,109,73.47h-6.68q-.31.6-.77,1.35l1.37-.15A12.68,12.68,0,0,0,105.58,80.39Z"/><path d="M135.94,77.76h2.87v6.36h14v2.6H140.67a50.32,50.32,0,0,0,13.19,12.56l-1.61,2.26a50.56,50.56,0,0,1-13.44-13.32v15h-2.87v-15a49.84,49.84,0,0,1-13.43,13.32l-1.61-2.26a51.15,51.15,0,0,0,13.19-12.56H122v-2.6h14Zm13.54,4.51V76.52H125.27v5.76h-2.69V74h5.49q-1.33-2.63-2.41-4.36l2.41-1.13A57.15,57.15,0,0,1,131,74h5.42q-.91-2-2.52-4.74l2.41-1.13a60.3,60.3,0,0,1,3,5.87h4.06a51.91,51.91,0,0,0,3.25-5.72l2.52.87Q148,71.52,146.51,74h5.67v8.24Z"/><path d="M165.89,70.35l2.8-.45q1,6.4,2.45,12.45A73.09,73.09,0,0,1,186,77.27l.52,2.63q-10.85,2.67-16.22,5.94t-5.37,6.92q0,6.17,10.64,6.17a78,78,0,0,0,11-.87l.28,2.67a77,77,0,0,1-11.23.9q-6.61,0-10.06-2.24a7.27,7.27,0,0,1-3.45-6.49q0-5.12,6.44-9.14Q166.87,76.71,165.89,70.35Z"/><path d="M212.84,71.33H227.5v2.41h-7.24a30.27,30.27,0,0,1-2.52,4.21h8.5V98.11q0,3.31-.7,4.1T222,103q-.7,0-5-.19l-.1-2.52q3.15.19,4.55.19t1.8-.28a3.87,3.87,0,0,0,.26-1.94V87.92q-2.7.15-6,.19-2.73,0-3.52-.64t-.79-3V80.39H209a9.06,9.06,0,0,1-1.89,5.92q-1.89,2.31-6.75,4.38l-.91-1.5v14.07h-2.76V77.95h7.91q-.94-2.33-1.89-4.21h-7.28V71.33h14.66V68.05h2.73Zm-6.44,9.07h-6.93v7.9q4.16-1.73,5.54-3.37A6.81,6.81,0,0,0,206.4,80.39Zm.17,19.22v1.77H204v-12h15v10.2Zm7.94-21.67a30.63,30.63,0,0,0,2.69-4.21H205.8a37.32,37.32,0,0,1,1.82,4.21Zm-7.94,19.37h9.8V91.72h-9.8Zm16.9-11.74V80.39h-7.7v3.27q0,1.47.37,1.75a5.66,5.66,0,0,0,2.43.28Q221,85.7,223.47,85.58Z"/><path d="M266.64,92.09v2.33h-11.9A48.85,48.85,0,0,0,268,100.26l-1.19,2.41A46.77,46.77,0,0,1,253,95.89v7.56h-2.87V95.89a48.06,48.06,0,0,1-13.82,6.77l-1.19-2.41a48.85,48.85,0,0,0,13.29-5.83H236.55V92.09h13.61V89.2H238.23V86.94h11.93V84.12H236.9V81.82h8.36q-1.22-3.31-2.1-5.3h-7V74.11h4.86q-1.19-2.18-2.2-3.84l2.31-1.05a49.33,49.33,0,0,1,2.73,4.89H247V68.69h2.55v5.42h4.06V68.69h2.55v5.42h3.22A44.19,44.19,0,0,0,262,69.22l2.34.9q-1.12,2.26-2.1,4H267v2.41h-6.82a39.6,39.6,0,0,1-2.24,5.3h8.36v2.29H253v2.82H265V89.2H253v2.9ZM255,81.82a34.26,34.26,0,0,0,2.34-5.3H246q1.12,2.56,2.06,5.3Z"/><path d="M276.33,88.48l2-1.66a42.51,42.51,0,0,0,2.8,5.91,28.7,28.7,0,0,0,2.13-8H276.4V82.2a56.55,56.55,0,0,0,6.09-9H276V70.73h9.17v2.52a55.68,55.68,0,0,1-5.56,9h6.19v2.48a35,35,0,0,1-3,10.5A11.68,11.68,0,0,0,288.54,99a35.27,35.27,0,0,0,9.62,1h9.41l-.14,2.6h-9.27A37,37,0,0,1,288,101.5a14,14,0,0,1-6.47-4,22.82,22.82,0,0,1-4.9,5.79L275.14,101a23.54,23.54,0,0,0,4.69-5.64A38.18,38.18,0,0,1,276.33,88.48ZM305.86,71.1v5.34h2.24v2.45h-2.24v5.53h-8.12v3.12h8.75v2.41h-8.75v3.31h9.38v2.41h-9.38V99.2h-2.87V95.67h-9.59V93.26h9.59V89.95h-8.26V87.54h8.26V84.42h-7.56V82.12h7.56V78.89H284.8V76.44h10.08v-3H287V71.1h7.91V68.77h2.87V71.1Zm-8.12,2.33v3h5.53v-3Zm0,8.69h5.53V78.89h-5.53Z"/><path d="M348.19,99.88l-.91,2.67a53.43,53.43,0,0,1-14-6.77v7.67h-2.87V95.78a55.09,55.09,0,0,1-14,6.77l-.91-2.67A61.38,61.38,0,0,0,329,94.13H316V91.64h14.41V89.38q-.81.68-1.19.94l-1.78-2a15.78,15.78,0,0,0,1.61-1.5,67.56,67.56,0,0,1-12.84,3.46l-.31-2.41q2.87-.49,5.81-1.2V80.21h-5.07V77.87h8q-1.4-4-1.54-4.36h-2a24,24,0,0,1-3.67,4.14l-2.06-1.77a20.5,20.5,0,0,0,5.7-7.9l2.62.6a15.61,15.61,0,0,1-1,2.45H332v2.26a18.89,18.89,0,0,0,3.74-5.34l2.55.68A18.91,18.91,0,0,1,337.1,71h10.78v2.48h-7.14q.87,2.37,1.26,3.61h2.1V86.3a2.41,2.41,0,0,0,.12,1.05c.08.1.38.15.89.15h.35a1.15,1.15,0,0,0,.26,0,.81.81,0,0,0,.25-.09.79.79,0,0,0,.19-.21.86.86,0,0,0,.14-.34c0-.12.06-.3.11-.53a4.62,4.62,0,0,0,.09-.7q0-.36.05-.94t.05-1.22q0-.64.05-1.5l2.27.15q0,2-.1,3.14a16.94,16.94,0,0,1-.26,2.14,5.94,5.94,0,0,1-.4,1.41,1.77,1.77,0,0,1-.75.71,2.84,2.84,0,0,1-1.08.36q-.54.06-1.56.06a5.15,5.15,0,0,1-2.75-.47q-.61-.47-.61-2.2V79.38h-7.77v.9q0,5.57-2.41,8.35h2.06v3H347.7v2.48h-13A61.36,61.36,0,0,0,348.19,99.88Zm-18.4-22v2.33h-5.35v5.72a37,37,0,0,0,5-1.73l.25,1.88q1.4-2,1.36-6.06V77.16l-1.5-1.66a28.3,28.3,0,0,0,2.24-2H326q.77,2,1.5,4.36Zm9.34-.75q-.63-1.84-1.29-3.61h-2.48a25,25,0,0,1-3.6,3.61ZM334,82.5l1.92-1.77a35,35,0,0,1,5,5.83l-1.89,1.66A39.17,39.17,0,0,0,334,82.5Z"/><path d="M356.54,82.88h30.09v2.71H374.35q0,7-2.83,10.85t-9.06,5.7l-.8-2.63q5.39-1.66,7.59-4.8t2.24-9.12H356.54Zm4-7.71V72.49h19v2.67Zm18.86-6,2-1.13q1.47,2.6,3,5.76l-2,1.05Q381.14,72.23,379.43,69.18Zm4.83-.64,2-1.13q1.43,2.6,3.08,5.87l-2,1.09Q385.76,71.18,384.25,68.54Z"/><path d="M397.58,77.5h6.09V70.57h2.69V77.5h12.53V70.57h2.8V77.5h6.93v2.71h-6.93v2.45q0,9.63-3.74,13.88t-13,5.23l-.49-2.71a29.46,29.46,0,0,0,7-1.45,10.64,10.64,0,0,0,4.41-3,11.06,11.06,0,0,0,2.4-4.8,31.58,31.58,0,0,0,.68-7.2V80.21H406.36v8.73h-2.69V80.21h-6.09Zm24.7-8.65,2.06-.79q1.43,3.39,2.41,6.06l-2.13.71Q423.85,72.57,422.28,68.84Zm4.41-.68,2.1-.75q1.57,3.76,2.45,6.17l-2.17.71Q427.84,70.8,426.69,68.17Z"/><path d="M439.45,85.66a46.85,46.85,0,0,0,15-5.06,40,40,0,0,0,11.88-9.24l1.78,2.07a40.57,40.57,0,0,1-10.74,8.69v19.71h-2.9V83.7a49.57,49.57,0,0,1-14.59,4.74Z"/><path d="M477.38,74.64l1.26-2.6q5.74,3.08,11,6.55l-1.4,2.6Q483.29,77.87,477.38,74.64ZM505,76.14q-3.6,22.2-26.48,24.34l-.42-2.9q10.5-1.05,16.5-6.49t7.78-15.56Z"/><path d="M532.79,98.3a9.34,9.34,0,0,0,6.7-3.65,13.6,13.6,0,0,0,2.4-8.43,11.34,11.34,0,0,0-3-8.09,10.6,10.6,0,0,0-7.7-3.35,117.57,117.57,0,0,1-1.89,12.64,33.26,33.26,0,0,1-2.48,7.81,11.23,11.23,0,0,1-2.71,3.71,4.74,4.74,0,0,1-3,1.05q-2.59,0-4.74-3.35a14.86,14.86,0,0,1-2.15-8.2,15.83,15.83,0,0,1,4.6-11.79q4.6-4.53,12-4.53a13.14,13.14,0,0,1,9.83,4,13.91,13.91,0,0,1,3.88,10.12q0,6.4-3,10.35a11.12,11.12,0,0,1-8.15,4.44Zm-4.34-23.36A12.85,12.85,0,0,0,520,79.28a13.57,13.57,0,0,0-3.15,9.16,12.32,12.32,0,0,0,1.43,6.15q1.43,2.54,2.83,2.54a2.38,2.38,0,0,0,1.35-.51,6.37,6.37,0,0,0,1.57-2,20.58,20.58,0,0,0,1.61-3.86,56.4,56.4,0,0,0,1.52-6.45Q527.93,80.21,528.45,74.94Z"/><path d="M552.73,72.68V70.12h16.2v2.56Zm8.61,14.78H560a8.28,8.28,0,0,1-1.07,4,7.19,7.19,0,0,1-2.92,2.84l-.7-1.17v9.93H552.9V85h15.74V98.83a8.61,8.61,0,0,1-.4,3.41q-.4.69-1.94.7-1.15,0-3.11-.19l-.11-2.56a20.18,20.18,0,0,0,2.31.19q.59,0,.7-.21a5.85,5.85,0,0,0,.11-1.56V93.18h-2.48a2.84,2.84,0,0,1-2-.45,3.51,3.51,0,0,1-.42-2.14Zm-5-4.59H553.6V74.79h14.34v8.09Zm-.94,9a5.18,5.18,0,0,0,2.59-4.4h-2.59Zm.94-11.13h9V77.08h-9ZM565,94.43v2.48h-3.18v5.79h-2.31V96.91h-3V94.43Zm1.16-3.57V87.47H563.5v2.26q0,.87.16,1a2.34,2.34,0,0,0,1.07.13Zm14.62,1.09,2.38-.6q1.85,5.53,3.29,11.59l-2.45.6q-.1-.45-.38-1.6t-.46-1.79a78.16,78.16,0,0,1-13.68,2.26l-.25-2.6A65.79,65.79,0,0,0,576,99V88.86h-3.6v2.48h-2.48v-17H576V68.84h2.66v5.53H585V88.86h-6.26v9.71q1.92-.34,3.88-.79Q581.66,94.43,580.82,91.94Zm-4.79-15h-3.6v9.41H576Zm2.66,0v9.41h3.74V76.93Z"/><path d="M593.1,80.13a68.13,68.13,0,0,0,14.42-11.21h3.43a67,67,0,0,0,14.41,11.21l-1.22,2.48a65.59,65.59,0,0,1-14.9-11.7,65.59,65.59,0,0,1-14.9,11.7Zm28.3,7V103.3h-2.8v-2H599.85v2h-2.8V87.09Zm-21.83-4.63V79.94h19.31v2.52Zm.28,16.36H618.6V89.57H599.85Z"/><path d="M660.51,100.86a54.14,54.14,0,0,1-9,.79q-6.54,0-9.46-1.64a5.51,5.51,0,0,1-2.92-5.17q0-6.13,10.78-9.41A4.74,4.74,0,0,0,648.57,83a3.31,3.31,0,0,0-2.15-.7q-2.13,0-4.86,2.24a28.22,28.22,0,0,0-5.46,6.41l-2.2-1.5A77.21,77.21,0,0,0,641.1,76.1h-7V73.66h8q.84-2.14,1.61-4.7l2.55.64-1.4,4.06h15.53V76.1H643.86q-1.19,2.9-2.62,6l0,0a10.08,10.08,0,0,1,5.6-2.33q4.23,0,5.63,4.93a73.13,73.13,0,0,1,8.19-1.5l.24,2.52A74.08,74.08,0,0,0,653,87.2a50.35,50.35,0,0,1,.46,7.52h-2.76a59.51,59.51,0,0,0-.31-6.81q-8.54,2.67-8.5,6.7a4,4,0,0,0,.35,1.77,3.91,3.91,0,0,0,1.31,1.39,7.42,7.42,0,0,0,3,1,31,31,0,0,0,5,.34,51.34,51.34,0,0,0,8.75-.83Z"/><path d="M672.48,70.31h26.17v32.77h-2.8V101H675.27v2.07h-2.8Zm2.8,9.29h20.57V72.87H675.27Zm0,2.52V89h20.57V82.12Zm0,9.41v7h20.57v-7Z"/><path d="M721.07,75.77v2.56h-4.13v8.73q2.55-.94,4-1.58l.45,2.52q-2.52,1.13-4.41,1.81v8.28q0,3.27-.54,4.06t-2.82.79q-.91,0-3.5-.19l-.14-2.52q2.52.19,3.36.19.67,0,.77-.26a9.18,9.18,0,0,0,.11-2V90.7q-2,.64-4.3,1.17l-.24-2.67q2.13-.49,4.55-1.24V78.32H709.7V75.77h4.48V69h2.76v6.73Zm20.64-.41q-.07,1.77-.17,2.82a8.76,8.76,0,0,1-.4,1.94,4.67,4.67,0,0,1-.61,1.3,2.33,2.33,0,0,1-1,.7,5.53,5.53,0,0,1-1.5.36q-.79.07-2.15.11-3.08.08-4.55.08t-4.51-.08a8.35,8.35,0,0,1-3.66-.58q-.75-.51-.75-2.43V69.41h2.73v4.18a122.21,122.21,0,0,0,15.18-3.65l.84,2.45a117.74,117.74,0,0,1-16,3.8v2.56q0,1,.3,1.11a9.46,9.46,0,0,0,2,.25q2.52.08,3.78.08,1,0,3.71-.08,1.12,0,1.61-.08a3.9,3.9,0,0,0,1-.25,1.8,1.8,0,0,0,.72-.39,2.94,2.94,0,0,0,.37-.88,6.5,6.5,0,0,0,.26-1.35q.05-.66.12-2.05Zm-3.92,27.84v-1.66H725.44v1.66h-2.8V85.28h18v17.91ZM725.44,92.13h12.35V87.84H725.44Zm0,2.41V99h12.35V94.54Z"/><path d="M753.43,70.39Q753,80.85,753,87.77a35.31,35.31,0,0,0,.4,5.91,8,8,0,0,0,1.36,3.54A4.94,4.94,0,0,0,757,98.9a9.78,9.78,0,0,0,3.27.45,9.58,9.58,0,0,0,6.88-3.07,23.6,23.6,0,0,0,5.2-8.93l2.45,1.05q-2.35,6.74-6.07,10.23a12,12,0,0,1-8.45,3.5q-5.67,0-7.85-3.1t-2.19-11.27q0-7.75.38-17.49Z"/><path d="M784,73.36q14.24,0,29-.75l.14,2.71q-9,.9-13.85,4.61T794.46,89a9.13,9.13,0,0,0,2.76,7,10.39,10.39,0,0,0,7.38,2.58,26.14,26.14,0,0,0,4.48-.41l.32,2.75a26.68,26.68,0,0,1-4.9.41q-5.95,0-9.46-3.25a11.44,11.44,0,0,1-3.52-8.82,12.7,12.7,0,0,1,2.78-8,18.34,18.34,0,0,1,7.85-5.59v-.08q-10.67.45-18.16.45Z"/><path d="M826.57,73.85A51.12,51.12,0,0,0,825,86.64,19.24,19.24,0,0,0,826.68,95q1.65,3.4,3.32,3.4,1.15,0,3-2.48a28.08,28.08,0,0,0,3.41-7.07l2.52,1.05a25,25,0,0,1-4.32,8.39q-2.57,3-4.74,3-2.8,0-5.16-4.33a21.46,21.46,0,0,1-2.36-10.42,50.21,50.21,0,0,1,1.61-13.21Zm16.65.34,2.52-.94a44.42,44.42,0,0,1,3.69,11.13,65.56,65.56,0,0,1,1.28,13H848A63.14,63.14,0,0,0,846.73,85,44.55,44.55,0,0,0,843.23,74.19Z"/><path d="M877.34,69.3v4.36h9.76v2.56h-9.76v5.12h8.57v2.6h-8.57v7.83a52.58,52.58,0,0,1,9,7l-1.71,2a60.69,60.69,0,0,0-7.31-6q-.21,3.87-2,5.57T869.53,102a8.21,8.21,0,0,1-5.56-1.79,6.11,6.11,0,0,1-2.06-4.87A5.93,5.93,0,0,1,863.67,91q1.77-1.77,5.86-1.77a13,13,0,0,1,5.14,1.2V83.93H861.07v-2.6h13.61V76.22h-14.8V73.66h14.8V69.3Zm-2.66,23.93a10.79,10.79,0,0,0-4.86-1.39q-5.14,0-5.18,3.54a3.72,3.72,0,0,0,1.31,3,5.38,5.38,0,0,0,3.59,1.11q2.9,0,4-1.28t1.12-4.63Z"/><path d="M896.36,73.81h18.16v-5h2.62v5h9.8v2.41h-9.8v8.62a16.72,16.72,0,0,1,.66,4.74q0,5.72-2.87,8.75t-9.24,4l-.38-2.67q5-.68,7.4-2.75a7.69,7.69,0,0,0,2.54-5.68V90.7h-.07q-1.65,2.6-5.42,2.6a6.56,6.56,0,0,1-5-2.11,7.83,7.83,0,0,1,0-10.44,6.59,6.59,0,0,1,5-2.09,6.85,6.85,0,0,1,4.69,1.73h.07V76.22H896.36Zm10.48,8.79A4.62,4.62,0,0,0,905.5,86a4.68,4.68,0,0,0,1.35,3.39,4.64,4.64,0,0,0,6.63,0A4.72,4.72,0,0,0,914.8,86a4.66,4.66,0,0,0-1.33-3.37,4.69,4.69,0,0,0-6.63,0Z"/><path d="M937.52,101.42a5.9,5.9,0,0,1-1.63-4.19,5.84,5.84,0,0,1,1.63-4.18,5.21,5.21,0,0,1,3.92-1.71,5.1,5.1,0,0,1,3.88,1.71,5.91,5.91,0,0,1,1.59,4.18,6,6,0,0,1-1.59,4.19,5.08,5.08,0,0,1-3.88,1.73A5.19,5.19,0,0,1,937.52,101.42ZM939,94.67a3.56,3.56,0,0,0-1,2.54,3.62,3.62,0,0,0,1,2.56,3.13,3.13,0,0,0,2.38,1.05,3.08,3.08,0,0,0,2.36-1.05,3.65,3.65,0,0,0,1-2.56,3.59,3.59,0,0,0-1-2.54,3.1,3.1,0,0,0-2.36-1A3.15,3.15,0,0,0,939,94.67Z"/></g></g></svg>