<svg xmlns="http://www.w3.org/2000/svg" viewBox="0 0 151.73 49"><defs><style>.cls-1,.cls-2{fill:#b1b1b1;}.cls-2{stroke:#231815;stroke-miterlimit:10;stroke-width:4.09px;}</style></defs><title>ar_logo</title><g id="レイヤー_2" data-name="レイヤー 2"><g id="レイヤー_1-2" data-name="レイヤー 1"><g id="レイヤー_2-2" data-name="レイヤー 2"><g id="レイヤー_1-2-2" data-name="レイヤー 1-2"><path class="cls-1" d="M44.8,37.35a2,2,0,0,1-.73,1.25,2,2,0,0,1-1.32.44A2,2,0,0,1,41,38l-.15-.22a.44.44,0,0,1-.07-.29,17.67,17.67,0,0,1,0-2.79,1,1,0,0,1,.22-.59,2.08,2.08,0,0,1,.66-.73A2.21,2.21,0,0,1,42.82,33a1.93,1.93,0,0,1,1.39.51,2.31,2.31,0,0,1,.66,1.25h-1a1.6,1.6,0,0,0-.37-.59,1.24,1.24,0,0,0-.73-.22,1.36,1.36,0,0,0-.51.15.73.73,0,0,0-.37.29.67.67,0,0,0-.22.51,6.3,6.3,0,0,0-.07,1.17,6.3,6.3,0,0,0,.07,1.17.67.67,0,0,0,.22.51.73.73,0,0,0,.37.29,1.36,1.36,0,0,0,.51.15,1.19,1.19,0,0,0,1.1-.81Z"/><path class="cls-1" d="M45.31,36.84a2.49,2.49,0,0,1,.15-1,1,1,0,0,1,.37-.59,1.31,1.31,0,0,1,.51-.37,1.45,1.45,0,0,1,.81-.15,3.12,3.12,0,0,1,.81.15,1.08,1.08,0,0,1,.44.37,1.6,1.6,0,0,1,.37.59,7.22,7.22,0,0,1,0,2.05,1.6,1.6,0,0,1-.37.59c-.07.07-.15.15-.22.15a.38.38,0,0,1-.29.15,1,1,0,0,1-.81.15,1.91,1.91,0,0,1-1.25-.51,1.6,1.6,0,0,1-.37-.59A1.87,1.87,0,0,1,45.31,36.84Zm2.57,0a2,2,0,0,0-.07-.66c0-.15-.07-.22-.15-.37a1,1,0,0,0-.29-.22.8.8,0,0,0-.37-.07.55.55,0,0,0-.37.07,1,1,0,0,0-.29.22.56.56,0,0,0-.15.37,3,3,0,0,0,0,1.32c0,.15.07.22.15.37a1,1,0,0,0,.29.22.66.66,0,0,0,.37.07.55.55,0,0,0,.37-.07c.07-.07.22-.15.29-.22a.56.56,0,0,0,.15-.37,2,2,0,0,0,.07-.66Z"/><path class="cls-1" d="M49.63,34.79h.81v.44h0a1.32,1.32,0,0,1,1.1-.51,2.6,2.6,0,0,1,.73.15,1.37,1.37,0,0,1,.51.44,1.84,1.84,0,0,1,1.32-.59,1.39,1.39,0,0,1,1,.37,1.49,1.49,0,0,1,.44,1.1V39h-.81V36.47a1,1,0,0,0-.22-.66.89.89,0,0,0-1.17,0,.74.74,0,0,0-.22.66V39h-.81V36.47a1,1,0,0,0-.22-.66.89.89,0,0,0-1.17,0,.74.74,0,0,0-.22.66V39h-.81Z"/><path class="cls-1" d="M56.82,34.79h.81v.44h0a1.32,1.32,0,0,1,1.1-.51,2.6,2.6,0,0,1,.73.15,1.37,1.37,0,0,1,.51.44,1.84,1.84,0,0,1,1.32-.59,1.39,1.39,0,0,1,1,.37,1.49,1.49,0,0,1,.44,1.1V39h-.81V36.47a1,1,0,0,0-.22-.66.89.89,0,0,0-1.17,0,.74.74,0,0,0-.22.66V39h-.81V36.4a1,1,0,0,0-.22-.66.89.89,0,0,0-1.17,0,.74.74,0,0,0-.22.66v2.49H57Z"/><path class="cls-1" d="M64.59,37.2a1.1,1.1,0,0,0,.29.81.94.94,0,0,0,.73.29,1,1,0,0,0,.88-.44l.59.51a1.85,1.85,0,0,1-1.47.66A2,2,0,0,1,65,39a.56.56,0,0,1-.29-.15c-.07-.07-.22-.15-.29-.22a1.73,1.73,0,0,1-.44-.66,1.76,1.76,0,0,1-.15-1,4.33,4.33,0,0,1,.15-1,3,3,0,0,1,.37-.66,1.6,1.6,0,0,1,.59-.37c.22-.07.37-.07.59-.15a1.46,1.46,0,0,1,1.17.51,1.77,1.77,0,0,1,.51,1.32v.73Zm1.69-.73a.94.94,0,0,0-.29-.73,1,1,0,0,0-1.25,0,1.3,1.3,0,0,0-.29.73Z"/><path class="cls-1" d="M68.1,34.79h.81v.44h0A1.38,1.38,0,0,1,70.82,35h.07l-.59.73a.79.79,0,0,0-.51-.22.67.67,0,0,0-.51.22.8.8,0,0,0-.29.66V39h-.81Z"/><path class="cls-1" d="M74.41,38.3a1.6,1.6,0,0,1-.66.51,1.67,1.67,0,0,1-.81.22,1.61,1.61,0,0,1-1.25-.51,2,2,0,0,1-.59-1.69,2.09,2.09,0,0,1,.59-1.69,1.72,1.72,0,0,1,1.25-.51,1.48,1.48,0,0,1,.81.22,4,4,0,0,1,.66.51l-.59.59a1,1,0,0,0-.81-.44c-.73,0-1,.44-1.1,1.32s.37,1.32,1.1,1.32a.84.84,0,0,0,.81-.44Z"/><path class="cls-1" d="M75.14,33h.81v.88h-.81Zm0,1.76h.81V39h-.81Z"/><path class="cls-1" d="M79.24,38.6h0a.73.73,0,0,1-.37.29,1,1,0,0,1-.66.07,1.59,1.59,0,0,1-1-.37,1.07,1.07,0,0,1-.37-.88,1.35,1.35,0,0,1,.37-.88,1.75,1.75,0,0,1,1-.37h1.17V36c0-.37-.29-.59-.81-.51a1.43,1.43,0,0,0-.51.07.57.57,0,0,0-.29.29l-.66-.51a1.47,1.47,0,0,1,1.39-.59,2.41,2.41,0,0,1,1.25.29,1.1,1.1,0,0,1,.44,1.1v2.93h-.81Zm0-1.39h-1c-.51,0-.73.15-.73.51a.56.56,0,0,0,.15.37.57.57,0,0,0,.59.15,1.32,1.32,0,0,0,.73-.15c.15-.07.22-.29.22-.59Z"/><path class="cls-1" d="M81.3,33h.81v4.84c0,.22.07.29.29.29h.29V39h-.37a1.24,1.24,0,0,1-.73-.22.87.87,0,0,1-.29-.81Z"/><path class="cls-1" d="M85.47,33h.81v2.2a1.31,1.31,0,0,1,.51-.37,1.38,1.38,0,0,1,.59-.15,1.29,1.29,0,0,1,1.1.59.79.79,0,0,1,.22.51,8.28,8.28,0,0,1,0,2.2,1.09,1.09,0,0,1-.22.51,1.94,1.94,0,0,1-.44.37,1.43,1.43,0,0,1-1.69-.29V39h-.81Zm1.61,2.49a.54.54,0,0,0-.44.15c-.07.07-.22.22-.22.29a.93.93,0,0,0-.07.44v1c0,.15.07.29.07.44a1,1,0,0,0,.22.29,1,1,0,0,0,.44.15.54.54,0,0,0,.44-.15c.07-.07.22-.15.22-.29a.93.93,0,0,0,.07-.44v-1c0-.15-.07-.29-.07-.44a1,1,0,0,0-.22-.29A1,1,0,0,0,87.09,35.52Z"/><path class="cls-1" d="M89.8,34.79h.81v2.49a1,1,0,0,0,.22.66.89.89,0,0,0,1.17,0,1.18,1.18,0,0,0,.22-.66V34.79H93V39h-.81V38.6h0a1.4,1.4,0,0,1-1,.51,1.54,1.54,0,0,1-1-.37,1.26,1.26,0,0,1-.44-1.1Z"/><path class="cls-1" d="M94.34,33h.81v.88h-.81Zm0,1.76h.81V39h-.81Z"/><path class="cls-1" d="M96.32,33h.81v4.84c0,.22.07.29.29.29h.29V39h-.37a1.24,1.24,0,0,1-.73-.22.75.75,0,0,1-.29-.73Z"/><path class="cls-1" d="M100.94,38.52a1.54,1.54,0,0,1-1,.51,2.14,2.14,0,0,1-.66-.15,1.08,1.08,0,0,1-.44-.37.79.79,0,0,1-.22-.51,11,11,0,0,1,0-2.2.67.67,0,0,1,.22-.51,1.29,1.29,0,0,1,1.1-.59,1.38,1.38,0,0,1,.59.15,1.08,1.08,0,0,1,.44.37V33h.81V39h-.81Zm-.88-2.93a.93.93,0,0,0-.44.07c-.15.07-.22.15-.22.29a.93.93,0,0,0-.07.44v1c0,.15.07.29.07.44a1,1,0,0,0,.22.29,1,1,0,0,0,.44.15.54.54,0,0,0,.44-.15c.15-.07.22-.15.22-.29a.93.93,0,0,0,.07-.44v-.88c0-.15-.07-.29-.07-.44a1,1,0,0,0-.22-.29.33.33,0,0,0-.44-.15Z"/><path class="cls-1" d="M102.84,33h.81v.88h-.81Zm0,1.76h.81V39h-.81Z"/><path class="cls-1" d="M104.82,34.79h.81v.44h0a1.43,1.43,0,0,1,1.1-.51,1.54,1.54,0,0,1,1,.37,1.49,1.49,0,0,1,.44,1.1V39h-.81V36.47a1,1,0,0,0-.22-.66.89.89,0,0,0-1.17,0,1.18,1.18,0,0,0-.22.66V39h-.81Z"/><path class="cls-1" d="M111.64,38.52a1.54,1.54,0,0,1-1,.51,2.14,2.14,0,0,1-.66-.15,1.94,1.94,0,0,1-.44-.37.67.67,0,0,1-.22-.51,5.92,5.92,0,0,1-.07-1.17,6.3,6.3,0,0,1,.07-1.17,3.57,3.57,0,0,1,.22-.51,1.94,1.94,0,0,1,.44-.37,2.14,2.14,0,0,1,.66-.15,1.28,1.28,0,0,1,1,.51v-.44h.81v4.18a1.67,1.67,0,0,1-1.54,1.83h-.22a1.67,1.67,0,0,1-1.39-.73l.66-.51a.62.62,0,0,0,.37.22,1,1,0,0,0,.44.15,1,1,0,0,0,.66-.22,1.09,1.09,0,0,0,.29-.66ZM110,36.91v.66a.38.38,0,0,0,.15.29,1,1,0,0,0,.29.22.79.79,0,0,0,.81,0l.22-.22a.56.56,0,0,0,.15-.29V36.25a.38.38,0,0,0-.15-.29l-.22-.22a.79.79,0,0,0-.81,0c-.07.07-.22.15-.29.22a.56.56,0,0,0-.15.29v.66Z"/><path class="cls-1" d="M17.09,44.31h.66v.29a1.18,1.18,0,0,1,.81-.37,1,1,0,0,1,1,.88,5.31,5.31,0,0,1,0,1.76,1,1,0,0,1-.15.44.73.73,0,0,1-.37.29,1.36,1.36,0,0,1-.51.15,1,1,0,0,1-.44-.15.73.73,0,0,1-.37-.29V49h-.66ZM18.34,47a.66.66,0,0,0,.37-.07l.22-.22a.55.55,0,0,0,.07-.37v-.73c0-.15-.07-.22-.07-.37a.23.23,0,0,0-.22-.22A1,1,0,0,0,18,45l-.22.22a.44.44,0,0,0-.07.29v.73c0,.15.07.22.07.37s.07.15.22.22S18.27,47,18.34,47Z"/><path class="cls-1" d="M20.46,42.92h.66v3.81a.19.19,0,0,0,.22.22h.22v.66h-.29a1.38,1.38,0,0,1-.59-.15.61.61,0,0,1-.22-.59Z"/><path class="cls-1" d="M23.91,47.32h0c-.07.15-.15.22-.29.22a1.25,1.25,0,0,1-.51.07,1.1,1.1,0,0,1-.81-.29,1.06,1.06,0,0,1,0-1.47,1.1,1.1,0,0,1,.81-.29H24v-.22q0-.44-.66-.44A.55.55,0,0,0,23,45l-.22.22-.51-.44a1.32,1.32,0,0,1,1.1-.51,2,2,0,0,1,1,.22.87.87,0,0,1,.29.81v2.27h-.66Zm0-1.1H23.1c-.37,0-.59.15-.59.44a.38.38,0,0,0,.15.29,1,1,0,0,0,.44.15,1.61,1.61,0,0,0,.59-.07.7.7,0,0,0,.15-.51Z"/><path class="cls-1" d="M25.45,44.31h.66v.29h0a.78.78,0,0,1,.81-.37.94.94,0,0,1,.73.29,1.21,1.21,0,0,1,.37.88v2.2h-.59V45.71a1.06,1.06,0,0,0-.15-.51C27.13,45,27,45,26.84,45a.79.79,0,0,0-.44.15.49.49,0,0,0-.15.51v2H25.6Z"/><path class="cls-1" d="M29,44.31h.59v.29h0a.78.78,0,0,1,.81-.37.94.94,0,0,1,.73.29,1.21,1.21,0,0,1,.37.88v2.2h-.66V45.71a1.06,1.06,0,0,0-.15-.51c-.15-.15-.29-.22-.44-.15a.79.79,0,0,0-.44.15.49.49,0,0,0-.15.51v2H29Z"/><path class="cls-1" d="M32.56,42.92h.66v.66h-.66Zm0,1.39h.66v3.37h-.66Z"/><path class="cls-1" d="M34.1,44.31h.66v.29h0a.78.78,0,0,1,.81-.37.94.94,0,0,1,.73.29,1.21,1.21,0,0,1,.37.88v2.2H36V45.71a1.06,1.06,0,0,0-.15-.51c-.15-.15-.29-.22-.44-.15a.79.79,0,0,0-.44.15.49.49,0,0,0-.15.51v2h-.66Z"/><path class="cls-1" d="M39.45,47.25a1.18,1.18,0,0,1-.81.37,1.36,1.36,0,0,1-.51-.15.57.57,0,0,1-.29-.29,1,1,0,0,1-.15-.44,5.31,5.31,0,0,1,0-1.76.56.56,0,0,1,.15-.37c.07-.15.22-.22.29-.29a1,1,0,0,1,1.32.29v-.37h.66v3.3A1.38,1.38,0,0,1,38.86,49h-.15a1.29,1.29,0,0,1-1.1-.59l.51-.44a1,1,0,0,0,.29.22.55.55,0,0,0,.37.07.67.67,0,0,0,.51-.22.79.79,0,0,0,.22-.51ZM38.2,45.93v.51c0,.07.07.15.07.22s.15.15.22.15a.55.55,0,0,0,.66,0c.07-.07.15-.07.22-.15s.07-.15.15-.22v-1c0-.07-.07-.15-.15-.22s-.15-.15-.22-.15a1,1,0,0,0-.66,0c-.07.07-.15.07-.22.15a.27.27,0,0,0-.07.22.63.63,0,0,0,0,.51Z"/><path class="cls-1" d="M42.31,44.31h.51v1.39h1.39v.51H42.82v1.39h-.51V46.22H40.91v-.51h1.39Z"/><path class="cls-1" d="M46.92,47.25a1.18,1.18,0,0,1-.81.37,1.36,1.36,0,0,1-.51-.15.73.73,0,0,1-.37-.29L45,46.73A6.49,6.49,0,0,1,45,45a1,1,0,0,1,1-.88.93.93,0,0,1,.44.07.73.73,0,0,1,.37.29V42.85h.66v4.69h-.66Zm-.66-2.35a.66.66,0,0,0-.37.07l-.22.22a.44.44,0,0,0-.07.29v.73c0,.15.07.22.07.37s.07.15.22.22a1,1,0,0,0,.73,0c.07-.07.15-.15.15-.22a.55.55,0,0,0,.07-.37v-.73c0-.15-.07-.22-.07-.29S46.7,45,46.63,45a3.17,3.17,0,0,0-.37-.07Z"/><path class="cls-1" d="M48.9,46.22a.76.76,0,0,0,.81.81,1.3,1.3,0,0,0,.73-.29l.44.44a1.27,1.27,0,0,1-1.17.51,1.25,1.25,0,0,1-.51-.07c-.07,0-.15-.07-.22-.15s-.15-.07-.22-.15a.74.74,0,0,1-.29-.51,3.78,3.78,0,0,1-.15-.81,1.45,1.45,0,0,1,.15-.81,1.18,1.18,0,0,1,.29-.51,1.53,1.53,0,0,1,.44-.29.93.93,0,0,1,.44-.07,1.54,1.54,0,0,1,1,.37,1.14,1.14,0,0,1,.37,1v.59Zm1.39-.59a.83.83,0,0,0-.22-.59.77.77,0,0,0-1,0,.83.83,0,0,0-.22.59Z"/><path class="cls-1" d="M51.76,46.59a1.45,1.45,0,0,0,1,.44.54.54,0,0,0,.44-.15.29.29,0,0,0,.15-.29c0-.07,0-.22-.07-.22a.44.44,0,0,0-.29-.07l-.59-.07a1,1,0,0,1-1-1,1.18,1.18,0,0,1,.37-.81,1.14,1.14,0,0,1,.88-.22h.44c.15,0,.22.07.29.07a1.31,1.31,0,0,1,.51.37l-.44.51c-.15-.07-.22-.15-.37-.22a1.09,1.09,0,0,0-.51-.07.54.54,0,0,0-.44.15.38.38,0,0,0-.15.29.27.27,0,0,0,.07.22.56.56,0,0,0,.29.15l.51.07a1.3,1.3,0,0,1,.73.29,1.18,1.18,0,0,1,.22.66.9.9,0,0,1-.37.73,1.47,1.47,0,0,1-1,.29,2,2,0,0,1-1.39-.59Z"/><path class="cls-1" d="M54.84,42.92h.66v.66h-.66Zm0,1.39h.66v3.37h-.66Z"/><path class="cls-1" d="M58.21,47.25a1.18,1.18,0,0,1-.81.37,1.36,1.36,0,0,1-.51-.15.57.57,0,0,1-.29-.29,1,1,0,0,1-.15-.44,5.31,5.31,0,0,1,0-1.76.56.56,0,0,1,.15-.37c.07-.15.22-.22.29-.29a1.23,1.23,0,0,1,1.39.22v-.37h.66v3.37A1.38,1.38,0,0,1,57.7,49h-.15a1.29,1.29,0,0,1-1.1-.59L57,48a1,1,0,0,0,.29.22.55.55,0,0,0,.37.07.67.67,0,0,0,.51-.22.79.79,0,0,0,.22-.51Zm-1.32-1.32v.51c0,.07.07.15.07.22s.15.15.22.15a.55.55,0,0,0,.66,0c.07-.07.15-.07.22-.15a.27.27,0,0,0,.07-.22v-1c0-.07-.07-.15-.07-.22s-.15-.15-.22-.15a1,1,0,0,0-.66,0c-.07.07-.15.07-.22.15a.27.27,0,0,0-.07.22c0,.15.07.37,0,.51Z"/><path class="cls-1" d="M59.82,44.31h.66v.29h0a.78.78,0,0,1,.81-.37.94.94,0,0,1,.73.29,1.21,1.21,0,0,1,.37.88v2.2h-.66V45.71a1.06,1.06,0,0,0-.15-.51c-.15-.15-.29-.22-.44-.15a.79.79,0,0,0-.44.15.49.49,0,0,0-.15.51v2H59.9Z"/><path class="cls-1" d="M64.59,44.31h.51v1.39h1.39v.51H65.1v1.39h-.51V46.22H63.19v-.51h1.39Z"/><path class="cls-1" d="M67.44,46.59a1.45,1.45,0,0,0,1,.44.54.54,0,0,0,.44-.15.29.29,0,0,0,.15-.29c0-.07,0-.22-.07-.22a.44.44,0,0,0-.29-.07l-.59-.07a1,1,0,0,1-1-1,1.18,1.18,0,0,1,.37-.81,1.14,1.14,0,0,1,.88-.22h.44c.15,0,.22.07.29.07a1.31,1.31,0,0,1,.51.37l-.44.51c-.15-.07-.22-.15-.37-.22a.93.93,0,0,0-.44-.07A.54.54,0,0,0,68,45a.38.38,0,0,0-.15.29.27.27,0,0,0,.07.22.56.56,0,0,0,.29.15l.51.07a1.3,1.3,0,0,1,.73.29,1.18,1.18,0,0,1,.22.66.9.9,0,0,1-.37.73,1.47,1.47,0,0,1-1,.29,2,2,0,0,1-1.39-.59Z"/><path class="cls-1" d="M70.45,44.31h.66v2a1.06,1.06,0,0,0,.15.51.63.63,0,0,0,.44.22.52.52,0,0,0,.44-.22.49.49,0,0,0,.15-.51v-2h.66v3.37h-.66v-.37h0a.78.78,0,0,1-.81.37,1.3,1.3,0,0,1-.73-.29,1.21,1.21,0,0,1-.37-.88v-2.2Z"/><path class="cls-1" d="M74,44.31h.66v.29a1.18,1.18,0,0,1,.81-.37,1,1,0,0,1,1,.88,3.57,3.57,0,0,1,.07.88v.88a1,1,0,0,1-.15.44.73.73,0,0,1-.37.29,1.36,1.36,0,0,1-.51.15,1,1,0,0,1-.44-.15.73.73,0,0,1-.37-.29V49H74ZM75.29,47a.66.66,0,0,0,.37-.07l.22-.22a.55.55,0,0,0,.07-.37v-.73c0-.15-.07-.22-.07-.37a.23.23,0,0,0-.22-.22,1,1,0,0,0-.73,0l-.22.22a.44.44,0,0,0-.07.29v.73c0,.15.07.22.07.37s.07.15.22.22.22.22.37.15Z"/><path class="cls-1" d="M77.93,46.22a.76.76,0,0,0,.81.81,1.3,1.3,0,0,0,.73-.29l.44.44a1.27,1.27,0,0,1-1.17.51,1.25,1.25,0,0,1-.51-.07c-.07,0-.15-.07-.22-.15s-.15-.07-.22-.15a.74.74,0,0,1-.29-.51,3.78,3.78,0,0,1-.15-.81,1.45,1.45,0,0,1,.15-.81,1.18,1.18,0,0,1,.29-.51,1.53,1.53,0,0,1,.44-.29.93.93,0,0,1,.44-.07,1.54,1.54,0,0,1,1,.37,1.14,1.14,0,0,1,.37,1v.59Zm1.32-.59A.83.83,0,0,0,79,45a.77.77,0,0,0-1,0,.83.83,0,0,0-.22.59Z"/><path class="cls-1" d="M80.71,44.31h.66v.29h0a1,1,0,0,1,1.47-.15h0L82.4,45a.73.73,0,0,0-.88,0,.79.79,0,0,0-.22.51v2h-.66Z"/><path class="cls-1" d="M82.84,44.31h.66l.73,2.35h0L85,44.31h.66l-1.17,3.37h-.51Z"/><path class="cls-1" d="M86.21,42.92h.66v.66h-.66Zm0,1.39h.66v3.37h-.66Z"/><path class="cls-1" d="M87.82,46.59a1.45,1.45,0,0,0,1,.44.54.54,0,0,0,.44-.15.29.29,0,0,0,.15-.29c0-.07,0-.22-.07-.22a.44.44,0,0,0-.29-.07l-.59-.07a1,1,0,0,1-1-1,1.18,1.18,0,0,1,.37-.81,1.14,1.14,0,0,1,.88-.22h.44c.15,0,.22.07.29.07a1.31,1.31,0,0,1,.51.37l-.44.51c-.15-.07-.22-.15-.37-.22a.93.93,0,0,0-.44-.07.54.54,0,0,0-.44.15.38.38,0,0,0-.15.29.27.27,0,0,0,.07.22.56.56,0,0,0,.29.15l.51.07a1.3,1.3,0,0,1,.73.29,1.18,1.18,0,0,1,.22.66.9.9,0,0,1-.37.73,1.47,1.47,0,0,1-1,.29,2,2,0,0,1-1.39-.59Z"/><path class="cls-1" d="M90.9,42.92h.66v.66H90.9Zm0,1.39h.66v3.37H90.9Z"/><path class="cls-1" d="M92.29,45.93a3,3,0,0,1,.07-.81c.07-.15.15-.37.29-.44a.73.73,0,0,1,.37-.29,1.72,1.72,0,0,1,.59-.15,1.38,1.38,0,0,1,.59.15.73.73,0,0,1,.37.29,1.53,1.53,0,0,1,.29.44,4.47,4.47,0,0,1,0,1.61,1.84,1.84,0,0,1-.29.51l-.15.15c-.07.07-.15.07-.22.15a1.72,1.72,0,0,1-.59.15,1.35,1.35,0,0,1-1.25-1C92.36,46.51,92.29,46.22,92.29,45.93Zm2.05,0v-.51a.56.56,0,0,0-.15-.29C94.12,45,94,45,94,45a.8.8,0,0,0-.59,0c-.07.07-.15.07-.22.15s-.07.15-.15.29-.07.37-.07.51a1.25,1.25,0,0,0,.07.51.56.56,0,0,0,.15.29c.07.07.15.15.22.15a.8.8,0,0,0,.59,0c.07-.07.15-.07.22-.15s.07-.22.15-.29v-.51Z"/><path class="cls-1" d="M95.74,44.31h.66v.29h0a.78.78,0,0,1,.81-.37.94.94,0,0,1,.73.29,1.21,1.21,0,0,1,.37.88v2.2h-.66V45.71a1.06,1.06,0,0,0-.15-.51c-.15-.15-.29-.22-.44-.15a.79.79,0,0,0-.44.15.49.49,0,0,0-.15.51v2h-.66Z"/><path class="cls-1" d="M100.57,44.31h.51v1.39h1.39v.51h-1.39v1.39h-.51V46.22H99.18v-.51h1.39Z"/><path class="cls-1" d="M105.63,47.1a3.19,3.19,0,0,1-.51.44,1.09,1.09,0,0,1-.66.15,1.45,1.45,0,0,1-1-.44,2.2,2.2,0,0,1,0-2.64,1.37,1.37,0,0,1,1-.37,2.14,2.14,0,0,1,.66.15,1,1,0,0,1,.51.44l-.44.44a.77.77,0,0,0-.66-.37c-.59,0-.81.37-.81,1s.29,1,.81,1a.77.77,0,0,0,.66-.37Z"/><path class="cls-1" d="M106,45.93a3,3,0,0,1,.07-.81c.07-.15.15-.37.29-.44a.73.73,0,0,1,.37-.29,1.72,1.72,0,0,1,.59-.15,1.38,1.38,0,0,1,.59.15.73.73,0,0,1,.37.29,1.53,1.53,0,0,1,.29.44,4.47,4.47,0,0,1,0,1.61,1.84,1.84,0,0,1-.29.51l-.15.15c-.07.07-.15.07-.22.15a1.72,1.72,0,0,1-.59.15,1.38,1.38,0,0,1-.59-.15.73.73,0,0,1-.37-.29,1.18,1.18,0,0,1-.29-.51A2.75,2.75,0,0,1,106,45.93Zm2,0v-.51a.56.56,0,0,0-.15-.29c-.07-.07-.15-.15-.22-.15a.62.62,0,0,0-.59,0c-.07.07-.15.07-.22.15s-.07.15-.15.29-.07.37-.07.51a1.25,1.25,0,0,0,.07.51.56.56,0,0,0,.15.29c.07.07.15.15.22.15a.62.62,0,0,0,.59,0c.07-.07.15-.07.22-.15s.07-.22.15-.29a.62.62,0,0,0,0-.51Z"/><path class="cls-1" d="M109.44,44.31h.66v.29h0a.78.78,0,0,1,.81-.37.94.94,0,0,1,.73.29,1.21,1.21,0,0,1,.37.88v2.2h-.66V45.71a1.06,1.06,0,0,0-.15-.51c-.15-.15-.29-.22-.44-.15a.79.79,0,0,0-.44.15.49.49,0,0,0-.15.51v2h-.66Z"/><path class="cls-1" d="M113.11,46.59a1.45,1.45,0,0,0,1,.44.54.54,0,0,0,.44-.15.29.29,0,0,0,.15-.29c0-.07,0-.22-.07-.22a.44.44,0,0,0-.29-.07l-.59-.07a1,1,0,0,1-1-1,1.18,1.18,0,0,1,.37-.81,1.14,1.14,0,0,1,.88-.22h.44c.15,0,.22.07.29.07a1.31,1.31,0,0,1,.51.37l-.44.51c-.15-.07-.22-.15-.37-.22a.93.93,0,0,0-.44-.07.54.54,0,0,0-.44.15.38.38,0,0,0-.15.29.27.27,0,0,0,.07.22.56.56,0,0,0,.29.15l.51.07a1.3,1.3,0,0,1,.73.29,1.18,1.18,0,0,1,.22.66.9.9,0,0,1-.37.73,1.47,1.47,0,0,1-1,.29,2,2,0,0,1-1.39-.59Z"/><path class="cls-1" d="M116.18,43.29h.66v1h.44v.51h-.44v2a.19.19,0,0,0,.22.22h.22v.66h-.37a.76.76,0,0,1-.81-.81v-2h-.29v-.51h.29Z"/><path class="cls-1" d="M117.94,44.31h.66v.29h0a1,1,0,0,1,1.47-.15h0l-.44.59a.73.73,0,0,0-.88,0,.79.79,0,0,0-.22.51v2h-.66Z"/><path class="cls-1" d="M120.51,44.31h.66v2a1.06,1.06,0,0,0,.15.51.63.63,0,0,0,.44.22.52.52,0,0,0,.44-.22.49.49,0,0,0,.15-.51v-2H123v3.37h-.66v-.37h0a.78.78,0,0,1-.81.37,1.3,1.3,0,0,1-.73-.29,1.21,1.21,0,0,1-.37-.88v-2.2Z"/><path class="cls-1" d="M126.44,47.1a3.19,3.19,0,0,1-.51.44,1.09,1.09,0,0,1-.66.15,1.45,1.45,0,0,1-1-.44,1.48,1.48,0,0,1-.44-1.32,1.71,1.71,0,0,1,.44-1.32,1.37,1.37,0,0,1,1-.37,2.14,2.14,0,0,1,.66.15,1,1,0,0,1,.51.44l-.44.44a.77.77,0,0,0-.66-.37c-.59,0-.81.37-.81,1s.29,1,.81,1a.77.77,0,0,0,.66-.37Z"/><path class="cls-1" d="M127,43.29h.66v1h.44v.51h-.44v2a.19.19,0,0,0,.22.22h.22v.66h-.37a.76.76,0,0,1-.81-.81v-2h-.29v-.51H127v-1.1Z"/><path class="cls-1" d="M128.79,42.92h.66v.66h-.66Zm0,1.39h.66v3.37h-.66Z"/><path class="cls-1" d="M130.18,45.93a3,3,0,0,1,.07-.81c.07-.15.15-.37.29-.44a.73.73,0,0,1,.37-.29,1.72,1.72,0,0,1,.59-.15,1.38,1.38,0,0,1,.59.15.73.73,0,0,1,.37.29,1.53,1.53,0,0,1,.29.44,4.47,4.47,0,0,1,0,1.61,1.84,1.84,0,0,1-.29.51l-.15.15c-.07.07-.15.07-.22.15a1.72,1.72,0,0,1-.59.15,1.35,1.35,0,0,1-1.25-1C130.26,46.51,130.18,46.22,130.18,45.93Zm2.05,0v-.51a.56.56,0,0,0-.15-.29c-.07-.07-.15-.15-.22-.15a.8.8,0,0,0-.59,0c-.07.07-.15.07-.22.15s-.07.15-.15.29-.07.37-.07.51a1.25,1.25,0,0,0,.07.51.56.56,0,0,0,.15.29c.07.07.15.15.22.15a.8.8,0,0,0,.59,0c.07-.07.15-.07.22-.15s.07-.22.15-.29v-.51Z"/><path class="cls-1" d="M133.63,44.31h.66v.29h0a.78.78,0,0,1,.81-.37.94.94,0,0,1,.73.29,1.21,1.21,0,0,1,.37.88v2.2h-.66V45.71a1.06,1.06,0,0,0-.15-.51c-.15-.15-.29-.22-.44-.15a.79.79,0,0,0-.44.15.49.49,0,0,0-.15.51v2h-.66Z"/><path class="cls-2" d="M39.94,17"/><path class="cls-2" d="M121.44,17"/><path class="cls-1" d="M4.54,30.29,7.95,23h12l3.32,7.32h4.49L14.14,0,0,30.29ZM14,9.8l4,9H9.8Z"/><path class="cls-1" d="M73.55,25.9A10.52,10.52,0,1,1,69.16,5.51a11.16,11.16,0,0,1,4.39.63V1.76a14.76,14.76,0,1,0-7.41,28.58,15.13,15.13,0,0,0,4.68.44,13.28,13.28,0,0,0,2.73-.44Z"/><polygon class="cls-1" points="151.72 5.32 151.72 1.22 136.02 1.22 136.02 30.04 151.72 30.04 151.72 25.95 140.12 25.95 140.12 17.41 151.72 17.41 151.72 13.31 140.12 13.31 140.12 5.32 151.72 5.32"/><path class="cls-1" d="M125.49,20.39a10.33,10.33,0,0,0,5.17-8.88A10.36,10.36,0,0,0,120.46,1.27l-2.24,0h-6.49v29h4.1V5.32h2.29l2.19,0a6.17,6.17,0,1,1,0,12.34H119l7.85,12.49h4.78Z"/><path class="cls-1" d="M45.55,20.39a10.27,10.27,0,0,0,5.17-8.88A10.36,10.36,0,0,0,40.53,1.27l-2.24,0H31.8v29h4.1V5.32h2.29l2.19,0a6.17,6.17,0,1,1,0,12.34H39.11L47,30.19H51.7Z"/><path class="cls-1" d="M92.37,30.82a15,15,0,1,1,15-15h0A15,15,0,0,1,92.37,30.82Zm0-26a11,11,0,1,0,10.92,11h0A11,11,0,0,0,92.37,4.83Z"/></g></g></g></g></svg>