<svg xmlns="http://www.w3.org/2000/svg" viewBox="0 0 242.53 290.45"><defs><style>.cls-1{fill:#6e6e6e;}.cls-2{fill:#637a85;}.cls-3{fill:#e5002d;}</style></defs><title>ar_mark_top1126</title><g id="レイヤー_2" data-name="レイヤー 2"><g id="レイヤー_1-2" data-name="レイヤー 1"><g id="レイヤー_2-2" data-name="レイヤー 2"><g id="レイヤー_2-2-2" data-name="レイヤー 2-2"><path class="cls-1" d="M71,266.52a3.41,3.41,0,0,1-1.25,2.14,3.52,3.52,0,0,1-2.27.76,3.4,3.4,0,0,1-3-1.77l-.25-.38a.76.76,0,0,1-.13-.5,30.39,30.39,0,0,1,0-4.79,1.68,1.68,0,0,1,.38-1,3.58,3.58,0,0,1,1.1-1.26,3.81,3.81,0,0,1,2-.63A3.33,3.33,0,0,1,70,260a4,4,0,0,1,1.13,2.14H69.52a2.75,2.75,0,0,0-.63-1,2.13,2.13,0,0,0-1.26-.38,2.34,2.34,0,0,0-.88.25,1.26,1.26,0,0,0-.63.5,1.14,1.14,0,0,0-.38.88,16.2,16.2,0,0,0,0,4,1.14,1.14,0,0,0,.38.88,1.26,1.26,0,0,0,.63.5,2.34,2.34,0,0,0,.88.25,2,2,0,0,0,1.89-1.39Z"/><path class="cls-1" d="M71.92,265.63a4.29,4.29,0,0,1,.25-1.77,1.73,1.73,0,0,1,.63-1,2.26,2.26,0,0,1,.88-.63,2.49,2.49,0,0,1,1.39-.25,5.36,5.36,0,0,1,1.39.25,1.85,1.85,0,0,1,.76.63,2.75,2.75,0,0,1,.63,1,12.42,12.42,0,0,1,0,3.53,2.75,2.75,0,0,1-.63,1c-.13.13-.25.25-.38.25a.66.66,0,0,1-.5.25,1.75,1.75,0,0,1-1.39.25,3.29,3.29,0,0,1-2.14-.88,2.75,2.75,0,0,1-.63-1A3.21,3.21,0,0,1,71.92,265.63Zm4.41,0a3.49,3.49,0,0,0-.13-1.13c0-.25-.13-.38-.25-.63a1.74,1.74,0,0,0-.5-.38,1.37,1.37,0,0,0-.63-.13.94.94,0,0,0-.63.13,1.74,1.74,0,0,0-.5.38,1,1,0,0,0-.25.63,5.17,5.17,0,0,0,0,2.27c0,.25.13.38.25.63a1.74,1.74,0,0,0,.5.38,1.14,1.14,0,0,0,.63.13.94.94,0,0,0,.63-.13c.13-.13.38-.25.5-.38a1,1,0,0,0,.25-.63,3.49,3.49,0,0,0,.13-1.13Z"/><path class="cls-1" d="M79.36,262.1h1.43v.76h0a2.27,2.27,0,0,1,1.89-.88,4.48,4.48,0,0,1,1.26.25,2.36,2.36,0,0,1,.88.76,3.16,3.16,0,0,1,2.27-1,2.4,2.4,0,0,1,1.64.63,2.57,2.57,0,0,1,.76,1.89v4.79H88.06V265a1.76,1.76,0,0,0-.38-1.13,1.53,1.53,0,0,0-2,0A1.27,1.27,0,0,0,85.3,265v4.29H83.9V265a1.76,1.76,0,0,0-.38-1.13,1.53,1.53,0,0,0-2,0,1.27,1.27,0,0,0-.38,1.13v4.29h-1.4Z"/><path class="cls-1" d="M91.72,262.1h1.39v.76h0A2.27,2.27,0,0,1,95,262a4.48,4.48,0,0,1,1.26.25,2.36,2.36,0,0,1,.88.76,3.16,3.16,0,0,1,2.27-1,2.4,2.4,0,0,1,1.64.63,2.57,2.57,0,0,1,.76,1.89v4.79h-1.39V265a1.76,1.76,0,0,0-.38-1.13,1.53,1.53,0,0,0-2,0,1.27,1.27,0,0,0-.38,1.13v4.29H96.25v-4.41a1.76,1.76,0,0,0-.38-1.13,1.53,1.53,0,0,0-2,0,1.27,1.27,0,0,0-.38,1.13v4.29h-1.4Z"/><path class="cls-1" d="M105.08,266.26a1.9,1.9,0,0,0,.5,1.39,1.62,1.62,0,0,0,1.26.5,1.8,1.8,0,0,0,1.51-.76l1,.88a3.17,3.17,0,0,1-2.52,1.13,3.49,3.49,0,0,1-1.13-.13,1,1,0,0,1-.5-.25c-.13-.13-.38-.25-.5-.38a3.52,3.52,0,0,1-1-2.9,7.44,7.44,0,0,1,.25-1.77,5.11,5.11,0,0,1,.63-1.13,2.75,2.75,0,0,1,1-.63c.38-.13.63-.13,1-.25a2.51,2.51,0,0,1,2,.88,3,3,0,0,1,.88,2.27v1.26ZM108,265a1.62,1.62,0,0,0-.5-1.26,1.71,1.71,0,0,0-2.14,0,2.24,2.24,0,0,0-.5,1.26Z"/><path class="cls-1" d="M111.13,262.1h1.39v.76h0a2.37,2.37,0,0,1,3.28-.38h.13l-1,1.26a1.36,1.36,0,0,0-.88-.38,1.14,1.14,0,0,0-.88.38,1.37,1.37,0,0,0-.5,1.13v4.41h-1.39Z"/><path class="cls-1" d="M122,268.15a2.75,2.75,0,0,1-1.13.88,2.87,2.87,0,0,1-1.39.38,2.77,2.77,0,0,1-2.14-.88,3.46,3.46,0,0,1-1-2.9,3.6,3.6,0,0,1,1-2.9,3,3,0,0,1,2.14-.88,2.54,2.54,0,0,1,1.39.38,6.93,6.93,0,0,1,1.13.88l-1,1a1.74,1.74,0,0,0-1.39-.76c-1.26,0-1.77.76-1.89,2.27s.63,2.27,1.89,2.27a1.45,1.45,0,0,0,1.39-.76Z"/><path class="cls-1" d="M123.24,259.08h1.39v1.51h-1.39Zm0,3h1.39v7.31h-1.39Z"/><path class="cls-1" d="M130.3,268.66h0a1.26,1.26,0,0,1-.63.5,1.78,1.78,0,0,1-1.13.13,2.73,2.73,0,0,1-1.77-.63,1.84,1.84,0,0,1-.63-1.51,2.33,2.33,0,0,1,.63-1.51,3,3,0,0,1,1.77-.63h2v-.76c0-.63-.5-1-1.39-.88a2.46,2.46,0,0,0-.88.13,1,1,0,0,0-.5.5l-1.13-.88a2.53,2.53,0,0,1,2.4-1,4.14,4.14,0,0,1,2.14.5,1.89,1.89,0,0,1,.76,1.89v5h-1.39Zm0-2.4h-1.77c-.88,0-1.26.25-1.26.88a.94.94,0,0,0,1.25.88,2.27,2.27,0,0,0,1.26-.25c.25-.13.38-.5.38-1Z"/><path class="cls-1" d="M133.79,259.08h1.39v8.32c0,.38.13.5.5.5h.5v1.39h-.63a2.13,2.13,0,0,1-1.26-.38,1.5,1.5,0,0,1-.5-1.39Z"/><path class="cls-1" d="M141,259.08h1.39v3.78a2.26,2.26,0,0,1,.88-.63,2.38,2.38,0,0,1,1-.25,2.22,2.22,0,0,1,1.89,1,1.36,1.36,0,0,1,.38.88,14.25,14.25,0,0,1,0,3.78,1.88,1.88,0,0,1-.38.88,3.34,3.34,0,0,1-.76.63,2.45,2.45,0,0,1-2.9-.5v.76h-1.39Zm2.77,4.29a.93.93,0,0,0-.76.25c-.13.13-.38.38-.38.5a1.6,1.6,0,0,0-.13.76v1.64c0,.25.13.5.13.76a1.74,1.74,0,0,0,.38.5,1.79,1.79,0,0,0,.76.25.93.93,0,0,0,.76-.25c.13-.13.38-.25.38-.5a1.6,1.6,0,0,0,.13-.76v-1.64c0-.25-.13-.5-.13-.76a1.74,1.74,0,0,0-.38-.5,1.79,1.79,0,0,0-.76-.26Z"/><path class="cls-1" d="M148.45,262.1h1.39v4.29a1.76,1.76,0,0,0,.38,1.13,1.53,1.53,0,0,0,2,0,2,2,0,0,0,.38-1.13V262.1H154v7.31H152.6v-.76h0a2.41,2.41,0,0,1-1.77.88,2.66,2.66,0,0,1-1.64-.63,2.16,2.16,0,0,1-.76-1.89Z"/><path class="cls-1" d="M156.27,259.08h1.39v1.51h-1.39Zm0,3h1.39v7.31h-1.39Z"/><path class="cls-1" d="M159.68,259.08h1.39v8.32c0,.38.13.5.5.5h.5v1.39h-.63a2.13,2.13,0,0,1-1.26-.38,1.29,1.29,0,0,1-.5-1.26Z"/><path class="cls-1" d="M167.62,268.53a2.65,2.65,0,0,1-1.77.88,3.68,3.68,0,0,1-1.13-.25,1.85,1.85,0,0,1-.76-.63,1.36,1.36,0,0,1-.38-.88,19,19,0,0,1,0-3.78A1.14,1.14,0,0,1,164,263a2.22,2.22,0,0,1,1.89-1,2.38,2.38,0,0,1,1,.25,1.85,1.85,0,0,1,.76.63v-3.78H169V269.3h-1.39Zm-1.51-5a1.6,1.6,0,0,0-.76.13c-.25.13-.38.25-.38.5a1.6,1.6,0,0,0-.13.76v1.64c0,.25.13.5.13.76a1.74,1.74,0,0,0,.38.5,1.79,1.79,0,0,0,.76.25.93.93,0,0,0,.76-.25c.25-.13.38-.25.38-.5a1.6,1.6,0,0,0,.13-.76V265c0-.25-.13-.5-.13-.76a1.74,1.74,0,0,0-.38-.5.56.56,0,0,0-.75-.26h0Z"/><path class="cls-1" d="M170.9,259.08h1.39v1.51H170.9Zm0,3h1.39v7.31H170.9Z"/><path class="cls-1" d="M174.3,262.1h1.39v.76h0a2.46,2.46,0,0,1,1.89-.88,2.66,2.66,0,0,1,1.64.63,2.57,2.57,0,0,1,.76,1.89v4.79h-1.39V265a1.76,1.76,0,0,0-.38-1.13,1.53,1.53,0,0,0-2,0,2,2,0,0,0-.38,1.13v4.29h-1.39Z"/><path class="cls-1" d="M186,268.53a2.65,2.65,0,0,1-1.77.88,3.68,3.68,0,0,1-1.13-.25,3.34,3.34,0,0,1-.76-.63,1.14,1.14,0,0,1-.38-.88,10.19,10.19,0,0,1-.13-2,10.85,10.85,0,0,1,.13-2,6.15,6.15,0,0,1,.38-.88,3.34,3.34,0,0,1,.76-.63,3.68,3.68,0,0,1,1.13-.25,2.21,2.21,0,0,1,1.77.88V262h1.39v7.19a2.87,2.87,0,0,1-2.6,3.12h-.41a2.87,2.87,0,0,1-2.4-1.26l1.13-.88a1.07,1.07,0,0,0,.63.38,1.79,1.79,0,0,0,.76.25,1.76,1.76,0,0,0,1.13-.38,1.88,1.88,0,0,0,.5-1.13Zm-2.9-2.77v1.13a.66.66,0,0,0,.25.5,1.74,1.74,0,0,0,.5.38,1.37,1.37,0,0,0,1.39,0l.38-.38a1,1,0,0,0,.25-.5v-2.27a.66.66,0,0,0-.25-.5l-.38-.38a1.37,1.37,0,0,0-1.39,0c-.13.13-.38.25-.5.38a1,1,0,0,0-.25.5v1.14Z"/><path class="cls-1" d="M9.19,281.21h1.29v.57a2.31,2.31,0,0,1,1.58-.72,1.87,1.87,0,0,1,2,1.72,10.41,10.41,0,0,1,0,3.45,2,2,0,0,1-.29.86,1.43,1.43,0,0,1-.72.57,2.66,2.66,0,0,1-1,.29,2,2,0,0,1-.86-.29,1.43,1.43,0,0,1-.72-.57v3.3H9.19Zm2.44,5.17a1.29,1.29,0,0,0,.72-.14l.43-.43a1.08,1.08,0,0,0,.14-.72v-1.44c0-.29-.14-.43-.14-.72a.46.46,0,0,0-.43-.43,1.29,1.29,0,0,0-.72-.14,1.29,1.29,0,0,0-.72.14l-.43.43a.86.86,0,0,0-.14.57v1.44c0,.29.14.43.14.72s.14.29.43.43S11.49,286.52,11.63,286.38Z"/><path class="cls-1" d="M15.79,278.48h1.3v7.47a.38.38,0,0,0,.32.43H18v1.34h-.57a2.7,2.7,0,0,1-1.15-.29,1.19,1.19,0,0,1-.43-1.15Z"/><path class="cls-1" d="M22.54,287.1h0c-.14.29-.29.43-.57.43a2.44,2.44,0,0,1-1,.14,2.16,2.16,0,0,1-1.58-.57,2.08,2.08,0,0,1,0-2.87,2.16,2.16,0,0,1,1.58-.57h1.72v-.43q0-.86-1.29-.86a1.08,1.08,0,0,0-.72.14l-.43.43-1-.86a2.58,2.58,0,0,1,2.15-1,4,4,0,0,1,1.87.43,1.71,1.71,0,0,1,.57,1.58v4.45h-1.3Zm0-2.15H21c-.72,0-1.15.29-1.15.86a.75.75,0,0,0,.29.57,2,2,0,0,0,.86.29,3.16,3.16,0,0,0,1.15-.14,1.37,1.37,0,0,0,.29-1Z"/><path class="cls-1" d="M25.56,281.21h1.29v.57h0a1.53,1.53,0,0,1,1.58-.72,1.84,1.84,0,0,1,1.44.57,2.38,2.38,0,0,1,.72,1.72v4.37H29.43V284a2.07,2.07,0,0,0-.29-1c-.29-.29-.57-.43-.86-.29a1.54,1.54,0,0,0-.86.29,1,1,0,0,0-.29,1v3.88H25.84Z"/><path class="cls-1" d="M32.59,281.21h1.15v.57h0a1.53,1.53,0,0,1,1.58-.72,1.84,1.84,0,0,1,1.44.57,2.38,2.38,0,0,1,.72,1.72v4.37h-1.3V284a2.07,2.07,0,0,0-.29-1c-.29-.29-.57-.43-.86-.29a1.54,1.54,0,0,0-.86.29,1,1,0,0,0-.29,1v3.88H32.59Z"/><path class="cls-1" d="M39.48,278.48h1.31v1.29H39.48Zm0,2.73h1.31v6.6H39.48Z"/><path class="cls-1" d="M42.5,281.21h1.29v.57h0a1.53,1.53,0,0,1,1.58-.72,1.84,1.84,0,0,1,1.44.57,2.38,2.38,0,0,1,.72,1.72v4.37h-1.3V284a2.07,2.07,0,0,0-.29-1c-.29-.29-.57-.43-.86-.29a1.54,1.54,0,0,0-.86.29,1,1,0,0,0-.29,1v3.88H42.64Z"/><path class="cls-1" d="M53,286.95a2.31,2.31,0,0,1-1.58.72,2.66,2.66,0,0,1-1-.29,1.12,1.12,0,0,1-.57-.57,2,2,0,0,1-.29-.86,10.41,10.41,0,0,1,0-3.45,1.1,1.1,0,0,1,.29-.72c.14-.29.43-.43.57-.57a2,2,0,0,1,2.58.57v-.72h1.29v6.46a2.7,2.7,0,0,1-2.48,2.88H51.5a2.53,2.53,0,0,1-2.15-1.15l1-.86a2,2,0,0,0,.57.43,1.08,1.08,0,0,0,.72.14,1.3,1.3,0,0,0,1-.43,1.55,1.55,0,0,0,.43-1Zm-2.44-2.58v1c0,.14.14.29.14.43s.29.29.43.29a1.08,1.08,0,0,0,1.29,0c.14-.14.29-.14.43-.29s.14-.29.29-.43v-2c0-.14-.14-.29-.29-.43s-.29-.29-.43-.29a2,2,0,0,0-1.29,0c-.14.14-.29.14-.43.29a.53.53,0,0,0-.14.43A1.23,1.23,0,0,0,50.54,284.37Z"/><path class="cls-1" d="M58.58,281.21h1v2.73h2.73v1H59.58v2.78h-1V285H55.85v-1h2.73Z"/><path class="cls-1" d="M67.62,286.95a2.31,2.31,0,0,1-1.58.72,2.66,2.66,0,0,1-1-.29,1.43,1.43,0,0,1-.72-.57l-.43-.86a12.71,12.71,0,0,1,0-3.3,1.87,1.87,0,0,1,2-1.72,1.82,1.82,0,0,1,.86.14,1.43,1.43,0,0,1,.72.57v-3.3h1.32v9.19H67.48Zm-1.29-4.59a1.29,1.29,0,0,0-.72.14l-.43.43a.86.86,0,0,0-.14.57v1.44c0,.29.14.43.14.72s.14.29.43.43a1.87,1.87,0,0,0,1.44,0c.14-.14.29-.29.29-.43a1.08,1.08,0,0,0,.14-.72V283.5c0-.29-.14-.43-.14-.57s-.14-.43-.29-.43A6.22,6.22,0,0,0,66.33,282.36Z"/><path class="cls-1" d="M71.5,284.94a1.48,1.48,0,0,0,1.37,1.58h.21a2.55,2.55,0,0,0,1.44-.57l.86.86a2.49,2.49,0,0,1-2.3,1,2.44,2.44,0,0,1-1-.14c-.14,0-.29-.14-.43-.29s-.29-.14-.43-.29a1.45,1.45,0,0,1-.57-1,7.41,7.41,0,0,1-.29-1.58,2.84,2.84,0,0,1,.29-1.58,2.31,2.31,0,0,1,.57-1,3,3,0,0,1,.86-.57,1.82,1.82,0,0,1,.86-.14,3,3,0,0,1,1.87.72,2.23,2.23,0,0,1,.72,2v1.15Zm2.73-1.15a1.63,1.63,0,0,0-.43-1.15,1.51,1.51,0,0,0-1.87,0,1.63,1.63,0,0,0-.43,1.15Z"/><path class="cls-1" d="M77.1,285.66a2.83,2.83,0,0,0,2,.86,1.05,1.05,0,0,0,.86-.29.57.57,0,0,0,.29-.57c0-.14,0-.43-.14-.43a.86.86,0,0,0-.57-.14l-1.15-.14a2,2,0,0,1-1.87-1.87,2.31,2.31,0,0,1,.72-1.58,2.24,2.24,0,0,1,1.72-.43h.83c.29,0,.43.14.57.14a2.58,2.58,0,0,1,1,.72l-.86,1c-.29-.14-.43-.29-.72-.43a2.13,2.13,0,0,0-1-.14,1.05,1.05,0,0,0-.86.29.75.75,0,0,0-.29.57.53.53,0,0,0,.14.43,1.09,1.09,0,0,0,.57.29l1,.14a2.55,2.55,0,0,1,1.44.57,2.32,2.32,0,0,1,.43,1.29,1.77,1.77,0,0,1-.72,1.44,2.89,2.89,0,0,1-1.87.57,3.92,3.92,0,0,1-2.73-1.15Z"/><path class="cls-1" d="M83.13,278.48h1.29v1.29H83.13Zm0,2.73h1.29v6.6H83.13Z"/><path class="cls-1" d="M89.73,286.95a2.31,2.31,0,0,1-1.58.72,2.66,2.66,0,0,1-1-.29,1.12,1.12,0,0,1-.57-.57,2,2,0,0,1-.29-.86,10.41,10.41,0,0,1,0-3.45,1.1,1.1,0,0,1,.29-.72c.14-.29.43-.43.57-.57a2.41,2.41,0,0,1,2.73.43v-.72h1.29v6.6a2.7,2.7,0,0,1-2.44,2.87h-.29a2.53,2.53,0,0,1-2.15-1.15l1-.86a2,2,0,0,0,.57.43,1.08,1.08,0,0,0,.72.14,1.3,1.3,0,0,0,1-.43,1.55,1.55,0,0,0,.43-1Zm-2.58-2.58v1c0,.14.14.29.14.43s.29.29.43.29a1.08,1.08,0,0,0,1.29,0c.14-.14.29-.14.43-.29a.53.53,0,0,0,.14-.43v-2c0-.14-.14-.29-.14-.43s-.29-.29-.43-.29a2,2,0,0,0-1.29,0c-.14.14-.29.14-.43.29a.53.53,0,0,0-.14.43C87.15,283.66,87.29,284.09,87.15,284.37Z"/><path class="cls-1" d="M92.89,281.21h1.29v.57h0a1.53,1.53,0,0,1,1.58-.72,1.84,1.84,0,0,1,1.44.57,2.38,2.38,0,0,1,.72,1.72v4.37h-1.3V284a2.08,2.08,0,0,0-.29-1c-.29-.29-.57-.43-.86-.29a1.54,1.54,0,0,0-.86.29,1,1,0,0,0-.29,1v3.88H93Z"/><path class="cls-1" d="M102.22,281.21h1v2.73H106v1h-2.73v2.78h-1V285H99.49v-1h2.73Z"/><path class="cls-1" d="M107.79,285.66a2.83,2.83,0,0,0,2,.86,1.05,1.05,0,0,0,.86-.29.57.57,0,0,0,.29-.57c0-.14,0-.43-.14-.43a.86.86,0,0,0-.57-.14l-1.15-.14a2,2,0,0,1-1.87-1.87,2.31,2.31,0,0,1,.72-1.58,2.24,2.24,0,0,1,1.72-.43h.86c.29,0,.43.14.57.14a2.58,2.58,0,0,1,1,.72l-.86,1c-.29-.14-.43-.29-.72-.43a1.82,1.82,0,0,0-.86-.14,1.05,1.05,0,0,0-.86.29.75.75,0,0,0-.29.57.53.53,0,0,0,.14.43,1.09,1.09,0,0,0,.57.29l1,.14a2.55,2.55,0,0,1,1.44.57,2.32,2.32,0,0,1,.43,1.29,1.77,1.77,0,0,1-.72,1.44,2.89,2.89,0,0,1-1.87.57,3.92,3.92,0,0,1-2.73-1.15Z"/><path class="cls-1" d="M113.71,281.21H115v3.88a2.08,2.08,0,0,0,.29,1,1.24,1.24,0,0,0,.86.43,1.25,1.25,0,0,0,1.15-1.43v-3.88h1.29v6.6h-1.3v-.72h0a1.53,1.53,0,0,1-1.58.72,2.55,2.55,0,0,1-1.44-.57,2.38,2.38,0,0,1-.72-1.72v-4.31Z"/><path class="cls-1" d="M120.6,281.21h1.29v.57a2.31,2.31,0,0,1,1.58-.72,1.87,1.87,0,0,1,2,1.72,7,7,0,0,1,.14,1.72v1.72a2,2,0,0,1-.29.86,1.43,1.43,0,0,1-.72.57,2.66,2.66,0,0,1-1,.29,2,2,0,0,1-.81-.22,1.43,1.43,0,0,1-.72-.57v3.3h-1.29Zm2.58,5.17a1.29,1.29,0,0,0,.72-.14l.43-.43a1.08,1.08,0,0,0,.14-.72v-1.44c0-.29-.14-.43-.14-.72a.46.46,0,0,0-.43-.43,1.87,1.87,0,0,0-1.44,0l-.43.43a.86.86,0,0,0-.14.57v1.44c0,.29.14.43.14.72s.14.29.43.43S122.89,286.52,123.18,286.38Z"/><path class="cls-1" d="M128.35,284.94a1.48,1.48,0,0,0,1.37,1.58h.21a2.55,2.55,0,0,0,1.44-.57l.86.86a2.49,2.49,0,0,1-2.3,1,2.44,2.44,0,0,1-1-.14c-.14,0-.29-.14-.43-.29s-.29-.14-.43-.29a1.45,1.45,0,0,1-.57-1,7.41,7.41,0,0,1-.29-1.58,2.84,2.84,0,0,1,.29-1.58,2.31,2.31,0,0,1,.57-1,3,3,0,0,1,.86-.57,1.82,1.82,0,0,1,.86-.14,3,3,0,0,1,1.87.72,2.23,2.23,0,0,1,.72,2v1.15Zm2.58-1.15a1.63,1.63,0,0,0-.43-1.15,1.51,1.51,0,0,0-1.87,0,1.63,1.63,0,0,0-.43,1.15Z"/><path class="cls-1" d="M133.79,281.21h1.29v.57h0a2,2,0,0,1,2.81-.34l.06.05h0l-.86,1.15a1.44,1.44,0,0,0-1.72,0,1.55,1.55,0,0,0-.43,1v3.88h-1.29Z"/><path class="cls-1" d="M138,281.21h1.29l1.44,4.59h0l1.44-4.59h1.29l-2.3,6.6h-1Z"/><path class="cls-1" d="M144.57,278.48h1.29v1.29h-1.29Zm0,2.73h1.29v6.6h-1.29Z"/><path class="cls-1" d="M147.73,285.66a2.83,2.83,0,0,0,2,.86,1.05,1.05,0,0,0,.86-.29.57.57,0,0,0,.29-.57c0-.14,0-.43-.14-.43a.86.86,0,0,0-.57-.14l-1.15-.14a2,2,0,0,1-1.87-1.87,2.31,2.31,0,0,1,.72-1.58,2.24,2.24,0,0,1,1.72-.43h.86c.29,0,.43.14.57.14a2.58,2.58,0,0,1,1,.72l-.86,1c-.29-.14-.43-.29-.72-.43a1.82,1.82,0,0,0-.86-.14,1.05,1.05,0,0,0-.86.29.75.75,0,0,0-.29.57.53.53,0,0,0,.14.43,1.09,1.09,0,0,0,.57.29l1,.14a2.55,2.55,0,0,1,1.44.57,2.32,2.32,0,0,1,.43,1.29,1.77,1.77,0,0,1-.72,1.44,2.89,2.89,0,0,1-1.87.57,3.92,3.92,0,0,1-2.73-1.15Z"/><path class="cls-1" d="M153.79,278.48h1.29v1.29h-1.29Zm0,2.73h1.29v6.6h-1.29Z"/><path class="cls-1" d="M156.49,284.37a5.89,5.89,0,0,1,.14-1.58c.14-.29.29-.72.57-.86a1.43,1.43,0,0,1,.72-.57,3.38,3.38,0,0,1,1.15-.29,2.7,2.7,0,0,1,1.15.29,1.43,1.43,0,0,1,.72.57,3,3,0,0,1,.57.86,8.76,8.76,0,0,1,0,3.16,3.6,3.6,0,0,1-.57,1l-.29.29c-.14.14-.29.14-.43.29a3.38,3.38,0,0,1-1.15.29,2.65,2.65,0,0,1-2.44-1.87C156.63,285.52,156.49,284.94,156.49,284.37Zm4,0v-1a1.09,1.09,0,0,0-.29-.57c-.14-.14-.29-.29-.43-.29a1.57,1.57,0,0,0-1.15,0c-.14.14-.29.14-.43.29s-.14.29-.29.57a2.32,2.32,0,0,0-.14,1,2.44,2.44,0,0,0,.14,1,1.09,1.09,0,0,0,.29.57c.14.14.29.29.43.29a1.57,1.57,0,0,0,1.15,0c.14-.14.29-.14.43-.29s.14-.43.29-.57Z"/><path class="cls-1" d="M163.24,281.21h1.29v.57h0a1.53,1.53,0,0,1,1.58-.72,1.84,1.84,0,0,1,1.44.57,2.38,2.38,0,0,1,.72,1.72v4.37H167V284a2.08,2.08,0,0,0-.29-1c-.29-.29-.57-.43-.86-.29a1.54,1.54,0,0,0-.86.29,1,1,0,0,0-.29,1v3.88h-1.29Z"/><path class="cls-1" d="M172.71,281.21h1v2.73h2.73v1h-2.73v2.78h-1V285H170v-1h2.73Z"/><path class="cls-1" d="M182.62,286.67a6.24,6.24,0,0,1-1,.86,2.13,2.13,0,0,1-1.29.29,2.83,2.83,0,0,1-2-.86,4.31,4.31,0,0,1,0-5.17,2.69,2.69,0,0,1,2-.72,4.19,4.19,0,0,1,1.29.29,1.93,1.93,0,0,1,1,.86l-.86.86a1.51,1.51,0,0,0-1.29-.72c-1.15,0-1.58.72-1.58,2s.57,2,1.58,2a1.51,1.51,0,0,0,1.29-.72Z"/><path class="cls-1" d="M183.33,284.37a5.89,5.89,0,0,1,.14-1.58c.14-.29.29-.72.57-.86a1.43,1.43,0,0,1,.72-.57,3.38,3.38,0,0,1,1.15-.29,2.7,2.7,0,0,1,1.15.29,1.43,1.43,0,0,1,.72.57,3,3,0,0,1,.57.86,8.76,8.76,0,0,1,0,3.16,3.6,3.6,0,0,1-.57,1l-.29.29c-.14.14-.29.14-.43.29a3.38,3.38,0,0,1-1.15.29,2.7,2.7,0,0,1-1.15-.29A1.43,1.43,0,0,1,184,287a2.31,2.31,0,0,1-.57-1A5.38,5.38,0,0,1,183.33,284.37Zm3.88,0v-1a1.09,1.09,0,0,0-.29-.57c-.14-.14-.29-.29-.43-.29a1.22,1.22,0,0,0-1.15,0c-.14.14-.29.14-.43.29s-.14.29-.29.57a2.32,2.32,0,0,0-.14,1,2.44,2.44,0,0,0,.14,1,1.09,1.09,0,0,0,.29.57c.14.14.29.29.43.29a1.22,1.22,0,0,0,1.15,0c.14-.14.29-.14.43-.29s.14-.43.29-.57A1.21,1.21,0,0,0,187.21,284.37Z"/><path class="cls-1" d="M190.08,281.21h1.29v.57h0a1.53,1.53,0,0,1,1.58-.72,1.84,1.84,0,0,1,1.44.57,2.38,2.38,0,0,1,.72,1.72v4.37h-1.32V284a2.08,2.08,0,0,0-.29-1c-.29-.29-.57-.43-.86-.29a1.54,1.54,0,0,0-.86.29,1,1,0,0,0-.29,1v3.88H190.2Z"/><path class="cls-1" d="M197.26,285.66a2.83,2.83,0,0,0,2,.86,1.05,1.05,0,0,0,.86-.29.57.57,0,0,0,.29-.57c0-.14,0-.43-.14-.43a.86.86,0,0,0-.57-.14l-1.15-.14a2,2,0,0,1-1.87-1.87,2.31,2.31,0,0,1,.72-1.58,2.24,2.24,0,0,1,1.72-.43H200c.29,0,.43.14.57.14a2.58,2.58,0,0,1,1,.72l-.86,1c-.29-.14-.43-.29-.72-.43a1.82,1.82,0,0,0-.86-.14,1.05,1.05,0,0,0-.86.29.75.75,0,0,0-.29.57.53.53,0,0,0,.14.43,1.09,1.09,0,0,0,.57.29l1,.14a2.55,2.55,0,0,1,1.44.57,2.32,2.32,0,0,1,.43,1.29,1.77,1.77,0,0,1-.72,1.44A2.89,2.89,0,0,1,199,288a3.92,3.92,0,0,1-2.73-1.15Z"/><path class="cls-1" d="M203.29,279.2h1.29v2h.86v1h-.86v3.88a.38.38,0,0,0,.32.43h.54v1.29h-.72a1.48,1.48,0,0,1-1.58-1.58v-3.88h-.57v-1h.57Z"/><path class="cls-1" d="M206.74,281.21H208v.57h0a2,2,0,0,1,2.81-.34l.06.05h0l-.86,1.15a1.44,1.44,0,0,0-1.72,0,1.55,1.55,0,0,0-.43,1v3.88h-1.3Z"/><path class="cls-1" d="M211.79,281.21h1.29v3.88a2.08,2.08,0,0,0,.29,1,1.24,1.24,0,0,0,.86.43,1.25,1.25,0,0,0,1.15-1.43v-3.88h1.29v6.6h-1.29v-.72h0a1.53,1.53,0,0,1-1.58.72,2.55,2.55,0,0,1-1.44-.57,2.38,2.38,0,0,1-.72-1.72v-4.31Z"/><path class="cls-1" d="M223.39,286.67a6.24,6.24,0,0,1-1,.86,2.13,2.13,0,0,1-1.29.29,2.83,2.83,0,0,1-2-.86,2.89,2.89,0,0,1-.86-2.58,3.35,3.35,0,0,1,.86-2.58,2.69,2.69,0,0,1,2-.72,4.19,4.19,0,0,1,1.29.29,1.93,1.93,0,0,1,1,.86l-.86.86a1.51,1.51,0,0,0-1.29-.72c-1.15,0-1.58.72-1.58,2s.57,2,1.58,2a1.51,1.51,0,0,0,1.29-.72Z"/><path class="cls-1" d="M224.54,279.2h1.25v2h.86v1h-.86v3.88a.38.38,0,0,0,.32.43h.54v1.29h-.72a1.48,1.48,0,0,1-1.58-1.58v-3.88h-.56v-1h.57v-2.15Z"/><path class="cls-1" d="M228,278.48h1.29v1.29H228Zm0,2.73h1.29v6.6H228Z"/><path class="cls-1" d="M230.71,284.37a5.89,5.89,0,0,1,.14-1.58c.14-.29.29-.72.57-.86a1.43,1.43,0,0,1,.72-.57,3.38,3.38,0,0,1,1.15-.29,2.7,2.7,0,0,1,1.15.29,1.43,1.43,0,0,1,.72.57,3,3,0,0,1,.57.86,8.76,8.76,0,0,1,0,3.16,3.6,3.6,0,0,1-.57,1l-.29.29c-.14.14-.29.14-.43.29a3.38,3.38,0,0,1-1.15.29,2.65,2.65,0,0,1-2.44-1.87C230.85,285.52,230.71,284.94,230.71,284.37Zm4,0v-1a1.09,1.09,0,0,0-.29-.57c-.14-.14-.29-.29-.43-.29a1.57,1.57,0,0,0-1.15,0c-.14.14-.29.14-.43.29s-.14.29-.29.57a2.32,2.32,0,0,0-.14,1,2.44,2.44,0,0,0,.14,1,1.09,1.09,0,0,0,.29.57c.14.14.29.29.43.29a1.57,1.57,0,0,0,1.15,0c.14-.14.29-.14.43-.29s.14-.43.29-.57Z"/><path class="cls-1" d="M237.46,281.21h1.33v.57h0a1.53,1.53,0,0,1,1.58-.72,1.84,1.84,0,0,1,1.44.57,2.38,2.38,0,0,1,.72,1.72v4.37h-1.34V284a2.08,2.08,0,0,0-.29-1c-.29-.29-.57-.43-.86-.29a1.54,1.54,0,0,0-.86.29,1,1,0,0,0-.29,1v3.88H237.6Z"/><path class="cls-2" d="M77,250.63l-3.54-7.82H59.33l-3.65,7.82H53.13l13.46-28.82,12.94,28.81ZM60.33,240.47H72.44l-5.91-13.18Z"/><path class="cls-2" d="M122.06,251.18a15,15,0,0,1-3.74-.47A14.73,14.73,0,0,1,124.94,222v2.47a12.73,12.73,0,0,0-2.94-.35h-.77a12.3,12.3,0,0,0,1,24.55h.63a10.62,10.62,0,0,0,2.08-.32v2.52a12.58,12.58,0,0,1-1.93.25h-1Z"/><polygon class="cls-2" points="187.64 250.37 187.64 221.66 202.34 221.66 202.34 223.95 189.94 223.95 189.94 234.58 202.34 234.58 202.34 236.87 189.94 236.87 189.94 248.07 202.34 248.07 202.34 250.37 187.64 250.37"/><path class="cls-2" d="M163.74,250.57V221.66h5.89l2.37.05a9.89,9.89,0,0,1,4.86,18.48l-.93.54,6.14,9.79h-2.65l-7.08-11.26A7.63,7.63,0,0,0,171.9,224l-2.35-.05H166v26.62Z"/><path class="cls-2" d="M84.47,250.57V221.66h5.89l2.37.05a10,10,0,0,1,9.87,9.9,9.89,9.89,0,0,1-5,8.58l-.94.54,6.14,9.8h-2.59l-7.09-11.27A7.63,7.63,0,0,0,92.63,224L90.28,224H86.79v26.62Z"/><path class="cls-2" d="M144.05,251.2a15,15,0,1,1,15-15,15,15,0,0,1-15,15Zm0-27.77a12.77,12.77,0,1,0,12.74,12.8s0,0,0,0a12.75,12.75,0,0,0-12.71-12.76Z"/></g></g><path class="cls-3" d="M203.82,60.59c.23-.18.23-.39.54-.61s.63-.17.68-.44.49-.3.53,0,.3.2.59.24a.32.32,0,0,1,0,.62,3.55,3.55,0,0,0-1.23.17c-.38.2-.84.69-1.12.77s-.39,0-.39-.19A.91.91,0,0,1,203.82,60.59Z"/><path class="cls-3" d="M174,76.36a.48.48,0,0,0,.54.47h.53a1,1,0,0,1,.85.2,4.23,4.23,0,0,0,.71.59s.15-.07.3.23.57.53.83.3,0-.3,0-.73.29-.41.58-.61.63-.67,1-.57,1.25.06.86-.34-.53-.68-.78-.93-.14-.28-.48-.37a.71.71,0,0,1-.44-.85c.08-.28.08-.4-.26-.23s-.48.48-.71.63-.54.29-.5.49.64.13.93.09,0,.47-.19.59-.55.53-.8.63-.13-.42-.74-.39c-.25,0-.41.2-.76.29s-.72,0-1,.09S174,76.11,174,76.36Z"/><path class="cls-3" d="M172,75.23c.43-.25.75.23.41.34S171.52,75.46,172,75.23Z"/><path class="cls-3" d="M168.86,76.15c.2-.19.61,0,.85-.19s.53-.59.82-.14.37.62.69.62,1.07.54.53.5-.78.18-1.07-.4a.82.82,0,0,0-.93-.3c-.44.1-.44.45-.74.39S168.69,76.35,168.86,76.15Z"/><path class="cls-3" d="M165.51,77.8c.2-.18.58.06.35.2S165.32,78,165.51,77.8Z"/><path class="cls-3" d="M165.62,83.22c.28,0,1.64-.17.66.45a.69.69,0,0,1-.77-.07C165.32,83.47,165.32,83.27,165.62,83.22Z"/><path class="cls-3" d="M165.55,81.66c.64-.11.79.27.45.4C165.11,82.34,165.21,81.72,165.55,81.66Z"/><path class="cls-3" d="M163,79.55a4.9,4.9,0,0,0,1.11-.34c.24-.16.79-.25.67.12A1.26,1.26,0,0,1,164,80a1.55,1.55,0,0,1-.88.15c-.32-.06-.44-.24-.4-.4S162.68,79.62,163,79.55Z"/><path class="cls-3" d="M159.43,80.67a3,3,0,0,1,.86-.37.41.41,0,0,1,.61.2c.09.22.07.27-.12.43s-.38.5-.54.29a.65.65,0,0,0-.57-.24C159.43,81,159.22,80.87,159.43,80.67Z"/><path class="cls-3" d="M156.69,80.46c.6-.12,2.45-.62.34.37a3.43,3.43,0,0,1-1.21.38c-.24,0,0-.29.24-.45S156.22,80.54,156.69,80.46Z"/><path class="cls-3" d="M154.64,83c.31-.21.84-.17,1-.37s.49-.47.73-.35a.3.3,0,0,1,0,.57,3.3,3.3,0,0,0-1.07.49c-.19.24-.64.24-.74,0S154.36,83.25,154.64,83Z"/><path class="cls-3" d="M241.41,48a.78.78,0,0,0-.14-.66c-.19-.28-.38.21-.59-.36-.1-.31-.22-.39,0-.64s.15-.58.36-.82-.36-.58-.5-.86-.61-1.84-.77-2.22c-.09-.19,0-.61-.12-.94s-.41-.15-.58-.65-.38-1.41-.51-1.78-.56-1.22-.79-1.7a2.91,2.91,0,0,0-1.26-1.12c-.24-.12,0-.58,0-.9s.33-.34.23-.67-.19-.4-.44-.4-.52-.28-.67-.52-.45,0-.54-.33a7.4,7.4,0,0,1,.08-1.38,1.15,1.15,0,0,0-.33-.8,6.71,6.71,0,0,0-.72-.6,8.78,8.78,0,0,0-1.47-.68,5.93,5.93,0,0,1-.91-.92c-.18-.2-.55-.47-.4-.73s-.33-.69-.58-.73a.93.93,0,0,1-.63-.59,1.44,1.44,0,0,1,0-.88c.1-.28-.58-.84-.69-1s-.61-.12-.92-.49-1.26-1.58-1.47-1.86-.58-.49-1-.9a8.58,8.58,0,0,1-.93-1.14c-.2-.3-.29-.7-.52-.78s-.83.07-1.07-.26-.84-.57-1.13-.83-.48-.67-.88-.82-.67-.74-.82-1-.72-.35-1-.44a1.65,1.65,0,0,1-.68-.74,1.79,1.79,0,0,0-.84-.76,10.66,10.66,0,0,0-1.88-.68c-.32-.06-.66-.36-1.05-.36s-.53-.24-.86-.41-.53-.51-.73-.8-.87-.46-1.38-.55a10.92,10.92,0,0,1-1.92-.49c-.53-.24-.69-.48-1-.6s-.49-.43-.93-.43l-1.66,0a.76.76,0,0,1-.59-.3s-.65,0-.68-.25c-.07-.84-.34-.64-.53-.84s-.64-.07-1-.12-.69-.43-1.21-.51a.72.72,0,0,1-.66-.49c-.11-.2-.77.06-1,0s-.78-.46-1.25-.6a14.42,14.42,0,0,1-1.67-.36,16.13,16.13,0,0,0-1.71-.37,13.79,13.79,0,0,1-2.14-.69.63.63,0,0,0-.92.16c-.25.26-.75.18-1,.18a15.18,15.18,0,0,0-1.61.13,1.27,1.27,0,0,1-1.17-.43,9.91,9.91,0,0,0-.91-.92c-.2-.09-.66.15-1.25.15a10.62,10.62,0,0,1-1.64-.26,4.38,4.38,0,0,1-1.26-.73,9,9,0,0,0-1.49-.2A3.8,3.8,0,0,1,181.76,4c-.16-.15,0-.5-.25-.7s-.41-.1-.58.16a1.22,1.22,0,0,0-.2.39,1.54,1.54,0,0,1-.63-.36c-.16-.19-1-.07-1.3.06s-.45-.09-.79-.3-.92-.43-1.26-.64a5.37,5.37,0,0,0-1.46-.41c-.26,0-.42.33-.58.51s-.59,0-.88-.18-.55-.58-.8-.7-1,0-1.65,0a3,3,0,0,1-.7-.2c-.61-.11-3.09-.44-3.66-.5s-2.85-.25-3.77-.37-4-.3-4.57-.36S157,.5,156.7.5a10.43,10.43,0,0,0-1.25.08c-.15,0-.5.28-.62-.08s-.52-.25-1-.25-2,.09-2.18.13a5.4,5.4,0,0,1-1.13.2C150.1.58,149.27.3,149,.3S148.1.3,148,.5a.63.63,0,0,1-.77.26,2.83,2.83,0,0,0-.86-.47,14.6,14.6,0,0,0-1.73-.16,8,8,0,0,0-1.41,0c-.52,0-.79.19-1.3.19S141.28,0,140.83,0c-2.71,0-5.35,0-5.7,0-.57,0-3.64.13-3.85.13s-.2.29-.37.41S130.33.3,130,.17A8.49,8.49,0,0,0,128.1.08c-.52,0-1.71.14-2.1.09s-.64,0-.62.17-.19.17-.48.25a1.63,1.63,0,0,1-1.13-.12,3.54,3.54,0,0,0-.92-.38c-.36-.08-1.46.21-2.05.17s-3.13.25-3.68.29-2.45,0-2.65,0a4.19,4.19,0,0,0-1,.09,4.62,4.62,0,0,0-.68.33c-.17.09-.51-.07-.64-.23s-.58,0-.83.09a1.06,1.06,0,0,0-.66.5c-.11.2-.53-.14-.73-.24s-.44.21-1.09.14-3.74.23-4.13.23-3.9.36-4.23.36-1.07.4-1.61.36-1.17.33-1.87.28a3.76,3.76,0,0,0-1.45.29,5.6,5.6,0,0,1-1.26,0c-.23-.07-.87.28-1.46.24s-1.15.18-1.8.13-1,0-1.32-.09-.28,0-.63.2a2.52,2.52,0,0,1-1.61.39,6.45,6.45,0,0,0-1.71.09c-.39,0-1,.4-1.36.4s-.78.18-1.06.18a4.67,4.67,0,0,0-1.18.43c-.18.12-.68,0-1.07-.09a2,2,0,0,1-.86-.24c-.25-.15-.74.39-.94.53s-.84-.14-1.17-.24a1.72,1.72,0,0,0-1,.16c-.22.06-.83.23-1.17.35a15.29,15.29,0,0,1-1.95,0,12.12,12.12,0,0,0-1.91.17c-.33.11-.49.5-.72.7a1.91,1.91,0,0,1-1.22,0,4.44,4.44,0,0,0-1.62.13c-.3.11-.73.67-1,.74a16.16,16.16,0,0,1-2.48,0c-.29,0-.8.33-1.08.38a6.08,6.08,0,0,0-1.26.44A.85.85,0,0,1,62,8c-.24-.11-.53.12-.69.31a.73.73,0,0,1-.59.37c-.28,0-1-.07-1.37-.06-.61.06-.52.6-1.06.67a10.82,10.82,0,0,1-1.09,0c-.32,0-.82.45-1,.56a3.85,3.85,0,0,0-1,.33,2.62,2.62,0,0,1-1.22.27,5.43,5.43,0,0,0-1.06.16,4.44,4.44,0,0,0-1.23.58,5.25,5.25,0,0,1-1.61.67,7.07,7.07,0,0,1-1.9.45c-.31-.09-.23-.22-.47,0a3.3,3.3,0,0,1-1.09.41c-.47.17-.62.55-1.06.65a10.36,10.36,0,0,1-1.41.16c-.33,0-.69.44-1,.65a1.28,1.28,0,0,1-.84.4,2.72,2.72,0,0,0-1.11.38c-.3.2-.39.41-.78.41s-1.31.72-1.77.88-1.91.88-2.32,1-1.8,1.08-2.14,1.25a.9.9,0,0,1-.94,0c-.25-.13-.53.36-.67.55a4.9,4.9,0,0,1-.69.69,1.24,1.24,0,0,1-.62.29,7.49,7.49,0,0,1-1.32.22c-.22-.07-.48.42-.73.56a4.49,4.49,0,0,0-1,.57,1.35,1.35,0,0,1-1,.4c-.31-.06-.64.23-.95.34s-.47.34-.74.34a5.14,5.14,0,0,0-1.26.68,4.26,4.26,0,0,0-.77,1c-.19.28-.5.72-.83.82s-.58.09-.71.33-.5.19-.88.09-.29.25-.35.59-.3.5-.63.74a5.13,5.13,0,0,1-1.17.39,13.27,13.27,0,0,0-1.12.91.91.91,0,0,1-.73.18c-.21-.06-.35-.12-.5.12s-.42.18-.71.47a3.73,3.73,0,0,0-.89,1,4,4,0,0,1-.23,1c-.21.36-.26.41-.59.24s-.44.17-.64.29S13.31,32,13,32a5.24,5.24,0,0,1-.63.21c-.19,0-.44.4-.69.4s-.51.26-.79.22a.84.84,0,0,0-.71.15,2.74,2.74,0,0,0-.62,1,6.69,6.69,0,0,0-.49.92c-.25.64-.44.83-.68,1a1.51,1.51,0,0,0-.73.34c-.2.18.29.18.52.43s.15.23,0,.44-.28.14-.58,0a1.76,1.76,0,0,1-.62-.57c-.19-.19-.44.12-.48.31a.53.53,0,0,1-.54.35,6.37,6.37,0,0,1-.79.06c-.18-.06-.25.29-.2.53s.43.34.69.39a1.2,1.2,0,0,1,.73.54c.15.24-.29.54-.63.61a1.59,1.59,0,0,0-.91.39c-.26.25-.1.65-.15.95a.9.9,0,0,1-.37.59,5.25,5.25,0,0,1-.82.38,2.26,2.26,0,0,1-.91.2c-.43,0,0,.39.3.42s.4.37.48.55a1.8,1.8,0,0,1-.05,1c-.1.27-.25.49-.48.44a1.51,1.51,0,0,0-.88.2c-.22.15-.24.49-.38.73s.38.44.69.73.28.68.07.83-.23.45-.47.69a1.54,1.54,0,0,0-.4.82c0,.23,0,.79-.3,1a3.15,3.15,0,0,0-.62.92,2.09,2.09,0,0,0-.19,1.12c.06.37.3.64.3,1a.64.64,0,0,1-.3.62c-.25.25-.14.34,0,.58a1.56,1.56,0,0,1,.25.87,1.72,1.72,0,0,1-.44.95c-.21.27-.06.52.14.81s.2.2.24.49a4.84,4.84,0,0,1,.06,1,1.2,1.2,0,0,1-.35.88c-.2.22,0,.56.25.78s.2.57.25.93.28.27.58.48a6.92,6.92,0,0,1,.78.93c.19.23.16.92.19,1.42s.15,1,.19,1.41.26.53.45.76.5.7.69,1a1.53,1.53,0,0,1,.29.87A3.86,3.86,0,0,0,4,68.21c.15.44.1.48.39.74a6.56,6.56,0,0,0,1,.57,1.4,1.4,0,0,1,.49,1.12,3.32,3.32,0,0,0,.43,1.25c.19.35.4.35.72.35a3.71,3.71,0,0,1,1.38.35c.33.18.92.1,1.21.24s.14.63.34,1,.83.38,1.17.38.63.28.87.4,1,0,1.46,0,.6.25.92.25a2.68,2.68,0,0,1,1.18.47c.24.2,1,0,1.25.21s.79.45,1.14.63a1.13,1.13,0,0,0,1,.06c.29-.1.47-.44.73-.54a3.38,3.38,0,0,1,1,0,1.86,1.86,0,0,1,.83.28c.24.15.4-.09.62-.28s.3-.3.55-.3.42-.21.58-.53.35-.28.63-.15.38.34.63.53a2.84,2.84,0,0,0,.79.5,4.69,4.69,0,0,0,1.31-.15c.39,0,.43-.21.63-.42a2.19,2.19,0,0,1,.83-.75c.44-.24.33-.14.6-.14s.39-.36.49-.55.41-.82.77-.82a2.29,2.29,0,0,1,.83.13c.24.09,1-.47,1.21-.66s.54-.7.84-.75a2.87,2.87,0,0,0,1-.29c.28-.12.69-.82.91-1.06a4.72,4.72,0,0,1,.79-.78,5,5,0,0,0,1.13-1.22,2.21,2.21,0,0,0,.53-1.41A5.23,5.23,0,0,1,37,65.82c-.06-.35-.15-.53.18-.69s.25-.49.4-.79.74-.38.88-.72a1.41,1.41,0,0,0,0-1c-.1-.33-.35-.43-.64-.73s-.2-.43-.24-.68a2.54,2.54,0,0,0-.54-.91c-.19-.27-.45-.17-.68-.27s-.29-.36-.24-.61.63-.29.82-.33.34-.37.15-.37a7.24,7.24,0,0,1-.88-.09c-.24,0-.3-.25-.37-.53a7.74,7.74,0,0,1-.15-1.56c0-.25-.36-.58-.54-.87s.25-.49.19-.74a1.14,1.14,0,0,1,.07-.8,1.47,1.47,0,0,1,.72-.71.33.33,0,0,0,.1-.59.48.48,0,0,1-.08-.67c.14-.3.35-.33.73-.64s.48-.34.73-.24a1.37,1.37,0,0,0,.83.15c.33-.12,0-.35-.24-.58a.55.55,0,0,1,0-.79c.25-.24.69-.3.69-.51s-.35-.38-.54-.53-.19-.47,0-.77S39,48,39.47,48s.63-.25,1-.5.44-.53.78-.82.15-.54.2-.73-.4-.49-.34-.89.2-.53.64-.68.61.1.91.25.39-.21.65-.5a.66.66,0,0,1,.87-.13.57.57,0,0,0,.63,0c.26-.16.2-.69,0-.88s-.15-.7,0-.92.58-.16.87-.07a2.85,2.85,0,0,0,.87.14c.23,0,.19-.48.25-.71s.62-.31.78-.48a3.85,3.85,0,0,1,.35-.64c.19-.26.71-.1,1-.07s.52-.37.67-.62.49-.23.79-.2a5.39,5.39,0,0,0,1.32-.09c.37,0,.43-.33.76-.54s.87-.42,1.22-.67a5.24,5.24,0,0,1,1.08-.63,3.75,3.75,0,0,0,.87-.64,1.63,1.63,0,0,1,1.18-.26c.54,0,1.12,0,1.46,0a2.11,2.11,0,0,0,1.18-.41,3,3,0,0,1,1-.34c.82-.12.54-.49.54-.49a1.79,1.79,0,0,1-.74-.14c-.19-.13.35-.45.74-.73s.39-.24.67-.2.5.26.78.2a.93.93,0,0,1,.89.15.74.74,0,0,0,.69.29c.24,0,.38-.44.57-.44s.53.32.78.19.44-.59.73-.83.49-.34.68-.23a.62.62,0,0,0,.63,0c.36-.16.15-.67.15-.92A1.51,1.51,0,0,1,68,32a1.19,1.19,0,0,1,1.12-.24c.33.06.72.54,1,.65a20.94,20.94,0,0,0,2.87,0,13.39,13.39,0,0,0,1.41-.4c.39-.11.59-.5,1-.77a2,2,0,0,1,1.19-.44,2.32,2.32,0,0,0,1-.05,6.06,6.06,0,0,1,1.06-.25c.24-.08.36-.46.5-.74a.51.51,0,0,1,.79-.09,2.06,2.06,0,0,0,.67.37c.26.16.93,0,1.33,0a1.8,1.8,0,0,0,.88-.28c.34-.14.63-.34.67-.54s-.14-.38-.14-.61.54-.3.78-.3,1.07.12,1.36.12a.81.81,0,0,0,.65-.26c.23-.19.44-.44.72-.67s.68-.1,1.23-.1.37.33.68.53,1.13.24,1.12,0,.29-.47.76-.47c.79,0,.63-.29.84-.44a3,3,0,0,1,.89-.68c.74-.24.87,0,1.08.2s.45.1.88-.07.28-.38.77-.43,1.22,0,1.56,0,.52-.26.77-.4a10.37,10.37,0,0,1,1.92-.39,9,9,0,0,1,1.24-.34c.46-.07,2.11-.15,2.46-.17l2.43-.26a12.2,12.2,0,0,0,2.11-.54,3.72,3.72,0,0,1,1.69,0,10.26,10.26,0,0,0,2.3-.15c.52-.09,1.95-.12,2.39-.21s.77-.28,1.25-.38a1.4,1.4,0,0,1,1,.2c.44.18.63,0,1.08.06a3.6,3.6,0,0,0,1.22-.06c.47-.11,1-.11,1.3-.15a4.27,4.27,0,0,1,1,.22,3.49,3.49,0,0,1,1,.12c.19.16.48,0,.72-.22s.44-.21.79-.24.64.24.82.41.44,0,.74-.24.78,0,1,0a6.08,6.08,0,0,0,1.94-.59c.49-.28.64.11,1,.16s1.52,0,2.11,0,2.05-.2,2.71-.24a13.25,13.25,0,0,0,1.76-.1,3.21,3.21,0,0,1,1.61.13,1.35,1.35,0,0,0,1.23-.07c.29-.2.92.07,1.1.18s.85-.11,1.13-.11.49.25.68.35.45-.14.82-.29a4.11,4.11,0,0,1,1.23,0,7,7,0,0,0,1.09-.12,2.13,2.13,0,0,1,1.2.18,3,3,0,0,0,1.42-.15,10.72,10.72,0,0,1,2.32-.2,28.91,28.91,0,0,1,4,.2c.4.09.61.5.84.53s.62-.29,1.17-.53a1.76,1.76,0,0,1,1.59.28c.35.25.45,0,.78-.19s.63.25.87.34.73.36,1,.2a11.62,11.62,0,0,1,2,.11c.39,0,1.12,0,1.52,0s.82.3,1.16.3.74-.17,1.13-.17,1,.11,1.52.17,1.31.13,1.75.17a5.59,5.59,0,0,0,1.43.23,1.26,1.26,0,0,1,.72,0,1.75,1.75,0,0,0,.73.08c.2,0,1,.08,1.52.08s.43.18.67.3.29.34.54.34l1.55,0a9.6,9.6,0,0,1,1,.2,2.1,2.1,0,0,1,.69.5,1.12,1.12,0,0,0,.76.14c.29,0,.58.19.93.14s.64.3.84.48.62.15.86.11.88.09,1,.28.6,0,.93.09.54-.28.88-.28a1.37,1.37,0,0,1,.74.28,1.3,1.3,0,0,0,.78.11,2.5,2.5,0,0,1,.86.2c.25.12.44,0,.79.12a13.07,13.07,0,0,0,1.93.3c.25,0,.74.22,1.08.14a2.43,2.43,0,0,0,.69-.14c.34-.08.69.22.92.4s.28.45.53.59.45,0,.89.09a2.15,2.15,0,0,0,1,0,2.79,2.79,0,0,1,1,.14,2.14,2.14,0,0,1,1,.55,1,1,0,0,0,.63.28,3.69,3.69,0,0,1,1.16.29c.35.2.79.08,1.07.29a9.48,9.48,0,0,0,.9.49,1.74,1.74,0,0,0,.91.14,2.94,2.94,0,0,1,1,.36,4.69,4.69,0,0,1,.86.54,1.74,1.74,0,0,0,.9.19c.29,0,.39.33.57.48s.69,0,.94.21.69,0,.93,0a3.76,3.76,0,0,1,1,.09c.29.09.38.29.48.53a3.92,3.92,0,0,0,.34.54c.15.23.52.29.78.43a8.23,8.23,0,0,0,1.12.39,2.83,2.83,0,0,0,1.21.3c.5,0,.2.29.39.55s.35.15.65.15a1.44,1.44,0,0,1,.75.32,3.55,3.55,0,0,0,.74.44c.3.16.51.08.89.36a2.35,2.35,0,0,1,.82.84.89.89,0,0,0,.83.33,4.47,4.47,0,0,1,.76,0c.19.1.13.26.33.38.4.2.33.24.48.53a1.77,1.77,0,0,0,.66.7c.34.24.66.24,1,.57s.45.68.61.87.4.17.77.25.54.44.69.78a7.73,7.73,0,0,0,1,1.18,5.34,5.34,0,0,1,.78,1.4,3.58,3.58,0,0,1,.36,1.24,9.49,9.49,0,0,1-.28,1.65c-.07.54-.42.8-.63,1.16a3.29,3.29,0,0,1-.77.78c-.29.23-.58.66-.88.92a.87.87,0,0,1-.77.24c-.3,0-.84.33-1.1.53a5.1,5.1,0,0,1-.79.69c-.46.23-.89.58-1.38.87s-.93.72-1.26.87-1,.55-1.45.77a10.46,10.46,0,0,0-1.53,1.22c-.34.33-.53.66-.93.58a5.3,5.3,0,0,0-1.94.12c-.34.2-.67.78-1,1a2.75,2.75,0,0,1-1.07.54c-.6.2.19.25.43.3a4.91,4.91,0,0,0,1.32,0c.38,0,.38-.2.69-.42s.32-.25.57-.07.35.2.54.07.55-.07.83-.07a13.91,13.91,0,0,1,1.45,0c.25,0,.44.18.58-.05s.21-.49.41-.77.32-.23.62-.4.31-.37.53-.52a10.55,10.55,0,0,1,1.33-.22,1.7,1.7,0,0,0,.74-.34,1.71,1.71,0,0,1,.76-.33,2.76,2.76,0,0,0,.68,0,1,1,0,0,0,.52-.15c.29-.24.08-.44.23-.78s.59-.24.92-.49c.63-.48,1-.38,1.32-.56a1.58,1.58,0,0,1,1.17-.2c.29.1.09.38.13.68s-.47.54-.72.54-.34.28-.48.54a5.6,5.6,0,0,0-.5.76.71.71,0,0,1-.68.54,1.66,1.66,0,0,0-1,.46c-.28.25-.19.38-.48.38a.73.73,0,0,0-.68.64c0,.32-.29.56-.69.94a1.61,1.61,0,0,1-.92.33c-.29,0-.48.5-.82.54s-.49,0-.68.17a1.21,1.21,0,0,1-.83.34c-.29.06-.34.4-.59.64a1,1,0,0,1-1.12.06c-.2-.24-.49-.11-1-.06s-1,.64-1.3.88a9.53,9.53,0,0,1-.84.6c-.34.18-.39.09-.78.33a3.69,3.69,0,0,1-1.31.4c-.39,0-1,.19-1.18.67s-.48.28-.73.4a4.47,4.47,0,0,1-1.3-.11,1.8,1.8,0,0,0-.83.3c-.22.1-.44.24-.64,0s-.38.06-.61.2-.12.34-.36.54-.54.33-.72.49a2.42,2.42,0,0,1-1,.35,1.61,1.61,0,0,0-1,.18c-.29.25-.59.69-.87.9a1.08,1.08,0,0,1-.93.09c-.35-.15-.34-.19-.63,0s-.33.54-.69.54-.38.14-.58.58,0,.58-.34.68a2.16,2.16,0,0,1-1.12-.1,1.64,1.64,0,0,0-1.13.39,1,1,0,0,1-.82.27c-.4,0-1,.07-1.36.07a2.27,2.27,0,0,0-1,.43,4.78,4.78,0,0,0-.82.78.62.62,0,0,1-.79,0c-.2-.16-.42-.1-.79,0a3,3,0,0,0-.67.44,5.41,5.41,0,0,1-1.37.29,1.66,1.66,0,0,0-.62.25,4.06,4.06,0,0,1-1.33.18,1.07,1.07,0,0,0-.92.25c-.24.19-1,.14-1.27.14a.67.67,0,0,0-.57.49,11.09,11.09,0,0,0-.21,1.28c0,.16.16.33.45.38a7.14,7.14,0,0,0,.87,0c.4,0,.35.21.6.34s0,.53-.25.74a1.15,1.15,0,0,1-.69.18c-.19,0-.59.11-.63.3s.11.3.44.3.34-.15.59-.25a3.65,3.65,0,0,1,.68-.23c.2,0,.23.3.64.3s.33.13.58.28,0,.49,0,.49a.55.55,0,0,1-.44.2,1.69,1.69,0,0,1-.6-.14,1.17,1.17,0,0,1-.69.22c-.41,0-.41.28-.77.52a1.74,1.74,0,0,0-.52.59,1.35,1.35,0,0,0,.3.69c.24.27.3.49.11.7s-.65.31-1.12.42a2.2,2.2,0,0,1-1,0,4.64,4.64,0,0,0-1.53.36c-.34.12-.4.4-.4.76s-.53.28-.89.4-.69.52-1,.69a4.3,4.3,0,0,1-1.35.4c-.34,0-.74,0-.87.24s-.54.23-.76.06a1.92,1.92,0,0,0-.94-.38c-.3,0-.4.43-.65.75s-.06.56-.23.87-.69.27-1,.16-.48-.66-.58-.88-.39-.15-.81-.15-.36.21-.13.37a.85.85,0,0,1,.37.61c.06.28-.37.57-.7.82a2.56,2.56,0,0,1-1.29.17,2.48,2.48,0,0,0-1.21.43c-.38.15-.71.62-1.19,1a1.63,1.63,0,0,1-1,.48,13.29,13.29,0,0,0-1.36.58c-.4.18-.41.13-1.17,0s-.7.28-.35.46a.91.91,0,0,1,.57.76.82.82,0,0,1-.46.75c-.34.25-.15.33-.39.79s-1.5.38-1.84.38,0,.45-.39.67a2.52,2.52,0,0,1-1,.29c-.24.07-.69.54-1,.54a4.63,4.63,0,0,0-1.49.45c-.48.24-1,.55-1.42.72a3.94,3.94,0,0,0-1.21,1.13c-.34.4-.42.61-.36.92s.3.32.5.39.29-.25.58-.54.33-.15.92-.21.53-.19,1-.43a9,9,0,0,0,1.33-.88,6.71,6.71,0,0,1,1.46-.87c.39-.14,1.26-.38,1.59-.5a2.3,2.3,0,0,1,1.17,0,.56.56,0,0,1,.33.54c.06.31-.46.2-.75.31s-.36.53-.6.77a1.28,1.28,0,0,1-.87.29c-.19,0-.44.33-.49.62s.63.36.89.4.33-.45.57-.74a1,1,0,0,1,.73-.43c.31,0,.73-.19,1-.23s1-.4,1.38-.6.43-.35.71-.53a1.94,1.94,0,0,1,1-.24c.38,0,.85-.71,1.11-.95s1-.09,1.28-.09.46-.38.62-.67,1-.36,1.21-.36.11-.22.55-.35,1.7,0,2.09,0a1.53,1.53,0,0,0,1-.28c.2-.22.4-.74.78-1s.45,0,.74,0a1.7,1.7,0,0,0,.87-.3,9.38,9.38,0,0,0,1.12-.68c.33-.25.84-.09,1.17,0s.58.19.86,0a9,9,0,0,1,2.12-.83c.55-.15,1.51-.74,1.81-.79s.91-.42,1.39-.49a7.16,7.16,0,0,0,1.92-.43,14.38,14.38,0,0,1,1.89-1.08,6.15,6.15,0,0,1,2.28,0,4.78,4.78,0,0,0,1.9-.24c.39-.13,1.38-.91,1.75-1a5,5,0,0,0,2.12-.7c.39-.24,3.93-1.6,4.63-1.85a8.77,8.77,0,0,1,2.57-.29c.3,0,.55,0,.65-.28s.92-.79,1.35-1a1.27,1.27,0,0,1,.92-.15,2.57,2.57,0,0,0,.75-.54c.33-.33.28-.33.63-.5a5,5,0,0,1,1-.29,1.23,1.23,0,0,0,.78-.58c.25-.29.25,0,.59,0a.59.59,0,0,0,.59-.31c.15-.19.58-.64.88-.64s.8-.1,1.17-.14,1.52-.25,1.75-.25.65-.83.92-.91a10.14,10.14,0,0,1,1.46-.25,2.21,2.21,0,0,0,1.17-.51c.25-.2.48-.42.83-.71a2.28,2.28,0,0,1,1.16-.45,2.19,2.19,0,0,0,1.12-.35,15.07,15.07,0,0,1,1.57-1.11c.38-.23,1.31-.63,1.64-.89a1.73,1.73,0,0,1,1.08-.22c.19,0,.62.22.62-.11,0-.48.49-.86.74-1.16s1.34-.94,1.63-1.22a18.07,18.07,0,0,1,2-1.14,5.41,5.41,0,0,0,1.58-1.26,11.86,11.86,0,0,1,1.94-1.7c.19-.12.57-.17.83-.35s.33-.48.53-.72A3.51,3.51,0,0,1,234.16,61a6.84,6.84,0,0,1,1.41-.5c.24-.1.43-.82.58-1s.25-1,.55-1.12.91-.88,1.12-1.06-.17-.74.08-.95a2.28,2.28,0,0,0,.48-.36c.07-.12,0-.26.07-.38a1.87,1.87,0,0,1,.53-1.06c.34-.3.43-.24.58-.47s-.06-.61.1-.95.27-.92.63-1.12a1.13,1.13,0,0,0,.63-.59,1.32,1.32,0,0,0-.15-1.22.54.54,0,0,1,.15-.77c.25-.15.58-.2.66-.45C241.72,48.38,241.37,48.3,241.41,48ZM19.91,36.26c-1.35.42-1.07-.32-.83-.65s.45-.27.85-.11S20.45,36.1,19.91,36.26ZM175.68,10.14c-.73.25-.73-.53-.29-.66C176,9.28,176.15,9.94,175.68,10.14Zm44.84,10.75a5,5,0,0,0-1.13-.15,3,3,0,0,0-1.56.25c-.28.26-.51,0-.87-.28s-.39-.28-.69-.28a.6.6,0,0,1-.62-.43c0-.24-.14-.76-.49-.87a.57.57,0,0,0-.68.15.66.66,0,0,1-.77.15c-.24-.15-.07-.58-.12-.8s-.91-.23-1.39-.74c-.25-.24-.25.74-.34.93s-.69,0-.94-.14a1.51,1.51,0,0,0-1.07-.09c-.43.1-.49-.2-.49-.59s-.27-.53-.63-.7a6.79,6.79,0,0,1-1.27-.72,1.44,1.44,0,0,0-1-.28c-.24,0-.51.46-.79.66s-1-.13-1.37-.29-.86-.34-1.41-.53a2.43,2.43,0,0,1-.85-.56c-.19-.11-.47.1-.68-.15s0-.49-.24-.77-.79.16-1,.44a.36.36,0,0,1-.61,0c-.13-.14-.18-.59-.45-.8a1.48,1.48,0,0,0-1-.18c-.29.06-.52.7-.73.9s-.73,0-1.16-.07a1.65,1.65,0,0,1-1-.45c-.15-.2-.3-.26-.25-.59a.53.53,0,0,0-.25-.65c-.25-.17-.54.1-.69.35s-.36.23-.77.21-.88-.53-1.34-.56-2.61-.57-2.94-.61-.43-.28-.63-.66-.26-.49-.58-.49-.69.54-.92.69-1.07-.08-1.43-.2a5,5,0,0,0-1.32-.23c-.34,0-.4-.26-.64-.29a4,4,0,0,1-1.06-.13c-.24-.11-.42-.73-.81-.81-.22,0-.39.09-.6.24s-.32.14-.68.14-.86-.19-1.19-.19-1,.34-1-.55a1.22,1.22,0,0,0-.71-.7,2.26,2.26,0,0,1-.69,0,4.89,4.89,0,0,1-.76-.36,2.69,2.69,0,0,0-1.22,0c-.38.06-.55.44-.87.65a1.55,1.55,0,0,1-1.23,0c-.36-.11-1-.51-1.49-.71a14,14,0,0,0-1.38-.5,7.12,7.12,0,0,0-1.54.09c-.34,0-.34,0-.55-.32s-.64-.19-.85-.07-.45,0-.78,0-.37-.27-.72-.3a.63.63,0,0,0-.68.45c-.05.17-.21.22-.57.1s-.33-.21-.65-.24-1.16,0-1.45-.07a7,7,0,0,1-1.13-.42c-.35-.2-1,0-1.46,0a3.72,3.72,0,0,0-1.28.32,2.09,2.09,0,0,1-1.3,0,3.63,3.63,0,0,0-1.25-.27,9.54,9.54,0,0,0-1.7.27c-.27.11-.93.53-1.15.57a6,6,0,0,1-1.49,0,1.79,1.79,0,0,1-1-.46c-.3-.27-.69-.82-1-1s-1.4,0-1.74-.12-2.76,0-3,0a6.21,6.21,0,0,0-1.42.11c-.23.12.16.37.48.37s.56-.2.82-.16a1,1,0,0,1,.68.32c.11.21-.13.66-.28.77a4.91,4.91,0,0,1-1.51,0,7.43,7.43,0,0,1-1.07-.2c-.29,0-1,.2-1.31.2a1.08,1.08,0,0,1-.75-.34c-.25-.25-.21-.46.12-.54s0-.42-.19-.49a12,12,0,0,0-1.59,0,7.44,7.44,0,0,0-1.37.16c-.29.09-.49.61-.78.76s-.48,0-.62-.1-.18-.53-.3-.7-.52,0-.8-.07-1.06.17-1.41.17a13.51,13.51,0,0,0-1.41,0c-.28.06-.6.86-.84,1A1.81,1.81,0,0,1,129.45,8a5.11,5.11,0,0,0-.81-.61,3.16,3.16,0,0,0-1.26.3,4.42,4.42,0,0,1-1.33.08c-.38,0-1.13,0-1.33,0l-1.19-.24a2.86,2.86,0,0,0-1.06.4,2,2,0,0,1-1,0,1,1,0,0,0-.72,0c-.2.12-.37.65-.57,1s-.68.28-1,.19-.44-.28-.32-.52.5-.42.54-.69-.36-.2-.62-.11a1.16,1.16,0,0,0-.59.6,2.08,2.08,0,0,1-.29.82c-.19.22-.64.27-1.31.27s-2.8.08-3.41.12-3.18.42-3.41.46a8.05,8.05,0,0,1-1.1,0c-.31,0,0-.68.49-1.05s.16-.33-.42-.33a4.65,4.65,0,0,0-1.28.1c-.36.15-.44.59-.74.7s-.32.07-.48-.23-.4-.18-.76-.13a5.8,5.8,0,0,1-1.25.24c-.35,0-.81,0-1.16,0s-.74.28-1.18.12a1.09,1.09,0,0,0-1,.16,1.35,1.35,0,0,1-1,.3,3.73,3.73,0,0,0-1.2,0c-.37,0-.57.45-.74.52s-.72,0-.91.24-.4.81-.68,1-.69,0-1-.33-.52-.27-.88-1.05c-.14-.3-.39,0-.53.18s-.52.06-.84.06a3,3,0,0,0-1,.31,5.13,5.13,0,0,0-.73.57c-.15.17-.67.06-1.07,0a6.72,6.72,0,0,1-1.33-.45c-.37-.16-.65.09-.86.33s-.68.2-1.16.07a2,2,0,0,0-1.17.15c-.33.11-.72.54-1.16.54s-1.58-.05-2,0a1.89,1.89,0,0,0-1,.57c-.2.14-.89-.11-1.2-.24s-.94,0-1.22.11-1,.56-1.28.64a6.15,6.15,0,0,1-1.39.36c-.34,0-1.28.17-1.82.25a19.94,19.94,0,0,1-2.17.1c-.35,0-.48.12-.72.46s-.61.36-1.3.32-.84.28-1.08.33-.86.07-1,.07-.23.28-.44.69a1,1,0,0,1-1.21.36c-.44-.17-.49-.46-.69-.65s-.5-.06-.74.08a1.73,1.73,0,0,1-.9.38c-.36,0-.44.28-.91.24s-1,.33-1.29.59a3.44,3.44,0,0,1-1.12.54c-.29,0-.91,0-1,.29s-1,.21-1.43.31a11.33,11.33,0,0,1-1.36.24c-.39,0-.25.37-.59.57a1.2,1.2,0,0,1-1,.06c-.3-.06-.6.39-.84.53s-.5.16-1.05,0-1.24.18-1.32.48c-.16.53-.54.46-.89.46s-.53,0-.69.56c-.09.2-.72.18-1,0a3.77,3.77,0,0,0-1.57,0c-.22.07-.06.88-.24,1.17s-.88.21-1.26.21a7.68,7.68,0,0,0-1.62.41,9.63,9.63,0,0,1-1.74.85,3.36,3.36,0,0,0-1.56.27c-.61.48-.53,1.22-.82,1.33s-1.11.06-1.36.17a4.77,4.77,0,0,1-1.42.31c-.28,0-.69.45-.85.63s-.68.11-.89.27a9,9,0,0,1-1,.75c-.27.15-1,0-1.45.26-.21.13-.64.86-1,1a10,10,0,0,0-1.06.24c-.32.1-.8.19-1.07.3a1.59,1.59,0,0,0-.72.95,1.14,1.14,0,0,1-.93.62,2.51,2.51,0,0,0-.85.22c-.28.12-.44.65-.65.85s-.81,0-1,0a2.88,2.88,0,0,0-1.1.61c-.32.23-1.54.92-1.5,1.32a.69.69,0,0,1-.61.73,1,1,0,0,1-.77-.28.51.51,0,0,0-.64,0,12.81,12.81,0,0,1-1.3.92,1.23,1.23,0,0,1-.91.21c-.33,0-.44-.12-.49-.47s.13-.53.27-.78A22.85,22.85,0,0,1,21.76,32c.32-.22.28-1,.48-1.23s1.06-.43,1.25-.6.53-.65.8-.9a8.49,8.49,0,0,1,1.37-1c.23-.06.72-.07.83-.28a10.85,10.85,0,0,1,1.13-1.05c.28-.25.85-.05,1.09-.21a21.58,21.58,0,0,0,1.49-1.89,5.12,5.12,0,0,1,1.48-.36A4.91,4.91,0,0,0,32.91,24c.62-.35,1-.93,1.43-1.21a6,6,0,0,1,1.45-.42,4.54,4.54,0,0,1,1.08-.46A2.36,2.36,0,0,0,38,21.39c.2-.21.73-.6.89-.8a.9.9,0,0,1,.73-.36A4.19,4.19,0,0,0,41,20.17c.2,0,.36-.32.6-.57s.59-.55.77-.55.69-.1,1-.12.55-.43.86-.59,1.2-.58,1.37-.7a5.79,5.79,0,0,1,.93-.24c.27-.05.27-.31.65-.51a15,15,0,0,1,2-.56c.27-.14,1.13-.57,1.46-.7s.91-.36,1.13-.48a3.64,3.64,0,0,1,1.17,0c.36,0,.47-.28.64-.4s.51,0,.76.16.65-.12.81-.36.4-.59.68-.67.73-.08,1.07-.16,1.7-.5,1.92-.55a3.63,3.63,0,0,1,.92-.28,8,8,0,0,0,1.58-.5,8.05,8.05,0,0,0,.88-.53c.23-.14.65,0,.93.09s.64-.29.78-.51.79,0,1,0a5.17,5.17,0,0,0,1.18-.48c.28-.17.69-.06,1-.17a4.05,4.05,0,0,1,1-.47c.54-.11,1.35,0,1.54-.24a1.17,1.17,0,0,1,.94-.41,5.44,5.44,0,0,0,1.06.06c.33,0,.65-.29,1.11-.53s.69,0,1,0a11.59,11.59,0,0,0,1.58-.39,4.07,4.07,0,0,1,1.56-.2,13.25,13.25,0,0,0,1.65-.22,7.45,7.45,0,0,0,1.17-.16A4.65,4.65,0,0,1,81,8a5.66,5.66,0,0,0,1.63-.17c.37-.06,1.28-.47,1.82-.59A7.7,7.7,0,0,1,86,7.17,10.83,10.83,0,0,0,88,6.71a9.44,9.44,0,0,1,1.77-.24,15.21,15.21,0,0,1,1.64-.05c.23.05.59-.17.93-.17S93.52,6,93.87,6s1.46-.29,1.8-.29a8.09,8.09,0,0,1,1.25-.11c.28.06.79-.23,1.22-.29A5.57,5.57,0,0,0,99.6,5c.3-.18.7-.4,1-.3a1.39,1.39,0,0,0,1.32,0,2.35,2.35,0,0,1,1.27-.09c.34.05,1.06-.13,1.53-.07s.93.07,1.09-.17a2.13,2.13,0,0,1,1.48-.28c.3.12.81-.11,1.12-.11A4.87,4.87,0,0,0,109.7,4a4.6,4.6,0,0,1,1.25-.41c.41,0,.88.16,1.34.21a3.18,3.18,0,0,0,1.55-.39A11.9,11.9,0,0,1,116,3.26c.43-.06.83-.28,1.06-.17a7.42,7.42,0,0,0,1.8-.06,5.82,5.82,0,0,0,1.76-.18,4,4,0,0,1,2.05.06A3.08,3.08,0,0,0,124.1,3a5.67,5.67,0,0,1,1.4,0,2.26,2.26,0,0,0,.87-.19,1.54,1.54,0,0,1,1.13.06c.35.18.92-.11,1.38-.31a.92.92,0,0,1,1,.14c.29.24,1.34.06,1.57.06s1.05-.25,1.47-.3.46.24.7.35a10.56,10.56,0,0,0,1.73-.11,20.42,20.42,0,0,1,2.27.19c.4.06,1.18-.14,1.67-.09s.72.42,1,.48.64-.34,1.22-.44a2.9,2.9,0,0,1,1.23.2c.33.06,1-.16,1.64-.1a23.09,23.09,0,0,1,2.8.1c.62.13.72.33,1.25.33s2.3-.15,3-.2c.17,0,.44-.23.72-.18a6.4,6.4,0,0,1,1.75.27c.4.11.49-.23,1.1-.33.8-.14.72.28,1.12.34a5.78,5.78,0,0,0,1.15-.11c.93,0,2.29.2,3.11.15a15.14,15.14,0,0,1,2.28.23,14.75,14.75,0,0,0,1.95.31c.33,0,.58-.3.84-.3s1.12.19,1.5.19a4.72,4.72,0,0,1,1.75.4,3.1,3.1,0,0,0,1.29.28,20.16,20.16,0,0,0,2,0,2.85,2.85,0,0,1,1.26.53.94.94,0,0,0,1,0c.29-.26.86,0,1.35.14s1.31.42,1.62.47a11.31,11.31,0,0,0,1.35.11c.44,0,.69.15,1.08.15a5.78,5.78,0,0,1,1.67.35c.54.19,1.35.22,1.75.42a5.38,5.38,0,0,0,1.61.2,13.64,13.64,0,0,1,1.93.42c.59.16,1.37.3,2,.45A4.25,4.25,0,0,1,190,8a8,8,0,0,0,2.15.53,11.81,11.81,0,0,1,2.89.76c.41.24,2.14.53,2.77.82a7.51,7.51,0,0,0,1.6.48,2,2,0,0,0,1.27,0c.29-.11.48.18.68.38a1.24,1.24,0,0,0,.49.41,2.93,2.93,0,0,0,.83.08,1.77,1.77,0,0,0,1.32.26c.35,0,.48.32.58.39a4.52,4.52,0,0,1,.82.34c.29.19.58,0,.79,0,.48,0,.86.44,1.26.63s1,.49,1.42.67a11.55,11.55,0,0,0,1.61.61c.39.08.34.44.57.48a3.78,3.78,0,0,1,1,.2c.38.14.53.47.84.67a3.43,3.43,0,0,0,1.11.29c.26,0,.59.42.82.54l1.72.64a33.48,33.48,0,0,1,3.35,2.24,6.22,6.22,0,0,1,1.36,1.11C221.51,21.25,220.8,21,220.52,20.89Zm1.92,1.83c-.39,0-.63-.21-.63-.45s.18-.67.56-.65C223.48,21.67,222.82,22.72,222.43,22.72ZM181.64,73.07c-.26.2-.88-.29-.39-.47S182.36,72.54,181.64,73.07Zm1.76-1c.44-.12,1.07-.21.87.15a1.07,1.07,0,0,1-.87.44A.29.29,0,0,1,183.4,72.06Zm2,3.2c-.57.56-.3.73-.72.73s-.45-.23-.4-.43-.23-.36.2-.53C185.18,74.74,185.77,74.89,185.4,75.26Zm6-1.74a1.84,1.84,0,0,1-1.26.48,1.61,1.61,0,0,0-.84-.06c-.28.1-.44.51-.84.77s-.68.17-1.49.48-1,.08-.84-.51a.54.54,0,0,0-.44-.68,6.37,6.37,0,0,0-2,.6c-.54.21-1-.25-.32-.73a5.88,5.88,0,0,1,1-.47c.29-.12.23-.2.59-.41s.19-.56.26-.81.85-.37,1.1-.23.21.28.6.33.57-.25,1-.49a3,3,0,0,1,1.31-.19s.49.2.64-.06,1-.16,1.62-.08a.73.73,0,0,1,.74.75A2.32,2.32,0,0,1,191.43,73.53ZM193,71c-.34.74-.77.26-.77.26s-.36-.09-.36-.34.2-.21.49-.41S193.39,70.23,193,71Z"/><path class="cls-2" d="M35.45,222.54a.73.73,0,0,1,.18.4c0,.17.08.17.24.26s.36.07.55-.13.47-.39.6-.54.16,0,.41,0,.19.2.46.22.39-.08.68-.16.25.14.25.14a3.25,3.25,0,0,0,.09.52.91.91,0,0,0,.24.42c.16.19-.29.27-.44.27s-.22.19-.36.19a.84.84,0,0,0-.38.4c-.05.12,0,.38-.14.54s-.44.37-.56.56-.39.53-.46.66-.16.59-.23.8-.4.53-.46.7,0,.92-.07,1.1a2.21,2.21,0,0,1-.34.46c-.15.2-.26.46-.37.61a3.58,3.58,0,0,1-.36.48,1.54,1.54,0,0,0-.37.66.54.54,0,0,0,0,.48c0,.13.09.17.2.32s-.11.48-.26.67-.36.28-.45.46a2,2,0,0,0-.31.74,1.75,1.75,0,0,0,.4.8c.15.16-.16.46-.3.64s.08.7.08.86a1.45,1.45,0,0,1-.25.68,1.53,1.53,0,0,0-.33.66c-.09.23-.35.37-.45.56a5.5,5.5,0,0,0-.15,1.3,4,4,0,0,1-.29,1.11,1.83,1.83,0,0,0-.31.72.6.6,0,0,0,.35.53c.18.06.4-.12.65-.35s.24-.27.3,0,0,.32-.14.54-.3.18-.37.39-.29.49-.32.32-.29-.25-.46-.32-.38.12-.53.49a4.68,4.68,0,0,0-.19,1.45,1,1,0,0,0,.29.77c.15.12.48-.29.69-.18s.11.22.15.44a.78.78,0,0,1-.15.58,3.71,3.71,0,0,0-.36.52,4.09,4.09,0,0,0-.11,1.13c0,.35-.26.33-.26.47a1.5,1.5,0,0,1,0,.41,4.64,4.64,0,0,1-.1.8,6.46,6.46,0,0,0-.34,1.08,2.6,2.6,0,0,1-.19,1c-.15.21-.25,0-.43-.17s-.22-.2-.4-.14-.45.31-.63.31a.62.62,0,0,1-.48-.25,1.52,1.52,0,0,1-.11-.79c0-.13.3-.16.45-.4a.38.38,0,0,0,0-.53c-.15-.15-.32-.19-.41-.4s.11-.26.27-.52,0-.52.11-.74a1.74,1.74,0,0,0,.15-.91c-.07-.21-.23-.54-.11-.75s.33-.28.52-.55.09-.65.17-.92,0-.53.12-.7a3.57,3.57,0,0,0,.18-.95,1.4,1.4,0,0,1,.29-.74,1.92,1.92,0,0,0,.36-.6.78.78,0,0,0,0-.6c-.07-.2-.36-.32-.36-.5s.21-.42.31-.7.31-.68.41-1a4.73,4.73,0,0,0,.19-1.19,4.28,4.28,0,0,1,.29-1c.08-.2,0-.68,0-.84s.11-.13.29-.2a1.89,1.89,0,0,0,.57-.49c.15-.19,0-.77,0-1a3.12,3.12,0,0,1,.25-.75,3.29,3.29,0,0,0,.12-.8c0-.22,0-1,0-1.26a8.42,8.42,0,0,1,.07-.88c0-.17.27-.21.29-.38a2.44,2.44,0,0,0,.06-.62c0-.2.12-.2.33-.26s.29-.42.4-.62a.44.44,0,0,0,0-.52.85.85,0,0,1-.08-.61,1.93,1.93,0,0,1,.47-.68,1.16,1.16,0,0,0,.24-.82c0-.31-.33-.31-.48-.43a1.1,1.1,0,0,1-.3-.64,1.34,1.34,0,0,1,.19-.64c.11-.16.26-.56.38-.74a1.11,1.11,0,0,0,.27-.72C35,222.31,35.45,222.54,35.45,222.54Zm-4.56,24.6c-.09.16,0,.23,0,.37a.25.25,0,0,0,.39.17c.19-.11.17-.19.24-.42s0-.19-.12-.37-.23-.19-.41,0S31,247,30.89,247.14Z"/><path class="cls-2" d="M73.19,165c.22-.19.57-.66.7-.56a.4.4,0,0,1,.06.49c-.06.14,0,.33-.23.42a1.16,1.16,0,0,1-.58.07A.33.33,0,0,1,73.19,165Z"/><path class="cls-2" d="M71.78,167.59c.2,0,.26-.31.48-.13s.16.38,0,.39S71.55,167.63,71.78,167.59Z"/><path class="cls-2" d="M69.43,171c.23-.23,1.13-.74.88-.29s-.22.34-.37.36S69.22,171.18,69.43,171Z"/><path class="cls-2" d="M42.89,211a.27.27,0,0,1,.27.31c0,.13-.15.36-.29.19a.34.34,0,0,1-.11-.31S42.72,211,42.89,211Z"/><path class="cls-2" d="M28,257.08a2.39,2.39,0,0,0,.63-.17c.21-.07.54-.26.59-.07s0,.58,0,.74.29.2.22.35-.41.29-.55.11-.18-.14-.37-.3a1.71,1.71,0,0,0-.39-.23C27.91,257.37,27.63,257.12,28,257.08Z"/><path class="cls-2" d="M28.41,253.76a1,1,0,0,0,.65-.21c.19-.19.19-.67.33-.67s.36.12.36.3a.91.91,0,0,1-.15.64.76.76,0,0,0-.26.57c0,.27,0,.81-.11.67s-.14-.27-.33-.37a1.4,1.4,0,0,0-.59-.26c-.17,0-.32,0-.25-.19S28.15,253.81,28.41,253.76Z"/><path class="cls-2" d="M30.26,251.76c.29,0,.15-.3.33-.3s.29-.11.26.18a1.89,1.89,0,0,1-.3.65s-.21.19-.37,0A.63.63,0,0,1,30,252C29.95,251.78,30,251.71,30.26,251.76Z"/><path class="cls-2" d="M34.87,240.06c-.23.62-.27.45-.27.65s.23.12.37-.17a2.06,2.06,0,0,0,.29-.78C35.27,239.55,35.09,239.43,34.87,240.06Z"/><path class="cls-2" d="M36.22,238.73c.25-.16.28-.42.46-.42s.19-.13.41-.13.4,0,.52.2.22.49.1.61-.26.19-.32.32-.12.35-.38.36a6.27,6.27,0,0,1-.71,0,1.78,1.78,0,0,1-.34,0s-.48-.11-.25-.22.48-.29.48-.29A.26.26,0,0,1,36.22,238.73Z"/><path class="cls-2" d="M37.61,234.67c.22,0,.44,0,.55-.08s.22-.32.4-.34.14.3,0,.46a2.27,2.27,0,0,0-.33.53,2.68,2.68,0,0,1-.26.66,1.94,1.94,0,0,1-.59.58c-.19.14-.35.28-.5.28s-.51.19-.48-.23c0-.19.29-.19.33-.43a7.08,7.08,0,0,1,0-1,1.08,1.08,0,0,1,.29-.34A1.59,1.59,0,0,1,37.61,234.67Z"/><path class="cls-2" d="M37.83,231a1.75,1.75,0,0,0,.62.14c.21,0,.36,0,.5,0s.41.22.37.4-.23.34-.33.55a2,2,0,0,1-.33.59c-.18.22-.18.48-.32.59s-.25.3-.51.33-.37,0-.44-.12a.69.69,0,0,1,.06-.57c.11-.14.3-.19.22-.32a.72.72,0,0,0-.29-.41.33.33,0,0,1-.22-.34c0-.19.22-.19.29-.35a.88.88,0,0,0,.09-.35S37.61,230.88,37.83,231Z"/><path class="cls-2" d="M40.67,224.52a6.38,6.38,0,0,1,.45-.55c.11-.14.26-.42.44-.26s.36.35.32.52a4.28,4.28,0,0,1-.11.72,1.71,1.71,0,0,1-.25.6c-.15.15-.33.36-.51.28s-.53-.13-.53-.13a1.07,1.07,0,0,1-.14-.38c0-.22-.06-.3.07-.39S40.52,224.78,40.67,224.52Z"/><path class="cls-2" d="M42.42,219.71c.19-.23.37-.23.51-.41s.26-.25.44-.22a.48.48,0,0,1,.42.3.71.71,0,0,1-.2.63.64.64,0,0,0-.25.53c0,.18.28.36.25.61a1.67,1.67,0,0,1-.25.78,5,5,0,0,1-.66.75,1.11,1.11,0,0,1-.66.26c-.15-.07-.49-.07-.65-.12-.45-.2-.33-.47-.33-.47a4.64,4.64,0,0,1,.58-.34c.22-.08.3-.29.4-.54a2,2,0,0,0,.23-.88,1.67,1.67,0,0,1,0-.43C42.21,220,42.25,219.92,42.42,219.71Z"/><path class="cls-2" d="M39.9,220.4c0,.2.22.54.22.14S39.9,220.17,39.9,220.4Z"/><path class="cls-2" d="M32.64,243c-.09.26-.09.86,0,.64a3.81,3.81,0,0,0,.21-.62C32.89,242.8,32.71,242.71,32.64,243Z"/><path class="cls-2" d="M29.42,234.47c-.08.16,0,.43.15.33s.06-.33.06-.33S29.5,234.33,29.42,234.47Z"/><path class="cls-2" d="M29.71,229.09c-.14.17-.32.26-.18.38s.24.15.32,0S29.86,229,29.71,229.09Z"/><path class="cls-2" d="M29.17,219.44c-.16.91-.19,1.69,0,.84C29.28,219.83,29.21,219.08,29.17,219.44Z"/><path class="cls-2" d="M25.91,229.54c0,.32-.07.53.08.64s.18-.1.21-.27.11-.29-.07-.46S25.91,229.21,25.91,229.54Z"/><path class="cls-2" d="M26.92,225.33c.25.16.45.3.38.51s0,.85.22.28.37-.6.21-.84-.13-.12-.5-.17S26.72,225.19,26.92,225.33Z"/><path class="cls-2" d="M28.5,221.73c-.09.24-.25.53-.33.79a1.89,1.89,0,0,0,0,.54c0,.13.22.2.28-.11s.12-.26.19-.58.28-.48.24-.67S28.63,221.55,28.5,221.73Z"/><path class="cls-2" d="M29.5,218.38c0,.26-.07.41-.11.67s.15.55.19,0S29.54,218.14,29.5,218.38Z"/><path class="cls-2" d="M32.6,219.11c.2-.05.29-.39.5-.35a.48.48,0,0,1,.41.37c.06.22.22.29.25.51s-.19.42-.41.54-.18.25-.3.46a5.46,5.46,0,0,1-.33.71.81.81,0,0,0-.17.58c0,.22.25.5.09.71s-.47.47-.59.67a1.6,1.6,0,0,0-.2.69,1.44,1.44,0,0,1-.3.76c-.16.22-.29.49-.4.67s-.38.7-.55.59-.29-.21-.29-.47.42-.36.5-.57a8.58,8.58,0,0,1,.37-1,2.67,2.67,0,0,0,.42-.89c0-.21-.15-.74,0-.94s.37-.23.45-.44l.3-.78a.61.61,0,0,0,.33-.4c0-.32.24-.73.07-.85S32.41,219.15,32.6,219.11Z"/><path class="cls-2" d="M33.65,215.47c.23-.13.45-.13.66-.3s.36-.26.53-.12a.64.64,0,0,1,.22.62,1.18,1.18,0,0,1-.42.8c-.24.16-.5.41-.76.44s-.53.17-.66,0-.24-.53-.16-.66a4.15,4.15,0,0,1,.33-.47S33.39,215.59,33.65,215.47Z"/><path class="cls-2" d="M30.88,214.51c-.08.16,0,.33-.21.5s-.22.2-.22.4a2.31,2.31,0,0,1-.07.72.76.76,0,0,1-.34.37c-.19.13-.15.53,0,.41a.79.79,0,0,0,.41-.36,4.17,4.17,0,0,0,.27-.55c.07-.2,0-.32.13-.53s.32-.26.32-.51S31,214.33,30.88,214.51Z"/><path class="cls-2" d="M26,209.71c-.23.15-.13.35-.3.49a1.14,1.14,0,0,0-.29.75,1.9,1.9,0,0,1,0,.76c-.12.25-.27.38-.27.58a1,1,0,0,0,.06.59c.13.25.38.32.42,0s0-.47.08-.75.3-.4.3-.6-.21-.19-.21-.46,0-.49.12-.58.38-.33.33-.5S26.23,209.52,26,209.71Z"/><path class="cls-2" d="M38.67,200.79a1,1,0,0,0-.11.5,1.22,1.22,0,0,1-.11.7,3.32,3.32,0,0,0-.52.61c-.05.13-.28.42-.28.61s-.09.4,0,.54a.35.35,0,0,0,.43.07c.15-.11.36-.26.41-.38s.16-.27.26-.46a3.77,3.77,0,0,0,.29-.68,3.72,3.72,0,0,1,.17-.7l.32-.53a.62.62,0,0,0,.15-.43c0-.18,0-.32-.16-.32s-.19.08-.35.13-.2.19-.31.26S38.79,200.64,38.67,200.79Z"/><path class="cls-2" d="M36.18,212.07c.15,0,.42.16.38.32a.35.35,0,0,1-.34.25.39.39,0,0,1-.25-.28C36,212.25,36,212,36.18,212.07Z"/><path class="cls-2" d="M36.82,206.26c-.08.19-.14.36-.24.56s-.09.44.06.46a.48.48,0,0,0,.44-.09l.13-.16a.76.76,0,0,1,.21-.33c.15-.07.27-.15.42-.24s.25-.07.25-.19a.49.49,0,0,0-.16-.4c-.13-.11-.27-.32-.46-.29a.59.59,0,0,0-.39.23A2.14,2.14,0,0,0,36.82,206.26Z"/><path class="cls-2" d="M31.5,206.07c.15-.16.21-.18.34-.05a.73.73,0,0,1,.11.52c0,.15-.21.28-.3.39s-.19,0-.27-.15a.38.38,0,0,1-.08-.39A2.42,2.42,0,0,1,31.5,206.07Z"/><path class="cls-2" d="M33.3,201.88c0,.18-.07.38.08.41s.29,0,.36-.12.22-.28,0-.32S33.33,201.72,33.3,201.88Z"/><path class="cls-2" d="M34.73,203.17"/><path class="cls-2" d="M28,196.88c0,.15-.1.2-.06.4a1.15,1.15,0,0,0,.18.35s.28.17.36-.06.26-.28.11-.46a.69.69,0,0,0-.35-.24C28.12,196.86,28,196.75,28,196.88Z"/><path class="cls-2" d="M53.73,136.27c-.22.09-.38.34-.22.46a.41.41,0,0,0,.52-.07.26.26,0,0,0,0-.34S53.95,136.19,53.73,136.27Z"/><path class="cls-2" d="M154.8,74.71c.06-.35.16-.48-.07-.77s-.12-1.21-.12-1.5-.26-1.22-.3-1.65a7.17,7.17,0,0,0-.47-1.46,2.15,2.15,0,0,1,0-1.7c.2-.34-.05-.83,0-1.11a10.38,10.38,0,0,0,.06-1.17s-.44-.78-.75-.88a2.5,2.5,0,0,1-.77-.89c-.17-.27-.34-1-.17-1.21a1.06,1.06,0,0,0,.11-1,2.66,2.66,0,0,1-.4-1.3,3.43,3.43,0,0,0-.42-1.26c-.17-.42-.29-1.08-.82-1.4s-1.11-.6-1.41-.78-.42-.24-.35-.52a1.37,1.37,0,0,0-.12-1.06c-.23-.28-.42-.81-.7-1.1s-.28-.71-.71-.82-1,0-1.1-.43a1,1,0,0,1,0-.92c.17-.41.11-.67.4-1.07a1.11,1.11,0,0,1,.7-.52c.36-.12.59-.46.23-.67a4.24,4.24,0,0,0-1.26-.26c-.42-.07-.49-.25-.95-.46s-.95-.54-1-.78,0-.93-.17-1.2a4.85,4.85,0,0,0-1-1.06l-.94-.65s-.36-.36-.12-.65.46-.54.69-.45.54,0,.54-.32-.23-.46-.54-.46a3.45,3.45,0,0,1-1-.14,4.87,4.87,0,0,0-1-.2c-.29,0-.59,0-.71-.24s-.29-.64-.65-.64-.52-.3-.87-.36-.46.17-.82.31a2.37,2.37,0,0,1-1.23-.12c-.4-.11-1.1-.42-1.56-.53s-.83-.29-.83-.58.34-.92,0-1-.46-.3-.75-.06-.14.54-.59.59a7.93,7.93,0,0,1-2.28.07,6.3,6.3,0,0,1-.87-.52,2.3,2.3,0,0,0-.64,0c-.37,0-.83-.24-.71-.55s.51-.63.17-.79a1.79,1.79,0,0,0-1-.32c-.42,0-.64-.1-.75-.39s-.3-.71-.58-.66-.59.26-.93.07a2.74,2.74,0,0,1-1-.8c-.19-.3-.29-.7-.59-.65s-.81.17-.65.46.42.58.24.82a1.86,1.86,0,0,1-1.25.64,1.4,1.4,0,0,1-1-.28,3,3,0,0,0-.81-.72,3.28,3.28,0,0,0-1.17-.12,3.61,3.61,0,0,1-1.29-.38c-.41-.2-.81-.53-.93-.25s0,.63-.25.89-.75.51-.87.22-.77-.57-1-.4a1.58,1.58,0,0,1-.82.45c-.28,0-.7-.33-.93-.27a7.59,7.59,0,0,1-1.05.18,3.59,3.59,0,0,1-.77-.13s-.19-.35-.83,0a13.28,13.28,0,0,1-1.45.69,6.62,6.62,0,0,1-1.11.06,5.66,5.66,0,0,0-1.12.06,6,6,0,0,1-1.05.11,3.28,3.28,0,0,0-1,.28c-.36.14-.95.26-1.3.42s-.52.12-.82.35-.06.41-.51.36a4.81,4.81,0,0,1-.95-.25,1.09,1.09,0,0,0-.81.25,2.3,2.3,0,0,0-.69.57c-.25.31-.32.54-.53.54s-.54-.16-.76,0a1.57,1.57,0,0,0-.53.63,4.29,4.29,0,0,0-.3.95,2.91,2.91,0,0,0-.53.82,1.56,1.56,0,0,1-.35.64,2,2,0,0,1-.65,0,2.85,2.85,0,0,1-.63-.18.84.84,0,0,0-.87,0,2.23,2.23,0,0,0-.47.83c-.13.3-.07.59-.35.77a3.26,3.26,0,0,1-.87.3c-.3.12-.7.71-1.05,1s-1,.78-1,1,.28.65.28,1a4.74,4.74,0,0,1-.23,1.06,2.18,2.18,0,0,1-.7.19,1.2,1.2,0,0,1-1-.32c-.24-.28-.28-.66-.51-.62-.53.06-.27,1-.77,1a1.22,1.22,0,0,1-.88-.22c-.22-.2-.27-.45-.63-.41s-.71.22-.82.47-.36.53-.29.83a5,5,0,0,0,.4.81c.12.31.25.94,0,1.13s-.45.41-.63.16-.46-.59-.7-.41-.46.31-.29.54.13.68-.17.74a4.8,4.8,0,0,1-1,.29c-.29,0-.76.19-.6.43a1.35,1.35,0,0,0,.65.53c.34.1.94-.1,1.28,0s.64.28.47.52-.81.63-.94.92a3.36,3.36,0,0,0-.16,1c0,.31.23.31.34.54a1.37,1.37,0,0,1,.11,1,3.21,3.21,0,0,1-.59,1,1.42,1.42,0,0,0-.35.84.9.9,0,0,0,.54.7,3.55,3.55,0,0,0,.75.17,3.67,3.67,0,0,1,.06.6c0,.28-.19.52-.06.76s.53.29.29.53a1.79,1.79,0,0,0-.35.7,3,3,0,0,1,.23.76c0,.22-.16.64.06.86s.53.48.53.76a.93.93,0,0,1-.4.76.75.75,0,0,0-.23.76,5.52,5.52,0,0,0,.45,1.12,5,5,0,0,1,.59.92,6,6,0,0,1,.17,1.78,2.67,2.67,0,0,1-.64,1.27c-.29.29-1.05.75-.92,1a5.12,5.12,0,0,0,.63.88,2.72,2.72,0,0,1,.12,1.17,4.4,4.4,0,0,1-.17,1.58,1.17,1.17,0,0,1-.77.59c-.23,0-.47-.12-.58.3a4,4,0,0,1-.63,1.28c-.29.27-1.08.51-1,.79s0,.83.23,1.12.59.65.4,1a6.64,6.64,0,0,1-.47.74,1.11,1.11,0,0,1-.58.24c-.31,0-.88.12-.88.37s-.18.35.11.75.4.59.77.75.54.37.47.71a.64.64,0,0,1-.53.58c-.25,0-.53-.24-.82,0a1.15,1.15,0,0,0-.52.92c0,.36.1.52.1.77s-.06.46-.28.53-.36.23-.25.52.06.88-.23.88-.87-.14-.87.18a1.23,1.23,0,0,1-.48.95c-.36.2-.7.57-.4.75s.53.22.24.52-.83,1.06-1.13,1.29-.51.41-.51.74.44.95-.07,1.34c-.22.19-.53.36-.53.6s.23.48.35.76.36.82,0,1.06a3.46,3.46,0,0,1-1.12.28c-.34.07-.52.35-.34.66s.51.56.51.92-.4.82-.4,1.12a1.43,1.43,0,0,1-.35.87c-.24.23-.61.27-.7.56a5,5,0,0,1-.77,1.12c-.23.25-.69.59-.76,1A13.48,13.48,0,0,0,71.2,106a3.12,3.12,0,0,1-.31,1.29,9.5,9.5,0,0,0-.83,1,9.28,9.28,0,0,1-.45,1c-.24.26-.83.59-.83.81s.07.69-.17.92a5.32,5.32,0,0,0-.88,1,5.21,5.21,0,0,1-.4.94c-.22.28-.65.69-.7,1s-.29.65-.36.91a1.44,1.44,0,0,1-.33.85c-.25.22-.71.32-.71.64a1.84,1.84,0,0,1-.37.77,1,1,0,0,1-.09.45,3.59,3.59,0,0,1-.7,1c-.24.22-.42.26-.31.63a6.29,6.29,0,0,0,.42.76c.19.37.47,1,.19,1.25s-.6.54-.88.35-.36-.6-.72-.6-.7,0-.81.29-.06.69.24.59,1.06-.3,1.29-.12a6.4,6.4,0,0,1,.88.88c.22.28.28.5,0,.68s-.42.58-.88.58-.58.2-.88-.1-.36-.45-.65-.57-.41-.43-.69-.07a7.93,7.93,0,0,0-.82.93c-.26.41-.41.76-.08.8s.83.2.77.55a2.4,2.4,0,0,1-.47,1.16c-.23.19-.19.52-.53.52s-.78-.13-.88.11,0,.58-.29.88a1.74,1.74,0,0,1-.9.42c-.34.12-.76.29-.8.58a4.86,4.86,0,0,1-.3.87c-.09.23-.4.82-.4.82a.61.61,0,0,0,.51-.19c.25-.23.47-.4.53-.63s.06-.53.45-.58.6-.13.85,0a.4.4,0,0,1,0,.65c-.25.21-.54.3-.48.7s.19.64-.11.94-.72.71-.94.71-.42-.3-.59,0a3.25,3.25,0,0,1-.64.62s-.19-.34-.47-.34a1,1,0,0,0-.81.46c-.13.24-.38.58-.13.71s.34,0,.53-.25.23-.52.52-.34.65.28.7.59a.45.45,0,0,1-.29.59c-.24,0-.29.38-.11.61s.4.23.4.47a1.3,1.3,0,0,1-.53.77c-.22.22-.59.42-.64.8a4.62,4.62,0,0,1-.24,1.38c-.18.33-.12.51-.46.51s-.64.06-.64.32a1,1,0,0,1-.19.8,4,4,0,0,0-.53,1c-.11.37-.16.84-.51.71s-.41-.34-.58-.64-.3-.64-.58-.64-.3,0-.55.28a5.87,5.87,0,0,0-.51,1.18,2.69,2.69,0,0,0-.12.69,2.14,2.14,0,0,1-.36,1c-.25.38-.59.81-.87,1.17a7.82,7.82,0,0,0-.72,1.15,1.35,1.35,0,0,0-.28.78c-.07.4,0,.82-.31,1a1.07,1.07,0,0,0-.51.77,4.11,4.11,0,0,0-.12.82,2,2,0,0,1-.4,1,3,3,0,0,1-.89,1,2.54,2.54,0,0,0-.76,1.34c-.1.43-.22.41-.22.76a2.34,2.34,0,0,1-.29,1c-.17.37-.59.88-.76,1.24s-1.17,2.42-1.46,2.85-.82,1-.82,1.33a4.58,4.58,0,0,1-.35,1.54c-.19.29-.65.81-.77,1.05s0,.7-.23,1a6.74,6.74,0,0,1-.69,1,1.34,1.34,0,0,0-.48.88c0,.24-.21.47-.21.88a1.42,1.42,0,0,0,.27.93c.18.24-.23.59-.23.83a.53.53,0,0,1-.47.51c-.24,0-.77-.12-.7.11s.6.27.65.5-.05.33-.29.68-.41.75-.7.88-.54.22-.65.59a3.19,3.19,0,0,0-.23,1.23,1.61,1.61,0,0,1,0,.89c-.12.28-.11.82-.36,1.16s-.76,1.11-.94,1.46-.28,1-.46,1.25a4.53,4.53,0,0,0-.51.69,2.15,2.15,0,0,0-.49.94,3.14,3.14,0,0,1-.11,1,4.27,4.27,0,0,0-.34.83,9.79,9.79,0,0,0-.53,1.29c0,.28-.34.76-.41,1a3.44,3.44,0,0,1-.3,1.18,1.8,1.8,0,0,0-.46.88,4,4,0,0,1,0,1.23c-.12.23-.34.87-.64,1.08s-.23.37-.07.62a1,1,0,0,1,.19.81,3.79,3.79,0,0,1-.19,1.1c-.16.43-.63.93-.58,1.25s.24.18.47.48.16,1.23.11,1.51a3.91,3.91,0,0,1-.45,1.16,3.35,3.35,0,0,0-.53,1.17,5.78,5.78,0,0,1,0,1c0,.41-.5.67-.38.89s.27.53.08.74a6.1,6.1,0,0,0-.57.92,4.34,4.34,0,0,0-.3,1.12,1.26,1.26,0,0,1-.22.88,3.43,3.43,0,0,0-.42,1c-.1.27-.35.46-.35.74a1.69,1.69,0,0,1-.07.81c-.12.42-.57.78-.57,1.12s.13.89.35.89.29-.23.29-.59a2.3,2.3,0,0,1,.29-1.18c.23-.28.48-.92.77-1.29a1.89,1.89,0,0,0,.46-.93c.06-.31.26-1.05.49-1.12a1.09,1.09,0,0,0,.69-.41c.11-.23.52-.33.47-.63a2.76,2.76,0,0,1-.19-1,7.73,7.73,0,0,1,.12-1.23c.13-.24.19-.63.42-.76a2.74,2.74,0,0,1,.75-.12c.24-.07.53-.58.24-.7a.74.74,0,0,1-.18-1c.24-.17.71-.41.82-.69s0-.77.3-.77.53,0,.6.3-.19.78-.08,1,.3.7.3.7.41.42.53.18.18-.71.42-.5.29.5.7.54.8-.22.92,0,.08.78-.17.9-.64-.06-.88,0-.54.14-.54.14a3.32,3.32,0,0,0-.64-.44.38.38,0,0,0-.56.19,2,2,0,0,0-.48.92,2.24,2.24,0,0,0,.36,1,.73.73,0,0,1,0,.76,1.55,1.55,0,0,0,0,.89c0,.22.4.33.4.33a1.21,1.21,0,0,1,.35.84,5.58,5.58,0,0,1-.22,1.33c-.19.29-.7,1-1,1s-.76.15-1,0a1.92,1.92,0,0,0-.71-.41c-.29-.06-.65.45-.65.45a.28.28,0,0,0,.42.14c.29-.18.4.05.65.23s.81.29,1,.52.53.3.53.66-.47.82-.47.82-.32.38-.48.62-.34.35-.1.48a.56.56,0,0,0,.68-.1,5.25,5.25,0,0,0,.59-.74,1.08,1.08,0,0,0,.34-.59c0-.32-.06-.53.09-.82a2.15,2.15,0,0,0,.34-.87.75.75,0,0,1,.2-.63c.19-.25.36-.21.44-.43a2.34,2.34,0,0,0,.25-.89,1.94,1.94,0,0,1,0-.92c.1-.25.38-.15.35-.46s-.06-.43-.39-.43-.54,0-.75,0-.48,0-.43-.27.16-.63.49-.69A9,9,0,0,1,36,199a1.63,1.63,0,0,0,.81-.33.52.52,0,0,1,.5-.17c.25,0,.39.12.65.05a.75.75,0,0,1,.67.25,3.1,3.1,0,0,0,.92.54,3.31,3.31,0,0,0,1.32,0,1.52,1.52,0,0,0,.54-.62,5.92,5.92,0,0,0,.28-.83c.06-.23.1-.4.15-.59a.41.41,0,0,0-.29-.49c-.24,0-.5-.15-.65.06s-.24.78-.57.83a3.37,3.37,0,0,1-.9,0,1.94,1.94,0,0,0-.74,0l-.22.11s-.1,0-.4.1a2,2,0,0,1-.92.07s-.37-.12-.37-.35.29-.16.37-.4a3.72,3.72,0,0,0,.1-1,2.1,2.1,0,0,1,.29-.76c.14-.23.39-.28.43-.57a3,3,0,0,1,.15-.93c.15-.23.44-.54.53-.74a7.73,7.73,0,0,0,.19-1,3.22,3.22,0,0,1,.5-.88,1.47,1.47,0,0,1,.77-.62c.29-.06.45.15.55.38a2,2,0,0,1,.15.72c0,.27,0,.75-.15.88a2.72,2.72,0,0,1-.63.49,4.13,4.13,0,0,1-.69.25s.06.57.29.57a1,1,0,0,0,.59-.23c.18-.15.13-.19.39-.15a.48.48,0,0,1,.28.57,1.55,1.55,0,0,0,0,.74c.12.25.52,0,.6-.22s0-.56.25-.67a2.38,2.38,0,0,0,.61-.37c.2-.17.29-.69.4-.93A2.41,2.41,0,0,0,43,192c0-.28.33-.54.33-.54s.25-.51.1-.78-.43-.38-.57-.73-.34-.57-.19-.9a1.91,1.91,0,0,1,.53-.83,1.63,1.63,0,0,1,1-.39c.25,0,.53-.07.63.23s.1.49-.13.59-.5.16-.59.4a1.94,1.94,0,0,0-.05.9,1.9,1.9,0,0,0,.35.88c.2.31.42.42.42.7a2.12,2.12,0,0,1-.27,1c-.2.23-.79.59-.94.91a7.93,7.93,0,0,1-.52,1.11,3.75,3.75,0,0,0-.35,1.39c0,.43-.15,1.16-.15,1.43s-.26.91-.26,1.13a4.17,4.17,0,0,1-.24,1.18c-.1.19-.2.59-.34.92a5.44,5.44,0,0,1-.67,1,2.35,2.35,0,0,0-.4.81c0,.19-.09.66-.33.75s-.5-.09-.65.2-.53.59-.62.88-.19.67,0,.72.34,0,.53.23.11.34.11.75a2,2,0,0,1-.36.91c-.09.26-.39.47-.48.68s-.17.69-.25.88a4.81,4.81,0,0,0-.18.76c0,.21-.26.52.29.5.3,0,.47-.38.53-.68a4,4,0,0,1,.38-1.23,2.07,2.07,0,0,1,.61-.29,1,1,0,0,1,.48-.48c.29-.09.49-.19.73,0s.48.19.53.59.05.87-.14,1.05-.48,0-.69,0-.2.06-.43.25-.7.13-.84.31-.4.31-.15.52.21.23.21.63-.31.59-.49.83-.44.35-.44.63.18.64.14.91,0,.68-.24.88-.57.34-.57.6.23.38.23.63.19.58,0,.78-.38.24-.38.54a6.88,6.88,0,0,1,.1,1c0,.3,0,.52-.3.68s-.54,0-.59.25-.2.34-.29.68.06.32.1.61a4.64,4.64,0,0,1,0,.88,5.57,5.57,0,0,0,.06.94c0,.25.43.34.49,0s0-.78.14-1,.4-.25.4-.63,0-.73.19-.87a.77.77,0,0,0,.28-.64,4.9,4.9,0,0,1,.11-1.17,1.28,1.28,0,0,1,.54-.59c.23-.14.54-.23.54-.45a1.93,1.93,0,0,1,.19-.81,4.83,4.83,0,0,1,.44-.83,5.93,5.93,0,0,1,.73-.88,5.26,5.26,0,0,1,.77-.62c.29-.13.63-.31.44-.54a1.58,1.58,0,0,0-.93-.5c-.38,0-.66,0-.73-.29a.93.93,0,0,1,0-.71,3.31,3.31,0,0,1,.79-.92c.24-.16.48-.51.76-.7a1.85,1.85,0,0,0,.5-.65c.15-.2.29,0,.29-.38v-.93c.19-.19.43-.33.53,0a5.23,5.23,0,0,1,.06,1.08c0,.24,0,.15.15.49a3.11,3.11,0,0,1,0,.92,1,1,0,0,0,.14.63c.15.2.31.26.4.49a.72.72,0,0,1,0,.79c-.24.21-.65.21-.69.58a1.12,1.12,0,0,0,.19.88c.21.25.45.38.39.66s-.1.59-.39.59-.45-.34-.7-.25-.48.2-.48.4a.92.92,0,0,0,.26.63c.19.2.63.22.73.47s.24.57.08.78-.34.4-.44.65-.23.57-.15.74a.53.53,0,0,0,.65.17.74.74,0,0,0,.39-.63,1.57,1.57,0,0,1,.48-.87c.2-.14.39-.88.59-1.07a3.23,3.23,0,0,0,.38-.83c.09-.2.4-.45.4-.75s-.31-.34-.54-.43-.51-.48-.4-.69c.25-.44.85-.18,1.08-.28s.63-1,.88-1.22a2.93,2.93,0,0,0,.61-1c.11-.29.35-1,.45-1.22a4,4,0,0,0,.19-1.28,9.19,9.19,0,0,1,.06-1.4,1.52,1.52,0,0,1,.54-.93c.23-.19.77-.15,1.05-.15s.74-.29.74-.54a1.14,1.14,0,0,0-.25-.69c-.15-.17-.1-.34.06-.52s.57-.79.72-1,.12-.52.32-.75.42-.45.23-.61-.29-.33-.54-.18-.28.38-.48.52-.4.5-.67.36a.53.53,0,0,1-.11-.85c.3-.18.91-.43,1.06-.66s.15-.69.25-.9.41-.35.57-.64.33-.88.6-.88a8.14,8.14,0,0,0,1.42,0c.24-.11.53-.62.32-.78s-.94,0-1.23-.2a1,1,0,0,1-.24-1,9,9,0,0,1,.6-1.16c0-.21,0-.69.11-.87a6.36,6.36,0,0,1,.87-.74,1.53,1.53,0,0,0,.59-.67,2.38,2.38,0,0,0,.25-1c.06-.62.63-.85.84-1.07s.31-.6.47-.74a4.49,4.49,0,0,0,.54-.68c.12-.2.4-.22.58-.33.5-.18,0-.53,0-.7a1.48,1.48,0,0,1,.13-.84,4.1,4.1,0,0,1,.59-.66c.18-.13.39-.47.55-.47s.42,0,.42-.22a.66.66,0,0,0-.53-.5c-.29,0-.72,0-.72-.24s-.09-.71.18-.88a1.89,1.89,0,0,1,.77-.28,4.3,4.3,0,0,1,.8,0,1,1,0,0,0,.65-.21A4.42,4.42,0,0,0,61,183c.15-.14.24-.45.52-.41s.77,0,.88-.21.26-.31.08-.44-.51-.18-.53-.36a2.2,2.2,0,0,1,0-.58s.59,0,.46-.25a.41.41,0,0,0-.6-.11c-.24.15-.15.2-.48.28s-.74,0-.9.18a1.42,1.42,0,0,1-.79.19c-.27,0-.65-.14-.68-.34a.66.66,0,0,1,.07-.57c.14-.18.34-.18.34-.37a6.15,6.15,0,0,1,.21-.93.87.87,0,0,1,.39-.54,2.72,2.72,0,0,0,.57-.42,5.6,5.6,0,0,0,.61-.69c.17-.22.3-.42.54-.4s.36.28.41.54a.62.62,0,0,0,.27.5c.19.17.48.3.58.08s.14-.5.29-.65.35-.43.59-.38a.73.73,0,0,0,.57-.11,6.34,6.34,0,0,0,.55-.39.36.36,0,0,0,0-.53c-.17-.15,0-.43,0-.64s.2-.64,0-.79-.8-.61-1-.74a.84.84,0,0,1-.33-.64c0-.27-.08-.77.17-1l.26-.19.7-.49c.26-.16.47-.28.55-.55a1.08,1.08,0,0,0-.19-.86.79.79,0,0,1,.08-.82,2.75,2.75,0,0,1,.69-.53c.19-.13.49-.47.78-.47s.64-.24.84-.24h1.5c.21,0,.37.36.55.32l.67-.25s.53-.24.28-.43a1,1,0,0,1-.28-.89,5.22,5.22,0,0,1,.16-.72.84.84,0,0,1,.37-.55c.16-.15.2-.39,0-.45a.78.78,0,0,0-.71.24,1.21,1.21,0,0,1-.67.27,1.43,1.43,0,0,1-.67.19c-.29,0-.35-.3-.38-.54s-.14-1.06,0-1.28a2,2,0,0,1,.65-.41c.21-.1.41-.16.41-.32a3.51,3.51,0,0,1,0-1.15c.13-.24.61-.53.7-.77a3.34,3.34,0,0,1,.5-1.06,1,1,0,0,1,.81-.09c.2.14.2.29.57.22a3.17,3.17,0,0,0,1-.33,1.35,1.35,0,0,1,.87-.26,1,1,0,0,1,.55.51c0,.15,0,.8,0,1a1.4,1.4,0,0,1,.24.72c0,.33.07.4.42.4a4.36,4.36,0,0,0,1.34-.15c.25-.15.25-.29.29-.57a1.18,1.18,0,0,1,.3-.69c.2-.23.68-.62.92-.85s.66-.06.79-.24.16-.63,0-.72a1.34,1.34,0,0,0-.68-.16c-.33.06-.37.1-.66.16s-.5.09-.67-.16a2.47,2.47,0,0,1-.42-.82c0-.29.17-.44.34-.81s.38-.53.49-.85a2.39,2.39,0,0,0,.17-.74,1.77,1.77,0,0,1,.4-.8c.2-.16.7,0,.87-.19a3,3,0,0,0,.4-.66.8.8,0,0,1,.55-.47c.21,0,.68,0,.68.3s-.39.57-.47.74.14.44.1.67-.34.39-.34.57a.72.72,0,0,0,.34.54c.19.18.5,0,.65-.2s.5-.63.46-.87a.91.91,0,0,1,.3-.81,1.3,1.3,0,0,0,.5-.65c0-.23.36-.3.23-.47s-.48-.29-.65-.5a1.1,1.1,0,0,1-.21-.78,2.73,2.73,0,0,1,1-1.18,3.88,3.88,0,0,1,1.43,0,1.22,1.22,0,0,0,1-.05,11.1,11.1,0,0,0,.79-.79c.19-.21.53-.17.61-.43s.29-.65.53-.65.56-.3.82-.33.48-.28.79-.37a1.58,1.58,0,0,0,.8-.47c.11-.21.41-.41.2-.74s-.71-.36-1-.5-.75-.24-.88-.44-.21-.58,0-.76.73-.36.47-.53-.55-.23-.73-.49-.52-.48-.66-.69,0-.67,0-.83a.93.93,0,0,1,.27-.64,3.93,3.93,0,0,1,.65-.48,1.29,1.29,0,0,1,1.31.32,2,2,0,0,0,.85.22,2.44,2.44,0,0,0,1-.41c.12-.18.33-.27.41-.44a1.27,1.27,0,0,1,.55-.5.88.88,0,0,1,.66.17,2.53,2.53,0,0,0,.72.55.52.52,0,0,0,.5-.12s.71-.27.91-.09a.73.73,0,0,0,.61.16,1.29,1.29,0,0,0,.59-.36c.22-.15.67-.62.89-.72s.07-.55.19-.74.46-.43.67-.43.51,0,.62-.22.42-.71.54-.88a1.5,1.5,0,0,1,.43-.45c.16-.08.5-.38.67-.38.45,0,.44-.32.5-.6a1.25,1.25,0,0,1,.51-.61c.21-.13.44,0,.53-.25s.21-.25,0-.51-.44-.54-.54-.75a1,1,0,0,1,.19-.84,1.61,1.61,0,0,1,.82-.28c.21-.05.45.16.52-.14s.38-.54.54-.72a1.17,1.17,0,0,1,.88-.27c.25.08.57.27.79.16a2,2,0,0,0,.57-.66c.09-.21.43-.39.5-.66s.16-.6.41-.56a.93.93,0,0,1,.55.44c.13.16.22.24.41.12s.43-.42.65-.52.67-.33.49-.49A1.46,1.46,0,0,0,107,130c-.21,0-.63,0-.66-.17a2.06,2.06,0,0,1-.09-.8,1.85,1.85,0,0,1,.54-.55c.21-.16.58-.41.81-.55s.3-.49.46-.66.53-.14.79-.21a1.94,1.94,0,0,0,.71-.41,1.72,1.72,0,0,1,.83-.38c.25,0,1.29-.17,1.53-.22a1.35,1.35,0,0,0,.7-.33c.2-.11.32-.4.52-.4a3.82,3.82,0,0,0,1.26-.14,7.58,7.58,0,0,1,.84-.58c.28-.11.75-.28.91-.58a3.22,3.22,0,0,1,.76-.79c.3-.24.5-.54.75-.75a3.83,3.83,0,0,1,.92-.54c.29-.14.54-.18.75-.3s.46-.22.42-.46a1.17,1.17,0,0,1,0-.59c0-.28.18-.32.57-.59.81-.53,2.21-1.24,2.21-1.24s.32-.69.75-.69a2,2,0,0,0,1.27-.45c.37-.28,1-.57,1.19-.37s.78.37,1,.09a3.38,3.38,0,0,0,.5-1c.08-.3.57-1.09,1-1.09s.57.35,1.09.07.53-.66,1.1-1.17.81-.23,1.09-.07a3.06,3.06,0,0,0,1.47.21c.51-.08.22-.44.22-.8s.29-.74.59-.74,1.24-.3,1.5-.3.84.12,1.11-.26a4.7,4.7,0,0,1,1.2-1.16,3.27,3.27,0,0,1,1-.31.65.65,0,0,0,.68-.55c0-.28-.14-1.15.17-1.22s.73,0,.94-.36,0-.62.26-1,.54-.77.77-1.06.15-.4.57-.4,1,.06,1-.3-.42-.38-.74-.68-.28-.58.09-.58a1.93,1.93,0,0,0,1.15-.16,2.32,2.32,0,0,0,.9-.87c.21-.34.45-.39.9-.46a.79.79,0,0,0,.63-.79c0-.28-.44-.34-.81-.42s-.88-.24-.58-.59a2.29,2.29,0,0,1,1-.79c.28-.08,1.24.21,1.32-.53a2.79,2.79,0,0,1,.51-1.45c.21-.29.88-.27.88-.27s.2-.94.41-1.09.25-.33-.11-.75-.62-1-.33-1.26.39-.66.69-.72,1,.31,1.24-.08.43-.29.58-1,.22-.57.59-.77a1.37,1.37,0,0,0,.47-1,4.29,4.29,0,0,1,.36-.93,2,2,0,0,0,.23-.78c-.06-.22-.24-.86-.46-.57s-.12.64-.47.64-.76.06-.76-.3.07-.76.3-.76.57-.18.3-.48-.36-1,0-1.2,1.13-.53,1.51-.77.72-.12.93-.57a1.63,1.63,0,0,0,.13-1.17,9.26,9.26,0,0,1-.42-.87c-.05-.3.15-.6.11-.82s-.23-.9,0-1.12.55-.24.77-.59.11-.53-.12-.75a.6.6,0,0,1-.07-.88c.29-.23.81-.48.53-.7s-.75-.42-.64-.72.41-.5.41-1a1.71,1.71,0,0,1,.19-1.08A5.13,5.13,0,0,0,154.8,74.71ZM32.87,193.31c0,.12-.32.33-.39.33a.61.61,0,0,1-.39-.18c-.12-.08-.12-.3-.14-.41a.37.37,0,0,1,.08-.41c.13-.16.21-.17.24-.28s.06-.34.17-.34.35-.08.38.11S32.89,193.16,32.87,193.31Zm.54-9c-.13-.13-.08-.26,0-.46s.06-.49.29-.41.25.19.25.41-.08.24-.19.42S33.51,184.45,33.42,184.29ZM35,192.77c-.1.18-.18.24-.45.24s-.32-.3-.46-.46-.4-.14-.48-.36a2,2,0,0,1,0-.85,1.17,1.17,0,0,1,.28-.61c.18-.22.21-.16.37-.16s.23.16.23.33-.09.27-.09.41a1,1,0,0,0,0,.45c.07.19.23.19.39.23a.72.72,0,0,1,.27.4C35.23,192.51,35.14,192.58,35,192.77Zm.43-3.08c-.14.2-.47.45-.65.42s-.25,0-.4-.11-.11-.18-.19-.37a.55.55,0,0,1,0-.4s-.27-.08,0-.31.43-.28.63-.11.31.27.46.45S35.62,189.54,35.48,189.69Zm-.36-9.84c-.21.16-.29.19-.33,0a1.59,1.59,0,0,0-.08-.33c0-.17,0-.25.17-.45s.21-.58.43-.51a.4.4,0,0,1,.32.46A1.5,1.5,0,0,1,35.12,179.86Zm1.45,4.22c0-.19,0-.24.19-.3s.31-.2.4-.06a.55.55,0,0,1,.06.54.44.44,0,0,1-.43.26C36.65,184.52,36.55,184.25,36.58,184.08Zm1.18,7.46a1.64,1.64,0,0,1-.39.41s-.29.27-.48.21a.48.48,0,0,1-.3-.47c0-.23.23-.38.3-.59s.33-.21.54-.21.33,0,.41.16S37.83,191.34,37.75,191.53Zm1.61-22.15a.25.25,0,0,1-.16-.24c0-.2,0-.28.2-.28a.29.29,0,0,1,.3.32C39.7,169.32,39.36,169.38,39.36,169.38Zm2.39,21.05a.3.3,0,0,1-.2-.32c0-.16.1-.22.25-.22s.19.14.22.34S41.94,190.51,41.75,190.43Zm.42-11.15c0,.24-.33.42-.47.55a2.33,2.33,0,0,1-.66.53c-.22.06-.15.35-.32.35s-.41,0-.41-.22,0-.53.15-.67,0-.28.18-.45a.92.92,0,0,1,.48-.4c.22-.07.47-.26.65-.18S42.21,179.07,42.17,179.28Zm2.45-22.06c0,.37.05.7-.16.8s-.36.12-.45-.1a1.14,1.14,0,0,1,0-.59c0-.2-.06-.2.07-.41s.22-.46.46-.39S44.65,156.91,44.62,157.22Zm-3.43,48.29c-.07.18-.12.62-.36.47s-.25-.21-.3-.42-.14-.2.16-.28S41.28,205.34,41.18,205.51Zm8.62-58.75c0-.22.23-.34.28-.55a9.43,9.43,0,0,0,.2-1.12c0-.26.4-.62.51-1a2.74,2.74,0,0,0,.13-.91c0-.18-.06-.31.12-.44s.24-.24.36,0,.16.58.38.74.42.41.3.64a4.39,4.39,0,0,0-.49.76c-.14.29-.47.47-.51.83a7.2,7.2,0,0,1-.09,1c-.08.3-.22.24-.38.33s-.32.42-.49.28S49.75,147,49.81,146.76Zm-2.42,3.92a1.39,1.39,0,0,1,.36-.7,1.66,1.66,0,0,0,.34-.59c0-.17,0-.58,0-.79s.16-.48.38-.48.26-.07.33.18a2.61,2.61,0,0,1-.07,1c-.09.18-.36.56-.42.74a2.54,2.54,0,0,0-.17.89c0,.31-.08.57-.31.57s-.44,0-.48-.18A1.65,1.65,0,0,1,47.39,150.68Zm.3,27.72a.63.63,0,0,1-.42.16c-.23,0-.45-.41-.52-.59s.25-.48.47-.48.24.11.4.23.15.14.23.35A.29.29,0,0,1,47.68,178.4Zm-1.52-2c.07-.16,0-.28.22-.57s.37-.55.62-.46a.69.69,0,0,1,.45.63c0,.28-.36.58-.42.76s-.28.23-.48.23-.32.09-.37-.14S46.09,176.57,46.16,176.4ZM42.77,205c-.15.16-.27.46-.44.43a1.58,1.58,0,0,1-.47-.35s0-.08.21-.27.45-.35.68-.26S43,204.86,42.77,205Zm.06-.87a2.19,2.19,0,0,1-.13-1c0-.33.07-1,.07-1.3s-.07-.55-.07-.88,0-.31.17-.54.63-.51.92-.28.5.4.42.67a1,1,0,0,1-.48.58c-.23.13-.5.17-.4.45a1.72,1.72,0,0,0,.35.54,1.58,1.58,0,0,1,.2.76.84.84,0,0,1-.25.7C43.37,204.14,43,204.35,42.83,204.14Zm1.81,3.92c-.13.08-.32.05-.26-.24a.27.27,0,0,1,.45-.18C45,207.75,44.8,207.94,44.65,208.06Zm2.45-.55c-.22.18-.54.51-.54.67s-.12.6-.12.89a1.71,1.71,0,0,1-.37.91c-.19.21-.25.42-.48.59s-.5.24-.58.07a3,3,0,0,1-.12-.87,1.1,1.1,0,0,1,.18-.66c.16-.3.2-.75.36-.92a1.4,1.4,0,0,0,.3-.58c.09-.21.35-.37.35-.58a4.15,4.15,0,0,0-.06-1.08c-.09-.22-.24-.46-.45-.29a.76.76,0,0,0-.29.62,1.76,1.76,0,0,1-.09.72c-.09.17-.21.32-.37.25s-.25-.08-.25-.33a1.91,1.91,0,0,1,.16-.72c.09-.19.13-.58-.12-.53s-.34.07-.42.34-.21.61-.47.59-.38-.14-.38-.31a.68.68,0,0,1,.12-.49c.18-.3.26-.53.45-.8s.6,0,.81-.2.55-.38.7-.34.22.51.42.47.41-.32.68-.26,0,.61.42.76c.23.08.23.79.23,1.12S47.29,207.36,47.09,207.51Zm.57-4.25a.88.88,0,0,1-.31.58c-.22.21-.35.22-.54.15a.63.63,0,0,1-.38-.51c0-.21-.11-.31-.32-.46s-.48.4-.66.57-.5.12-.85,0-.25-.36-.18-.62.26,0,.36-.2a1.65,1.65,0,0,0,.19-.66,1.09,1.09,0,0,1,.42-.59c.19-.14.67-.05.86,0s.28.27.5.34.36-.15.58-.15.33.45.37.57A6.31,6.31,0,0,1,47.66,203.26ZM52,191.6a1.37,1.37,0,0,1-.51.55c-.26.23-.41.4-.58.52s-.7.18-.85.28,0,.43.1.64a.76.76,0,0,1,.19.53c0,.24-.14.26-.34.36s-.3.09-.36.36,0,.56.21.6a1.62,1.62,0,0,1,.6.47.7.7,0,0,1-.18.7,2.52,2.52,0,0,1-.5.24c-.2.09-.7.1-.85.22s-.11.52-.11.78-.31.42-.37.67.1.66.1.92a1.1,1.1,0,0,1-.36.8,2.91,2.91,0,0,1-.74.66,2.15,2.15,0,0,1-1.28.23,1.8,1.8,0,0,1-.78-.25c-.27-.15-.23-.48-.18-.71a.79.79,0,0,1,.45-.51c.23-.1.23-.13.23-.37s-.23-.25-.36-.31a.51.51,0,0,1,.06-.75,5,5,0,0,1,.78-.45,9.47,9.47,0,0,0,.8-.63,1.08,1.08,0,0,0,.5-.76.59.59,0,0,0-.29-.58c-.13-.15-.58,0-.69.24a7.1,7.1,0,0,1-.39.8,4,4,0,0,1-.59.63.88.88,0,0,1-.73.11.3.3,0,0,1-.12-.52c.19-.13.34-.4.53-.54A1.57,1.57,0,0,0,46,196c.15-.29-.14-.46-.3-.69s-.36-.39-.36-.71a1.36,1.36,0,0,1,.23-.89.34.34,0,0,1,.64,0c.15.22.09.47.2.72a1,1,0,0,0,.5.57,1.12,1.12,0,0,0,.78,0,1.2,1.2,0,0,0,.57-.59,6.8,6.8,0,0,1,.52-.89c.18-.24.51-.48.65-.66s-.19-.53-.19-.76a3.64,3.64,0,0,1,.19-.75,2.89,2.89,0,0,1,.37-.91c.14-.27.18-.61.28-.85s.5-.32.73-.48.33-.42.47-.38.25.28.38.5a5.62,5.62,0,0,1,.36.8c.06.26,0,.7.1.92A.86.86,0,0,1,52,191.6Zm.47-5.69c-.15.11-.35.17-.47.06s-.12-.18-.19-.36-.06-.55.15-.53a.76.76,0,0,1,.48.34C52.56,185.59,52.62,185.79,52.48,185.91Zm.4,2.22c-.13,0-.18-.1-.18-.28s-.11-.22.1-.22.37.06.37.22S53,188.17,52.88,188.13Zm1.1-1.37c-.12.17-.25.25-.41.17s-.28-.11-.28-.34,0-.62.22-.62.33-.06.47.11A.65.65,0,0,1,54,186.76Zm1.76-3.84a.7.7,0,0,1-.15.32s-.32-.11-.4-.27.08-.21.1-.39.18-.12.36,0S55.74,182.75,55.74,182.91Zm.2-1.14s-.24-.28-.09-.4.43-.07.43.12S55.94,181.77,55.94,181.77Zm4.1-6.34c-.25,0-.18-.23.07-.43,0,0,.41,0,.41.2S60.31,175.46,60,175.43Zm3.81-1a1.26,1.26,0,0,1,.45.51c.16.19-.05.66-.24.8s-.59-.06-.77-.32-.4-.29-.59-.46,0-.32.13-.53.17-.22.4-.26S63.55,174.3,63.85,174.47Zm1.94-56.71c-.15.21-.15.44-.36.6s-.5.26-.54,0a.54.54,0,0,1,.13-.59c.21-.21.23-.16.38-.36s.24-.3.4-.13S66,117.56,65.78,117.76ZM67.1,117c-.12.24-.48.53-.66.29a1.22,1.22,0,0,1-.18-.64s.07-.12.42-.12S67.21,116.76,67.1,117Zm7,41.65c-.19.34-.44.75-.7.75s-.48,0-.65-.23a.74.74,0,0,1-.11-.75c.11-.19.07,0,.28-.3a1.18,1.18,0,0,1,.78-.46c.32-.14.62-.08.62.2A1.49,1.49,0,0,1,74.11,158.63Z"/></g></g></svg>