<svg xmlns="http://www.w3.org/2000/svg" viewBox="0 0 67.7 61.89"><defs><style>.cls-1{fill:#fff;}.cls-2{fill:#828282;}.cls-3{fill:#ff3200;}</style></defs><title>mark_ar_ww</title><g id="レイヤー_2" data-name="レイヤー 2"><g id="レイヤー_1-2" data-name="レイヤー 1"><g id="レイヤー_2-2" data-name="レイヤー 2"><g id="レイヤー_1-2-2" data-name="レイヤー 1-2"><rect class="cls-1" width="67.7" height="61.89"/><path class="cls-2" d="M14.65,51.64a.14.14,0,0,1,0,.08v0s.07,0,.11,0l.12-.09H15c.08,0,0,0,.08,0s.08,0,.13,0h0a.65.65,0,0,0,0,.1.18.18,0,0,0,0,.09H15a.16.16,0,0,0-.08.07v.1s-.09.06-.12.09l-.1.12s0,.11-.06.15a.23.23,0,0,0-.1.13,1.47,1.47,0,0,0,0,.21l-.07.08L14.4,53l-.08.08a.3.3,0,0,0-.08.12.11.11,0,0,0,0,.09v.07c0,.07,0,.09-.06.12s-.07,0-.1.08a.38.38,0,0,0-.07.14.34.34,0,0,0,.06.16A.15.15,0,0,1,14,54c-.07,0,0,.14,0,.17a.28.28,0,0,1-.06.13.3.3,0,0,0-.08.12l-.1.1a1.1,1.1,0,0,0-.05.25.77.77,0,0,1-.08.21.35.35,0,0,0-.07.13.11.11,0,0,0,.06.11.2.2,0,0,0,.13,0c.05,0,.05,0,.06,0s0,.06,0,.1-.06,0-.08.07-.07.09-.07,0,0,0-.08-.07-.08,0-.11.08a.92.92,0,0,0-.06.28.19.19,0,0,0,0,.15h.13s0,0,0,.09a.15.15,0,0,1,0,.11l-.08.09a.79.79,0,0,0,0,.21c0,.07-.06.06-.06.09a.31.31,0,0,1,0,.08,1,1,0,0,1,0,.15,1.28,1.28,0,0,0-.09.2.49.49,0,0,1-.06.2H13a.12.12,0,0,1-.09-.06.29.29,0,0,1,0-.15.1.1,0,0,0,.09-.07.07.07,0,0,0,0-.1h0s-.06,0-.07-.09,0,0,.06-.09,0-.1,0-.14a.33.33,0,0,0,0-.17V56a.13.13,0,0,0,.11-.09c0-.09,0-.12.05-.17s0-.1,0-.13a.66.66,0,0,0,.05-.18.27.27,0,0,1,.07-.14.37.37,0,0,0,.08-.11.15.15,0,0,0,0-.12S13.3,55,13.3,55a.14.14,0,0,1,.07-.13l.1-.18a.91.91,0,0,0,.06-.23.85.85,0,0,1,.08-.18v-.16s0,0,.06,0a.37.37,0,0,0,.12-.08v-.19a.57.57,0,0,1,.06-.14.65.65,0,0,0,0-.15v-.24a1.55,1.55,0,0,1,0-.17s.05,0,.06-.07a.48.48,0,0,0,0-.12H14c.07,0,.06-.07.09-.11a.09.09,0,0,0,0-.1.16.16,0,0,1,0-.12.37.37,0,0,1,.1-.12.23.23,0,0,0,.06-.15c0-.06-.06-.07-.08-.09a.21.21,0,0,1,0-.13.26.26,0,0,1,0-.12l.09-.13a.22.22,0,0,0,.07-.13Zm-1.37,4.63v.07l.05-.08c.05-.08,0,0,0-.07s0,0-.08,0,.06,0,0,.07Z"/><path class="cls-2" d="M23,41.36s.12-.11.15-.09a.08.08,0,0,1,0,.1.09.09,0,0,1,0,.08H23a.06.06,0,0,1,0-.08Z"/><path class="cls-2" d="M22.7,41.83s.06,0,.09,0,0,.07,0,.07S22.66,41.84,22.7,41.83Z"/><path class="cls-2" d="M22.19,42.43s.23-.12.18,0,0,.06-.08.06S22.14,42.47,22.19,42.43Z"/><path class="cls-2" d="M16.31,49.58a0,0,0,0,1,0,.06s0,.07-.06,0a.07.07,0,0,1,0-.06Z"/><path class="cls-2" d="M12.36,60.3h.07a.52.52,0,0,1,0,.08,0,0,0,0,1-.07,0S12.32,60.3,12.36,60.3Z"/><path class="cls-2" d="M12.33,59.85a.09.09,0,0,0,.06.08c.06,0,.11,0,.11.06v.12h-.09V60C12.41,59.88,12.31,59.83,12.33,59.85Z"/><path class="cls-2" d="M12.49,58.77s.08.07.08.12.05,0,.06,0a.56.56,0,0,0,0-.13.11.11,0,0,0-.09,0S12.46,58.73,12.49,58.77Z"/><path class="cls-2" d="M12.29,58.76h0C12.29,58.57,12.36,58.57,12.29,58.76Z"/><path class="cls-2" d="M12.52,58.11h.23v.14s.05,0,0,.07-.08,0-.11,0,0,0-.07-.06l-.07,0S12.46,58.11,12.52,58.11Z"/><path class="cls-2" d="M12.68,57.48a.18.18,0,0,0,.13,0s0-.12.08-.12.07,0,.06.06a.18.18,0,0,1,0,.12.15.15,0,0,0-.06.1v.13s0,0-.06-.08a.27.27,0,0,0-.11-.06h0C12.78,57.63,12.63,57.49,12.68,57.48Z"/><path class="cls-2" d="M13.07,57.14c.05,0,0,0,.07,0h0a.36.36,0,0,1-.07.12H13a.11.11,0,0,1,0-.06S13,57.12,13.07,57.14Z"/><path class="cls-2" d="M14.19,55c-.06.11-.06.08-.07.12s0,0,.07,0a.39.39,0,0,0,.07-.14S14.24,54.87,14.19,55Z"/><path class="cls-2" d="M14.48,54.76c.05,0,.06-.07.1-.07h.18s0,.1,0,.12-.05,0-.07,0,0,.06-.08.06h-.1Z"/><path class="cls-2" d="M14.82,54h.11s0-.06.08-.06S15,54,15,54l-.07.09a.48.48,0,0,1-.06.12.37.37,0,0,1-.12.1h-.1s-.1,0-.09,0,.06,0,.07-.08a1.4,1.4,0,0,1,0-.18l.06-.06A.3.3,0,0,1,14.82,54Z"/><path class="cls-2" d="M14.94,53.3h.21s.07,0,.06.08,0,.06-.08.1a.41.41,0,0,1-.07.11s0,.09-.07.11a.17.17,0,0,1-.1,0h-.08a.13.13,0,0,1,0-.11s.06,0,0-.06a.14.14,0,0,0,0-.08.06.06,0,0,1,0-.07l.06-.06a.18.18,0,0,0,0-.06A.06.06,0,0,1,14.94,53.3Z"/><path class="cls-2" d="M15.61,52.12l.1-.1s.06-.08.09,0,.06.07.05.11a.94.94,0,0,1,0,.14.32.32,0,0,1-.06.11s-.07.06-.1,0h-.1a.23.23,0,0,1,0-.08v-.07A.17.17,0,0,1,15.61,52.12Z"/><path class="cls-2" d="M16,51.24a.11.11,0,0,0,.1-.07c0-.07,0,0,.09,0a.09.09,0,0,1,.07.07.14.14,0,0,1,0,.12.12.12,0,0,0-.06.1v.12a.33.33,0,0,1-.06.14l-.14.13a.21.21,0,0,1-.13,0h-.12c-.08,0-.05-.1-.05-.1l.12,0s.06,0,.09-.1a.4.4,0,0,0,.06-.16.33.33,0,0,1,0-.08A.68.68,0,0,0,16,51.24Z"/><path class="cls-2" d="M15.55,51.32Z"/><path class="cls-2" d="M13.7,55.5v.12a.68.68,0,0,0,.05-.12S13.72,55.45,13.7,55.5Z"/><path class="cls-2" d="M13.26,53.8v0S13.28,53.78,13.26,53.8Z"/><path class="cls-2" d="M13.43,52.78s-.07,0,0,.07,0,0,.06,0S13.46,52.75,13.43,52.78Z"/><path class="cls-2" d="M13.52,50.92c0,.17-.07.32,0,.16S13.53,50.85,13.52,50.92Z"/><path class="cls-2" d="M12.69,52.79v.12h0v-.09S12.7,52.72,12.69,52.79Z"/><path class="cls-2" d="M13,52s.08.07.06.1,0,.16,0,.06.08-.11.06-.16,0,0-.09,0Z"/><path class="cls-2" d="M13.35,51.34l-.08.14a.35.35,0,0,0,0,.1h.06c.06,0,0,0,0-.11s.06-.09.06-.12S13.37,51.31,13.35,51.34Z"/><path class="cls-2" d="M13.6,50.72v.13h0C13.6,50.74,13.62,50.67,13.6,50.72Z"/><path class="cls-2" d="M14.18,50.92s.06-.07.1-.06a.09.09,0,0,1,.07.08V51s0,.08-.09.09,0,0-.07.08,0,.1-.08.13a.16.16,0,0,0,0,.11v.14l-.13.12a.3.3,0,0,0-.05.13.27.27,0,0,1-.07.14l-.09.12s-.09.13-.12.1a.1.1,0,0,1,0-.1.44.44,0,0,0,.11-.1l.09-.19a.51.51,0,0,0,.1-.16v-.18s.07,0,.1-.08l.07-.14a.12.12,0,0,0,.07-.07c0-.06.06-.14,0-.16A.05.05,0,0,1,14.18,50.92Z"/><path class="cls-2" d="M14.46,50.25h.23a.13.13,0,0,1,0,.12.23.23,0,0,1-.1.14c-.05,0-.1.07-.15.07h-.13s0-.11,0-.13l.07-.08S14.4,50.26,14.46,50.25Z"/><path class="cls-2" d="M13.95,50v.16a.44.44,0,0,1,0,.14.15.15,0,0,1-.07.06v.08a.15.15,0,0,0,.09-.06l.06-.1v-.1s.07,0,.07-.09S14,50,13.95,50Z"/><path class="cls-2" d="M13.11,49a.1.1,0,0,1-.07.09.22.22,0,0,0-.07.14.38.38,0,0,1,0,.15s-.06.07-.06.1a.19.19,0,0,0,0,.11s.07.07.08,0a.65.65,0,0,0,0-.14s.06-.07.07-.11,0,0,0-.09v-.11s.08-.06.07-.09S13.16,49,13.11,49Z"/><path class="cls-2" d="M15.71,47.53a.2.2,0,0,0,0,.09.24.24,0,0,1,0,.13l-.11.11a.72.72,0,0,0-.07.11.34.34,0,0,0,0,.1.07.07,0,0,0,.08,0L15.7,48l.06-.08.07-.12a.7.7,0,0,1,0-.13l.07-.09a.12.12,0,0,0,0-.08v-.06h-.13C15.71,47.45,15.74,47.51,15.71,47.53Z"/><path class="cls-2" d="M15,49.65s.08,0,.07.07a.07.07,0,0,1-.07,0,.08.08,0,0,1,0-.06Z"/><path class="cls-2" d="M15.25,48.54l-.06.1v.09a.09.09,0,0,0,.09,0h0a.15.15,0,0,1,0-.06h.14a.1.1,0,0,0,0-.08.07.07,0,0,0-.08-.07h-.08Z"/><path class="cls-2" d="M14.24,48.4h.07a.14.14,0,0,1,0,.1s0,0-.07.07h0a.08.08,0,0,1,0-.08Z"/><path class="cls-2" d="M14.66,47.63v.08s.05,0,.07,0,0,0,0-.06S14.67,47.6,14.66,47.63Z"/><path class="cls-2" d="M14.91,47.91"/><path class="cls-2" d="M13.75,46.57v.07a.23.23,0,0,0,0,.07h.07s.06,0,0-.09a.13.13,0,0,0-.06,0S13.76,46.54,13.75,46.57Z"/><path class="cls-2" d="M19.89,35.47s-.08.06,0,.08a.08.08,0,0,0,.1,0,.05.05,0,0,0,0-.07S19.94,35.45,19.89,35.47Z"/><path class="cls-2" d="M40.44,25.7v-.76a1.43,1.43,0,0,0-.06-.29.42.42,0,0,1,0-.33v-.21a1.93,1.93,0,0,0,0-.22s-.07-.16-.13-.18a.47.47,0,0,1-.13-.19v-.23a.21.21,0,0,0,0-.19.52.52,0,0,1,0-.26.68.68,0,0,0,0-.25.49.49,0,0,0-.13-.28l-.25-.18s-.08,0-.06-.11a.26.26,0,0,0,0-.2.46.46,0,0,0-.11-.22c0-.06,0-.14-.12-.17s-.19,0-.2-.1a1.06,1.06,0,0,1,0-.18.2.2,0,0,1,.1-.2.21.21,0,0,1,.14-.09c.07,0,.12-.08.06-.12a.82.82,0,0,0-.24-.07c-.08,0-.09-.06-.17-.11s-.17-.12-.17-.17v-.23a.94.94,0,0,0-.17-.22l-.17-.14s-.06-.08,0-.13.1-.09.14-.07a.08.08,0,0,0,.11,0s0-.09-.09-.1h-.2l-.2-.06c-.06,0-.11,0-.13-.06s0-.13-.11-.14,0-.18-.1-.18h-.16a.45.45,0,0,1-.23,0l-.29-.13a.14.14,0,0,1-.15-.13c0-.06.08-.17,0-.19s-.08-.07-.14,0,0,.1-.12.1a1.52,1.52,0,0,1-.44,0l-.16-.12h-.12c-.07,0-.15-.06-.12-.12s.11-.11,0-.15a.34.34,0,0,0-.18-.08c-.08,0-.12,0-.14-.09s0-.14-.1-.14h-.18a.51.51,0,0,1-.17-.17c0-.06,0-.14-.1-.14s-.16,0-.13.08.07.12,0,.16a.36.36,0,0,1-.25.1.27.27,0,0,1-.19-.08.59.59,0,0,0-.14-.15.63.63,0,0,0-.22,0,.69.69,0,0,1-.24-.1c-.07,0-.14-.12-.17-.07s0,.12-.06.17-.15.08-.17,0-.13-.13-.18-.1a.3.3,0,0,1-.17.07s-.13-.08-.17-.07h-.25s0-.07-.16,0l-.29.1h-.62a.63.63,0,0,0-.2,0l-.26,0h-.16c-.06,0,0,.08-.11.06l-.18-.07a.21.21,0,0,0-.16,0,.45.45,0,0,0-.14.1s-.07.1-.11.09a.66.66,0,0,0-.14,0,.3.3,0,0,0-.11.11.85.85,0,0,0-.08.18.55.55,0,0,0-.12.15.3.3,0,0,1-.08.12h-.25a.16.16,0,0,0-.17,0,.43.43,0,0,0-.11.15c0,.06,0,.11-.08.14h-.17c-.06,0-.15.12-.22.17s-.21.13-.21.18v.19a.93.93,0,0,1-.07.2h-.14a.23.23,0,0,1-.18-.08c0-.06,0-.13-.09-.13s-.07.18-.17.18a.24.24,0,0,1-.16-.06s0-.09-.11-.09a.22.22,0,0,0-.17.07s-.08.09-.07.15a1,1,0,0,0,.06.16V20s-.09.07-.12,0-.08-.12-.13-.09-.09,0-.07.1a.26.26,0,0,1,0,.14h-.2c-.06,0-.15,0-.12.07a.25.25,0,0,0,.11.11h.25c.07,0,.12.07.08.11s-.17.1-.2.16a.67.67,0,0,0,0,.19c0,.06,0,.06,0,.11a.26.26,0,0,1,0,.2.63.63,0,0,1-.13.17.27.27,0,0,0-.08.15.17.17,0,0,0,.09.14h.14a.67.67,0,0,1,0,.12v.14s.1.07,0,.11a.35.35,0,0,0-.08.13.58.58,0,0,1,0,.15v.17s.09.1.09.16a.18.18,0,0,1-.09.14.15.15,0,0,0-.06.14,1.08,1.08,0,0,0,.06.22,1,1,0,0,1,.09.19,1.17,1.17,0,0,1,0,.35.52.52,0,0,1-.15.23c-.06,0-.22.12-.2.17a1,1,0,0,0,.1.18.53.53,0,0,1,0,.23.85.85,0,0,1-.07.3.22.22,0,0,1-.16.1h-.12a.77.77,0,0,1-.15.23c-.06,0-.22.08-.21.13a1.61,1.61,0,0,1,0,.22c0,.06.1.14.06.2l-.1.13H26.2c-.06,0-.17,0-.18,0a.72.72,0,0,0,0,.15c0,.09.06.12.13.16s.09.08.07.15a.12.12,0,0,1-.11.1s-.1-.06-.16,0a.22.22,0,0,0-.12.17v.15s0,.09-.06.1-.07,0-.06.09,0,.17-.06.16a.92.92,0,0,0-.17,0,.24.24,0,0,1-.11.17c-.07,0-.15.09-.09.14s.1,0,0,.1-.18.19-.24.22-.11.07-.11.13.06.19,0,.26-.11.06-.11.1a.19.19,0,0,0,0,.15.15.15,0,0,1,0,.2.66.66,0,0,1-.22,0,.08.08,0,0,0-.08.12c0,.06.09.12.08.19s-.09.15-.1.21a.27.27,0,0,1-.08.16s-.12,0-.15.09a1,1,0,0,1-.17.2s-.14.1-.16.17a2.7,2.7,0,0,0-.09.26.61.61,0,0,1-.09.24l-.18.18-.11.19a.32.32,0,0,0-.18.14,1,1,0,0,0,0,.17,1,1,0,0,0-.19.17,1,1,0,0,1-.1.17s-.14.12-.15.18-.07.12-.09.17a.27.27,0,0,1-.08.16s-.14,0-.15.11a.35.35,0,0,1-.09.14.19.19,0,0,1,0,.08.69.69,0,0,1-.15.17s-.09,0-.07.11a1.14,1.14,0,0,0,.06.15c0,.07.07.21,0,.24s-.13.09-.18,0-.06-.12-.12-.13a.83.83,0,0,0-.16,0s0,.13,0,.12a2.05,2.05,0,0,1,.25,0,1.2,1.2,0,0,1,.15.19v.13s-.09.1-.18.09h-.17c-.06,0-.06-.09-.11-.12s-.07-.09-.13,0l-.18.16c-.06.07-.09.14,0,.15s.16,0,.14.12a.42.42,0,0,1-.11.21c-.05,0,0,.1-.11.09h-.17s0,.11-.07.16a.33.33,0,0,1-.18.06c-.07,0-.15,0-.16.1a.91.91,0,0,1-.08.16l-.09.15a.12.12,0,0,0,.1,0s.1-.07.11-.11,0-.1.1-.1h.16a.08.08,0,0,1,0,.11h0s-.11,0-.11.13v.18s-.15.12-.19.12-.07-.07-.11,0a.61.61,0,0,1-.13.11.07.07,0,0,0-.08-.07.19.19,0,0,0-.16.07s-.08.1,0,.13.07,0,.11,0,0-.09.11,0,.12.07.12.13a.09.09,0,0,1-.07.11h0s-.06.07,0,.12.07,0,.07.1-.06.1-.12.14-.12.07-.14.14a.9.9,0,0,1-.07.26c0,.06,0,.1-.1.09h-.13a.19.19,0,0,1,0,.15.77.77,0,0,0-.12.19c0,.07,0,.16-.11.13s-.07-.07-.1-.13,0-.13-.1-.13h-.11a1.15,1.15,0,0,0-.12.22.53.53,0,0,0,0,.13.41.41,0,0,1-.09.18l-.19.21A1.53,1.53,0,0,0,19,37a.26.26,0,0,0-.07.14c0,.07,0,.16-.08.19a.21.21,0,0,0-.11.14.8.8,0,0,0,0,.15.38.38,0,0,1-.1.19.57.57,0,0,1-.19.18.5.5,0,0,0-.17.24c0,.08,0,.07-.06.14a.46.46,0,0,1-.08.19c0,.07-.13.16-.17.22s-.27.44-.34.52-.18.18-.18.24a.88.88,0,0,1-.1.29s-.14.14-.17.19,0,.13-.06.19a1.27,1.27,0,0,1-.15.19.26.26,0,0,0-.11.16.27.27,0,0,1-.06.16.27.27,0,0,0,0,.18.57.57,0,0,0-.06.15.1.1,0,0,1-.1.09h-.14s.11.06.11.11,0,.06-.07.13-.09.14-.15.15a.16.16,0,0,0-.14.1.63.63,0,0,0-.07.23.31.31,0,0,1,0,.17.22.22,0,0,1-.09.21.83.83,0,0,0-.21.26,2.51,2.51,0,0,1-.11.23l-.11.12s-.11.11-.11.17a.62.62,0,0,1,0,.2.83.83,0,0,0-.08.15s-.12.18-.13.24a1.14,1.14,0,0,1-.1.19.67.67,0,0,1-.08.22.34.34,0,0,0-.11.16.78.78,0,0,1,0,.24s-.08.16-.14.19-.05.07,0,.12a.2.2,0,0,1,0,.16.73.73,0,0,1-.06.21c0,.08-.14.17-.14.23s0,0,.08.1,0,.24,0,.29a.75.75,0,0,1-.11.21.66.66,0,0,0-.12.21,1.06,1.06,0,0,1,0,.2c0,.08-.11.12-.09.16s0,.11,0,.14a1.2,1.2,0,0,0-.13.17.86.86,0,0,0-.08.21.24.24,0,0,1-.06.17.66.66,0,0,0-.1.17s-.08.08-.08.14a.32.32,0,0,1,0,.15c0,.08-.12.14-.13.2a1,1,0,0,0,0,.18s.06,0,.07-.11a.45.45,0,0,1,.08-.22,2.06,2.06,0,0,1,.17-.23.36.36,0,0,0,.11-.17c0-.06.07-.2.12-.2a.21.21,0,0,0,.14-.07s.11,0,.1-.11a.52.52,0,0,1,0-.19,1.49,1.49,0,0,1,0-.23s0-.12.1-.14h.15s.11-.1.06-.13a.14.14,0,0,1,0-.2h0s.14-.06.17-.12,0-.15.07-.14.1,0,.11.07-.05.14,0,.19,0,.14,0,.14.07.09.1,0,0-.13.09-.09,0,.1.12.12a.45.45,0,0,0,.18,0s0,.15-.05.17a.49.49,0,0,1-.17,0h-.11l-.11-.1a.07.07,0,0,0-.1,0h0a.38.38,0,0,0-.11.17.44.44,0,0,0,0,.2.14.14,0,0,1,0,.15.31.31,0,0,0,0,.17l.07.07a.23.23,0,0,1,0,.17,1.06,1.06,0,0,1-.07.25s-.15.18-.21.18h-.19a.36.36,0,0,0-.13-.09c-.05,0-.13.07-.13.07a0,0,0,0,0,.07,0h0c.06,0,.08,0,.12.06s.15.07.18.12.1.07.09.14-.11.15-.11.15l-.1.11s-.07.06,0,.09a.11.11,0,0,0,.13,0l.13-.13a.21.21,0,0,0,.08-.11v-.16a.42.42,0,0,0,.08-.16.14.14,0,0,1,.05-.12.1.1,0,0,0,.09-.07.44.44,0,0,0,.06-.16.37.37,0,0,1,0-.18.08.08,0,0,0,.08-.08c0-.08,0-.08-.07-.09H15s-.09,0-.08-.06,0-.12.11-.12h.23a.31.31,0,0,0,.16,0,.1.1,0,0,1,.1,0h.12a.14.14,0,0,1,.12.06.6.6,0,0,0,.17.12.63.63,0,0,0,.25,0,.3.3,0,0,0,.12-.11l.07-.15v-.11a.08.08,0,0,0,0-.1h-.12s-.06.15-.12.15h-.39a.38.38,0,0,1-.18,0,.06.06,0,0,1-.06-.07c0-.07.06,0,.08-.07a.74.74,0,0,0,0-.19.4.4,0,0,1,.07-.14s.08,0,.09-.1a1,1,0,0,0,0-.18l.12-.13a1.65,1.65,0,0,0,.06-.18.64.64,0,0,1,.11-.16.28.28,0,0,1,.16-.1c.06,0,.08,0,.1.08a.38.38,0,0,1,0,.14v.17l-.13.08H16V46a.18.18,0,0,0,.12,0h.08a.09.09,0,0,1,0,.12.3.3,0,0,0,0,.14h.12s0-.11.06-.12l.13-.06s.07-.13.1-.17a.45.45,0,0,0,.07-.16s.07-.1.07-.1.06-.09,0-.15a.27.27,0,0,1-.09-.15c0-.07,0-.12,0-.18A.37.37,0,0,1,16.8,45,.32.32,0,0,1,17,45s.1,0,.12.06a.18.18,0,0,1,0,.11s-.1,0-.12.06a.38.38,0,0,0,0,.17.37.37,0,0,0,0,.18c0,.06.07.09.07.14a.41.41,0,0,1-.07.19,1,1,0,0,0-.2.16,1.58,1.58,0,0,1-.12.2.74.74,0,0,0-.1.26,1.56,1.56,0,0,1-.06.27s-.07.17-.07.21a.81.81,0,0,1-.07.22l-.08.17a1,1,0,0,1-.15.18.44.44,0,0,0-.09.15L16,48h-.13s-.11.1-.14.16-.05.12,0,.14.07,0,.1,0,0,.07,0,.15a.4.4,0,0,1-.09.17l-.11.12s0,.13-.06.16a.89.89,0,0,0-.05.14s-.06.1,0,.1.1-.06.12-.12a.76.76,0,0,1,.1-.23h.12a.2.2,0,0,1,.1-.08h.14s.09,0,.09.12v.2s-.09,0-.13,0H15.8s-.08,0,0,.1,0,0,0,.12-.07.11-.11.15-.09.06-.1.11a1.08,1.08,0,0,0,0,.18s0,.13-.06.16-.12,0-.12.1v.28s-.08,0-.08.09a1.32,1.32,0,0,1,0,.19c0,.06,0,.1-.07.12a.22.22,0,0,1-.12,0s0,.06-.07.12,0,.06,0,.12a.89.89,0,0,1,0,.17,1.07,1.07,0,0,0,0,.18s.08.07.09,0a1.19,1.19,0,0,0,0-.19s.08,0,.09-.11,0-.14.05-.16a.15.15,0,0,0,.07-.12.93.93,0,0,1,0-.22.25.25,0,0,1,.11-.1s.11,0,.11-.08a.38.38,0,0,1,.05-.15l.1-.15H16l.16-.1c.06,0,.13,0,.1-.09a.3.3,0,0,0-.17-.12c-.07,0-.13,0-.13-.07a.17.17,0,0,1,0-.14.63.63,0,0,1,.17-.16,1,1,0,0,1,.16-.12.37.37,0,0,0,.11-.11.06.06,0,0,0,.06-.07v-.18s.09,0,.1,0a1,1,0,0,1,0,.21v.1a.61.61,0,0,1,0,.18.19.19,0,0,0,0,.12.7.7,0,0,1,.07.1.14.14,0,0,1,0,.15s-.13,0-.14.1a.21.21,0,0,0,0,.17s.08.08.06.13,0,.11-.09.11-.08-.07-.13-.06-.1,0-.1.07a.18.18,0,0,0,0,.13s.12.06.13.1a.75.75,0,0,1,0,.15s-.07.07-.1.12-.06.1,0,.14a.1.1,0,0,0,.12,0,.14.14,0,0,0,.09-.11.3.3,0,0,1,.11-.16,1.08,1.08,0,0,1,.13-.19.66.66,0,0,0,.09-.15s.09-.08.09-.14,0-.07-.09-.09-.09-.1-.06-.14.17,0,.21,0,.14-.17.19-.22a.58.58,0,0,0,.14-.17l.11-.23a.76.76,0,0,0,.06-.24,1.86,1.86,0,0,1,0-.27.3.3,0,0,1,.12-.17h.2c.05,0,.15,0,.15-.09a.22.22,0,0,0,0-.14v-.1l.16-.17a.17.17,0,0,1,.08-.14c.08,0,.09-.08.06-.11s0-.07-.1,0-.06.07-.1.09,0,.08-.11.08a.1.1,0,0,1,0-.14l0,0a.78.78,0,0,0,.22-.1s0-.13.07-.17a.26.26,0,0,0,.12-.11s.08-.16.13-.16h.27s.11-.11.08-.14-.18,0-.23-.06a.2.2,0,0,1,0-.2,1.74,1.74,0,0,1,.14-.21v-.16l.18-.13a.29.29,0,0,0,.13-.12.47.47,0,0,0,.07-.18c0-.12.14-.15.18-.19s.07-.11.1-.13l.12-.12a.17.17,0,0,0,.12,0s0-.1,0-.14a.29.29,0,0,1,0-.16l.13-.11s.08-.08.11-.08h.08a.13.13,0,0,0-.09-.11c-.06,0-.14,0-.13-.06s0-.14,0-.17a.36.36,0,0,1,.15,0h.15a.18.18,0,0,0,.13,0l.1-.11s.06-.08.11-.07a1,1,0,0,0,.17,0s.06,0,0-.08-.09,0-.09-.08a.44.44,0,0,1,0-.11h.09a.08.08,0,0,0-.11,0h-.28a.27.27,0,0,1-.15,0s-.12,0-.12-.08A.13.13,0,0,1,20,44s.07,0,.07-.06a1.19,1.19,0,0,1,.06-.17.17.17,0,0,1,.08-.09l.12-.07.13-.12s.07-.07.11-.07.06.06.07.11a.12.12,0,0,0,0,.1s.08.07.11,0,0-.09.07-.12.07-.08.12-.06a.14.14,0,0,0,.11,0l.11-.06a.07.07,0,0,0,0-.1h0v-.12s0-.12,0-.15L21,42.87a.16.16,0,0,1,0-.13s0-.15,0-.19h0l.14-.08s.09,0,.12-.09a.21.21,0,0,0,0-.17.15.15,0,0,1,0-.16.53.53,0,0,1,.14-.09s.1-.08.16-.07a1,1,0,0,0,.17,0h.29s.06.08.1.07h.13s.11,0,.06-.08a.2.2,0,0,1,0-.18,1.13,1.13,0,0,1,0-.13.16.16,0,0,1,.08-.1v-.09a.15.15,0,0,0-.14,0,.24.24,0,0,1-.13,0,.27.27,0,0,1-.13,0c-.06,0-.06-.07-.06-.11V41a.39.39,0,0,1,.13-.07s.08,0,.09,0a.67.67,0,0,1,0-.22.75.75,0,0,0,.15-.13.66.66,0,0,1,.12-.19.18.18,0,0,1,.16,0s0,.06.1,0a.62.62,0,0,0,.2,0,.26.26,0,0,1,.17,0,.18.18,0,0,1,.09.11,1.47,1.47,0,0,0,0,.18.27.27,0,0,1,0,.14c0,.06,0,.08.07.08a.82.82,0,0,0,.26,0s0,0,.07-.1a.23.23,0,0,1,.07-.13l.19-.14h.16s0-.12,0-.14a.26.26,0,0,0-.13,0h-.25a.47.47,0,0,1-.06-.17c0-.06,0-.08.08-.15A.33.33,0,0,0,23.8,40a.45.45,0,0,0,0-.14.33.33,0,0,1,.09-.15h.17a.57.57,0,0,0,.09-.12.16.16,0,0,1,.11-.08s.13,0,.12.07-.09.1-.11.13,0,.09,0,.13-.07.07-.08.1a.14.14,0,0,0,0,.11h.13a.21.21,0,0,0,.1-.16.18.18,0,0,1,.07-.15.26.26,0,0,0,.11-.11s.08,0,0-.09-.09-.07-.11-.11a.21.21,0,0,1,0-.15s.16-.2.21-.21a.75.75,0,0,1,.27,0,.23.23,0,0,0,.18,0l.17-.13s.1,0,.13-.07.07-.12.12-.11h.16a.19.19,0,0,0,.16-.06.3.3,0,0,0,.16-.07s.09-.07,0-.14-.13-.08-.17-.11-.14-.06-.16-.1,0-.12,0-.15S26,38,26,38a.35.35,0,0,1-.13-.11,1.43,1.43,0,0,1-.11-.15.43.43,0,0,1,0-.16.18.18,0,0,1,.06-.12l.13-.08a.33.33,0,0,1,.15,0l.09.07a.37.37,0,0,0,.16.06.46.46,0,0,0,.2-.06.1.1,0,0,0,.09-.08.24.24,0,0,1,.11-.09.17.17,0,0,1,.12,0,.49.49,0,0,0,.13.12.1.1,0,0,0,.1,0h.18a.14.14,0,0,0,.11,0,.24.24,0,0,0,.12-.06,1.11,1.11,0,0,1,.18-.12s0-.1,0-.14a.25.25,0,0,1,.14-.07H28l.12-.16a.3.3,0,0,1,.09-.08.48.48,0,0,1,.14-.06s.09,0,.11-.1a.24.24,0,0,1,.11-.11h.11s0,0,0-.1-.07-.11-.09-.15a.2.2,0,0,1,0-.16.32.32,0,0,1,.16,0h.1S29,36,29,35.95a.23.23,0,0,1,.17,0s.1.06.15,0a.4.4,0,0,0,.12-.11.44.44,0,0,0,.11-.12s0-.11.09-.1a.18.18,0,0,1,.1.1s0,0,.08,0a1,1,0,0,1,.14-.09s.13,0,.1-.08a.28.28,0,0,0-.14-.08h-.12a.41.41,0,0,1,0-.16.35.35,0,0,1,.11-.09l.16-.09.1-.12s.1,0,.16,0a.36.36,0,0,0,.14-.06.33.33,0,0,1,.17-.06h.3a.26.26,0,0,0,.14,0s.07-.07.11-.07a.73.73,0,0,0,.24,0l.17-.09a.33.33,0,0,0,.18-.09.64.64,0,0,1,.16-.14l.16-.13a.7.7,0,0,1,.19-.08h.15s.09,0,.09-.08a.22.22,0,0,1,0-.11s0-.06.12-.1.45-.19.45-.19.07-.12.16-.12a.39.39,0,0,0,.25-.06c.08,0,.19-.09.23,0a.1.1,0,0,0,.19,0,.65.65,0,0,0,.12-.19c0-.06.13-.2.2-.19s.1.08.21,0,.11-.12.23-.2.16,0,.21,0a.59.59,0,0,0,.28.07c.1,0,0-.08.06-.15s.07-.14.13-.13h.51a.91.91,0,0,1,.25-.2.63.63,0,0,1,.2,0,.13.13,0,0,0,.14-.09s0-.22.06-.23h.19s0-.12.07-.18.12-.14.17-.19,0-.07.12-.07h.19a1.6,1.6,0,0,0-.13-.15c-.06-.07,0-.12,0-.11a.37.37,0,0,0,.22,0,.45.45,0,0,0,.19-.15c0-.06.09-.06.18-.07a.15.15,0,0,0,.14-.14s-.08-.07-.15-.1-.16-.06-.1-.12a.44.44,0,0,1,.21-.13c.06,0,.23.07.26-.08a.55.55,0,0,1,.13-.27s.17,0,.17,0,.06-.18.1-.2,0-.06,0-.15-.1-.21,0-.25.09-.12.15-.12.19.08.24,0,.09,0,.13-.17,0-.1.13-.14a.26.26,0,0,0,.11-.19.84.84,0,0,1,.09-.17.37.37,0,0,0,.06-.14s0-.17-.08-.12,0,.12-.1.11-.15,0-.14-.07,0-.14.07-.14.11,0,.07-.09a.43.43,0,0,1,0-.23l.3-.12a.18.18,0,0,0,.19-.09.31.31,0,0,0,0-.22,1.78,1.78,0,0,1,.3-.6V27s.11,0,.16-.1,0-.1,0-.15a.12.12,0,0,1,0-.17h0c.06,0,.16-.08.11-.12s-.13-.1-.11-.15.09-.09.1-.17a.33.33,0,0,1,.06-.2A.58.58,0,0,0,40.44,25.7ZM14.76,46a.14.14,0,0,1-.08.06h-.07V46a.07.07,0,0,1,0-.08h.05c.05,0,0-.06,0-.06h.07A.74.74,0,0,1,14.76,46ZM15,44.26v-.09s0-.09.06-.07,0,0,0,.08v.08C15.06,44.34,15.06,44.3,15,44.26Zm.14,1.66h-.09c-.09,0-.05-.06-.08-.1s-.07,0-.08-.08a.39.39,0,0,1,0-.16.23.23,0,0,1,.11-.07h.07c.07,0,0,0,0,.07v.08a.19.19,0,0,0,0,.09l.07,0a.14.14,0,0,1,0,.08s.06,0,0,0Zm.14-.58s-.1.08-.13.07,0,0-.07,0,0,0,0-.08a.1.1,0,0,1,0-.08s-.05,0,0-.06.09,0,.12,0l.08.1s.08,0,0,.05Zm.13-1.89h-.06a.35.35,0,0,0,0-.06v-.08c0-.08.05-.11.09-.09a.08.08,0,0,1,.05.09.3.3,0,0,1,0,.14Zm.19.84v0s.06,0,.08,0a.11.11,0,0,1,0,.1.08.08,0,0,1-.09,0s.05,0,.06,0Zm.07,1.45-.08.07h-.1a.09.09,0,0,1,0-.1l.07-.11s.07,0,.11,0h.07a.27.27,0,0,1,0,.14Zm.76-4.21h0v0a.06.06,0,0,1,.05.07h0v0Zm0,4.08a.06.06,0,0,1,0-.07h0s0,0,0,.07.06,0,0,0Zm.31-2.13-.1.1a.44.44,0,0,1-.14.09.06.06,0,0,1-.07.06c-.07,0-.08,0-.07,0a.56.56,0,0,0,0-.13v-.08a.18.18,0,0,1,.1-.07h.13s.24,0,.23.08Zm.91-4.18v.15s-.07,0-.08,0a.22.22,0,0,1,0-.11v-.08c0-.08,0-.08.1-.07s.07.05.06.11ZM16.1,48.49s0,.12-.08.08a.1.1,0,0,1,0-.09v0S16.12,48.46,16.1,48.49ZM18.94,37.4a.36.36,0,0,0,.06-.1,1.79,1.79,0,0,0,.06-.21,1.05,1.05,0,0,0,.12-.18.53.53,0,0,0,0-.17v-.08s0,0,.07,0,0,.11.06.15.07.09,0,.13l-.11.13s-.1.08-.11.15a1.45,1.45,0,0,1,0,.19c0,.06,0,0-.08.06s-.07.07-.1,0,0,0,0-.07Zm-.54.7a.26.26,0,0,1,.08-.13.32.32,0,0,0,.08-.11v-.15s0-.09.08-.08h.06a.5.5,0,0,1,0,.2l-.1.13a.51.51,0,0,0,0,.17c0,.06,0,.11-.07.1a.18.18,0,0,0-.09,0,.31.31,0,0,1,0-.13Zm-.51,5.32h-.08a.74.74,0,0,1-.09-.12s.06-.09.1-.08,0,0,.07,0,0,0,0,.07A.06.06,0,0,1,17.89,43.42ZM17.64,43a.17.17,0,0,1,0-.11s.08-.1.13-.07a.13.13,0,0,1,.07.13s-.08.1-.1.14-.06,0-.1,0h-.07S17.62,43,17.64,43Zm-1.23,5.42s-.06.08-.09.07a.3.3,0,0,1-.08-.08h0s.09-.06.13,0,.08,0,0,0Zm0-.17a.42.42,0,0,1,0-.19v-.52s.13-.08.18,0,.09.09.07.14a.19.19,0,0,1-.1.1s-.1,0-.09.08a.34.34,0,0,0,0,.11.3.3,0,0,1,0,.15.16.16,0,0,1-.06.13c.08,0,0,0,0,0Zm.27.79s-.06,0,0,0a0,0,0,0,1,.07,0l0,0H16.7Zm.48-.06s-.11.09-.12.12a1,1,0,0,0,0,.17.33.33,0,0,1-.09.17.45.45,0,0,1-.1.1.2.2,0,0,1-.11,0,.57.57,0,0,1,0-.17.22.22,0,0,1,0-.12.28.28,0,0,1,.09-.17A.27.27,0,0,0,16.9,49a.31.31,0,0,0,.08-.1.81.81,0,0,0,0-.21s0-.09-.08-.07a.15.15,0,0,0-.07.11.34.34,0,0,1,0,.14s0,.06-.08,0,0,0,0-.07a.37.37,0,0,1,0-.14v-.1s-.07,0-.09.06,0,.11-.1.1-.07,0-.07-.07a.13.13,0,0,1,0-.09s.06-.1.1-.14.11,0,.16,0,.11-.06.14,0,0,.1.07.1.08,0,.14,0,0,.12.07.16,0,.16,0,.22.06.18,0,.18Zm.19-.8a.17.17,0,0,1-.07.1h-.11a.12.12,0,0,1-.06-.11.11.11,0,0,0,0-.09s-.1.07-.14.1-.1,0-.16,0,0-.08,0-.12,0,0,.07,0a.32.32,0,0,0,0-.12.21.21,0,0,1,.09-.11h.16s0,.06.09.08.07,0,.11,0,0,.09.06.12a1.2,1.2,0,0,1,0,.15ZM18.44,46a.26.26,0,0,1-.11.1l-.12.09H18v.12a.15.15,0,0,1,0,.11l-.07.06c-.07.06-.06,0-.08.06a.22.22,0,0,0,0,.12.31.31,0,0,1,.1.1A.14.14,0,0,1,18,47L18,47h-.27s0,.1,0,.15-.07.07-.08.12a1.08,1.08,0,0,0,0,.18.21.21,0,0,1-.08.15.57.57,0,0,1-.16.11.42.42,0,0,1-.25,0,.34.34,0,0,1-.15-.06v-.14a.16.16,0,0,1,.1-.09l0-.07c0-.07,0,0-.06-.07a.1.1,0,0,1,0-.14l.16-.07.16-.1a.21.21,0,0,0,.11-.14.11.11,0,0,0,0-.12h-.14l-.09.14-.12.11A.17.17,0,0,1,17,47a.06.06,0,0,1,0-.08l0,0a.65.65,0,0,1,.11-.09.3.3,0,0,0,.12-.1v-.14s-.06-.08,0-.14a.26.26,0,0,1,.06-.17.07.07,0,0,1,.1,0l0,0v.14a.19.19,0,0,0,.08.12.22.22,0,0,0,.15,0,.23.23,0,0,0,.12-.1l.12-.16.14-.11s0-.11,0-.15a.69.69,0,0,1,0-.14.55.55,0,0,1,.09-.17.22.22,0,0,1,.07-.16,1.16,1.16,0,0,1,.15-.08s.07-.07.1-.06,0,.06.06.1a1,1,0,0,1,0,.16v.18S18.47,46,18.44,46Zm.21-1.08h-.09s0,0,0-.07v-.1a.14.14,0,0,1,.08.07s0,.11,0,.13Zm0,.43V45.3h.07s0,.1,0,.09Zm.24-.24h-.08s0,0,0-.07,0-.12,0-.11h.09a.12.12,0,0,1,0,.17l-.06,0Zm.42-.7a.14.14,0,0,1,0,.06.07.07,0,0,1-.07-.06c0-.06,0,0,0-.07s0,0,.07,0,0,.07,0,.1Zm.06-.21v-.08s.08,0,.08,0l-.06.1Zm.91-1.13V43c0-.08.08,0,.07,0s0,.11,0,.1ZM21,43a.24.24,0,0,1,.08.11s0,.13-.06.15-.11,0-.14-.08-.07-.06-.1-.1,0-.06,0-.1,0,0,.08,0A.18.18,0,0,1,21,43Zm1.52-10.83a.12.12,0,0,1-.08.11c-.08,0-.1,0-.1,0a.1.1,0,0,1,0-.11l.08-.06c.08-.06,0,0,.08,0s.08,0,0,.08Zm.27-.12s-.1.09-.13,0a.23.23,0,0,1,0-.13h.08c.08,0,.09.12.07.12Zm.49,8.13c0,.06-.1.13-.15.13s-.09,0-.12-.06a.14.14,0,0,1,0-.15l.06,0a.22.22,0,0,1,.16-.07c.06,0,.12,0,.11,0a.28.28,0,0,1,0,.16Z"/><path class="cls-2" d="M55,18.71c.06,0,.06-.09.14-.14s.16,0,.17-.1.12-.07.13,0,.07,0,.14.07a.08.08,0,0,1,0,.15.87.87,0,0,0-.3,0c-.1,0-.21.16-.28.17a.18.18,0,0,1-.09,0A.22.22,0,0,1,55,18.71Z"/><path class="cls-2" d="M47.55,22.2a.12.12,0,0,0,.12.12h.14a.23.23,0,0,1,.2.06,1.06,1.06,0,0,0,.17.15l.07.06c.07.06.13.14.2.08s0-.07,0-.18.08-.1.15-.14.16-.16.25-.13.31,0,.22-.07-.12-.17-.18-.24,0-.07-.11-.1a.17.17,0,0,1-.1-.21c0-.07,0-.1-.06-.06s-.13.11-.18.15-.14.06-.13.11.15,0,.23,0,0,.11-.06.14l-.2.14c-.08,0,0-.11-.18-.1s-.1,0-.19.06-.18,0-.24,0S47.55,22.14,47.55,22.2Z"/><path class="cls-2" d="M47,21.9c.11-.06.18.06.1.09S46.94,22,47,21.9Z"/><path class="cls-2" d="M46.29,22.08h.21c.06,0,.14-.14.2,0s.08.16.16.16.25.15.12.13-.19,0-.26-.11a.2.2,0,0,0-.22-.08c-.11,0-.11.11-.19.09S46.24,22.13,46.29,22.08Z"/><path class="cls-2" d="M45.45,22.45s.14,0,.08,0S45.4,22.5,45.45,22.45Z"/><path class="cls-2" d="M45.41,23.77c.07,0,.4,0,.16.12a.17.17,0,0,1-.19,0S45.33,23.78,45.41,23.77Z"/><path class="cls-2" d="M45.41,23.39c.16,0,.19.07.11.1S45.32,23.4,45.41,23.39Z"/><path class="cls-2" d="M44.81,22.84a1.19,1.19,0,0,0,.28-.07c.06,0,.2,0,.16,0A.31.31,0,0,1,45,23a.37.37,0,0,1-.22,0c-.08,0-.11-.07-.09-.1A.14.14,0,0,1,44.81,22.84Z"/><path class="cls-2" d="M43.92,23.07a.7.7,0,0,1,.21-.08.1.1,0,0,1,.13,0h0v.1s-.1.12-.14.06a.16.16,0,0,0-.14-.07C43.92,23.14,43.87,23.12,43.92,23.07Z"/><path class="cls-2" d="M43.26,23c.15,0,.61-.12.08.1a.84.84,0,0,1-.3.08c-.06,0,0-.07.06-.11S43.14,23,43.26,23Z"/><path class="cls-2" d="M42.72,23.58c.08,0,.21,0,.26-.08s.13-.11.18-.07a.07.07,0,0,1,0,.14.81.81,0,0,0-.27.11c0,.06-.16,0-.18,0S42.65,23.64,42.72,23.58Z"/><path class="cls-3" d="M64.37,16.1a.19.19,0,0,0,0-.16c0-.07-.1,0-.14-.1s0-.1,0-.16a.2.2,0,0,1,.1-.2c.1-.06-.08-.15-.11-.21s-.13-.46-.16-.55a.59.59,0,0,1,0-.23c0-.08-.1,0-.14-.16s-.07-.35-.1-.44-.12-.3-.17-.42a.71.71,0,0,0-.29-.29c-.06,0,0-.14,0-.22s.09-.08.07-.16,0-.1-.1-.1-.13-.07-.16-.14-.11,0-.13-.09a1.79,1.79,0,0,1,0-.34.28.28,0,0,0-.07-.2l-.17-.16a2.09,2.09,0,0,0-.35-.18,1.45,1.45,0,0,1-.21-.24c0-.05-.13-.12-.09-.18S62.07,11,62,11a.23.23,0,0,1-.15-.15.36.36,0,0,1,0-.21c0-.07-.13-.21-.16-.26s-.15,0-.22-.13l-.34-.47A.6.6,0,0,1,61,9.52a2,2,0,0,1-.21-.29.23.23,0,0,0-.12-.2c-.06,0-.2,0-.26-.08a2.88,2.88,0,0,0-.27-.22c-.07-.07-.11-.17-.2-.21s-.16-.19-.19-.25-.17-.09-.23-.12a.41.41,0,0,1-.2-.14.45.45,0,0,0-.2-.2,2.65,2.65,0,0,0-.45-.19c-.08,0-.16-.1-.25-.1s-.12-.07-.21-.11-.12-.13-.17-.21A.46.46,0,0,0,57.71,7a2.78,2.78,0,0,1-.46-.14c-.13-.07-.16-.13-.23-.16s-.11-.11-.22-.12h-.41a.19.19,0,0,1-.14-.08s-.16,0-.16-.07S56,6.27,56,6.22s-.15,0-.23,0-.16-.11-.29-.14A.18.18,0,0,1,55.33,6c0-.05-.19,0-.26,0s-.19-.12-.3-.16l-.4-.11L54,5.57a3.39,3.39,0,0,1-.52-.19.15.15,0,0,0-.21,0l0,0c-.06.06-.19,0-.25,0h-.4a.31.31,0,0,1-.28-.12A2.38,2.38,0,0,0,52,5h-.31a2.59,2.59,0,0,1-.4-.09,1,1,0,0,1-.3-.19l-.36-.07a.94.94,0,0,1-.34-.11.3.3,0,0,0,0-.17c0-.05-.1,0-.14,0a.3.3,0,0,0-.06.09.38.38,0,0,1-.15-.09c0-.05-.25,0-.32,0a.21.21,0,0,1-.19-.08l-.3-.17A1.29,1.29,0,0,0,48.73,4c-.06,0-.11.08-.15.12s-.14,0-.21-.05S48.29,4,48.23,4h-.4L47.66,4l-.89-.17-.92-.14c-.22,0-1-.12-1.11-.14a4,4,0,0,0-.49,0h-.31s-.13.06-.15,0-.12-.07-.24-.07h-.83c-.1,0-.3-.09-.36-.09H42.1a.15.15,0,0,1-.19.06.69.69,0,0,0-.2-.13l-.42-.06h-.66c-.12,0-.15-.07-.26-.07L39,3H38a.43.43,0,0,1-.1.1S37.76,3,37.69,3a2,2,0,0,0-.47,0h-.66l-.12,0a.4.4,0,0,1-.28,0,.89.89,0,0,0-.22-.1H33.89a1,1,0,0,0-.25,0L33.47,3s-.12,0-.15-.07-.14,0-.2,0a.26.26,0,0,0-.17.11s-.13,0-.18-.07-.11,0-.27,0h-2a3.27,3.27,0,0,1-.4.07c-.13,0-.29.07-.46,0a.92.92,0,0,0-.36,0,1.39,1.39,0,0,1-.31,0,.71.71,0,0,1-.36,0c-.14-.06-.28,0-.44,0h-.48a.62.62,0,0,1-.4.08,1.58,1.58,0,0,0-.42,0c-.1,0-.25.09-.34.08h-.26a1.13,1.13,0,0,0-.29.09h-.26a.49.49,0,0,1-.21-.07.72.72,0,0,0-.23.12A.32.32,0,0,1,25,3.35a.43.43,0,0,0-.24,0l-.29.07a3.61,3.61,0,0,1-.48,0,2.94,2.94,0,0,0-.47,0c-.08,0-.13.12-.19.16a.47.47,0,0,1-.3,0,1.07,1.07,0,0,0-.4,0c-.07,0-.19.15-.25.17a4,4,0,0,1-.61,0,2.76,2.76,0,0,0-.27.08,1.55,1.55,0,0,0-.31.09.21.21,0,0,1-.19,0,.17.17,0,0,0-.17.07.18.18,0,0,1-.15.08h-.33c-.15,0-.13.14-.27.15h-.27c-.08,0-.21.1-.25.12a1,1,0,0,0-.24.07.64.64,0,0,1-.3.05h-.26a1.09,1.09,0,0,0-.31.13,1.26,1.26,0,0,1-.4.14,1.7,1.7,0,0,1-.47.09c-.07,0,0-.06-.11,0a.8.8,0,0,1-.27.09c-.12,0-.16.13-.27.15h-.35c-.08,0-.17.1-.25.15a.31.31,0,0,1-.21.09.67.67,0,0,0-.28.08c-.07,0-.1.09-.2.09s-.33.16-.44.19-.48.19-.58.22-.45.24-.54.28a.22.22,0,0,1-.23,0c-.06,0-.13.08-.17.13a1.19,1.19,0,0,1-.18.16.31.31,0,0,1-.16.06,1.77,1.77,0,0,1-.33,0c-.05,0-.12.1-.18.13a1,1,0,0,0-.26.13.33.33,0,0,1-.25.09.3.3,0,0,0-.23.07.19.19,0,0,1-.18.07,1.26,1.26,0,0,0-.32.15,1.07,1.07,0,0,0-.2.24.48.48,0,0,1-.21.19c-.08,0-.14,0-.18.07s-.12,0-.22,0-.07.06-.09.14-.08.12-.16.17a1.29,1.29,0,0,1-.29.08L10,8.25a.22.22,0,0,1-.18,0H9.65s-.1,0-.18.11a.92.92,0,0,0-.23.24,1,1,0,0,1-.07.23c-.06.08-.07.1-.15.05s-.11,0-.16.06-.05.13-.14.15H8.56s-.11.09-.17.09-.13.06-.2,0a.21.21,0,0,0-.17,0,.67.67,0,0,0-.16.23,1.53,1.53,0,0,0-.13.22c-.07.15-.12.2-.18.22a.37.37,0,0,0-.18.07c-.05,0,.07,0,.12.11s0,.06,0,.11-.07,0-.14,0A.44.44,0,0,1,7.2,10s-.11,0-.12.07a.13.13,0,0,1-.14.08H6.75a.26.26,0,0,0-.06.13c0,.06.1.09.16.1a.29.29,0,0,1,.15.54c0,.06-.08.13-.16.14a.39.39,0,0,0-.23.08c-.07.06,0,.16,0,.23a.22.22,0,0,1-.1.14l-.21.08a.54.54,0,0,1-.23,0c-.11,0,0,.09.07.11s.09.1.11.14a.45.45,0,0,1,0,.25c0,.06-.07.12-.12.1a.37.37,0,0,0-.22,0c-.05,0-.06.12-.1.17s.09.11.16.19.06.17,0,.2-.06.11-.12.16a.37.37,0,0,0-.11.19.29.29,0,0,1-.09.25.75.75,0,0,0-.16.22.51.51,0,0,0-.06.27c0,.09.06.16.06.24a.16.16,0,0,1-.08.15c-.06.06,0,.08,0,.14a.38.38,0,0,1,0,.22.41.41,0,0,1-.12.23c-.05.06,0,.13,0,.2s0,.05.05.12a1.21,1.21,0,0,1,0,.24.29.29,0,0,1-.1.21c-.05.05,0,.14.05.19s0,.14,0,.23.06.07.14.12a1.66,1.66,0,0,1,.18.24v.7c0,.11.06.13.1.19l.16.24a.37.37,0,0,1,.06.22.94.94,0,0,0,0,.3c0,.11,0,.12.09.18l.23.15a.34.34,0,0,1,.11.28.82.82,0,0,0,.09.31c0,.09.09.09.17.09a.91.91,0,0,1,.33.1.43.43,0,0,1,.29.07c.07.07,0,.16.07.25a.4.4,0,0,0,.28.11c.08,0,.15.08.21.11a1.43,1.43,0,0,0,.36,0c.11,0,.14.07.22.07a.66.66,0,0,1,.28.13c.05,0,.23,0,.3.07l.27.17a.27.27,0,0,0,.24,0c.07,0,.12-.1.18-.12a.84.84,0,0,1,.25,0,.45.45,0,0,1,.2.08.18.18,0,0,0,.16-.06c.06-.06.08-.07.14-.07s.11,0,.15-.12.09-.06.16,0l.15.14a.72.72,0,0,0,.19.13,1.14,1.14,0,0,0,.32,0c.1,0,.11,0,.16-.09a.53.53,0,0,1,.21-.17c.11,0,.08,0,.15,0s.1-.08.13-.13.11-.2.2-.19a.55.55,0,0,1,.2,0,.84.84,0,0,0,.3-.15c.06,0,.14-.17.22-.17a.72.72,0,0,0,.24-.06c.07,0,.18-.19.23-.25a1.16,1.16,0,0,1,.2-.18,1.26,1.26,0,0,0,.29-.28.54.54,0,0,0,.15-.34,1.33,1.33,0,0,1,0-.26c0-.09,0-.13.05-.16s.07-.12.11-.19.18-.08.22-.16a.35.35,0,0,0,0-.24c0-.08-.08-.11-.15-.19s0-.11-.05-.17a.64.64,0,0,0-.12-.23c0-.07-.11,0-.16-.07s-.07-.09,0-.15a.4.4,0,0,1,.2-.07s.09-.09,0-.09h-.21c-.06,0-.07-.07-.09-.13a1.89,1.89,0,0,1,0-.38c0-.06-.08-.15-.12-.22s.07-.12.05-.18a.28.28,0,0,1,0-.19.37.37,0,0,1,.18-.16.08.08,0,0,0,0-.11l0,0a.12.12,0,0,1,0-.17h0c0-.07.09-.08.19-.15s.12-.08.18,0a.33.33,0,0,0,.2,0c.08,0,0-.09-.05-.14a.13.13,0,0,1,0-.18h0c.06-.06.17-.07.18-.12s-.08-.1-.13-.14,0-.12,0-.19.16-.05.26,0,.16-.05.24-.11.11-.12.2-.19,0-.13.06-.18-.09-.13-.07-.22a.22.22,0,0,1,.38-.09c.07.07.1,0,.16-.11a.16.16,0,0,1,.22,0,.14.14,0,0,0,.15,0c.07,0,.06-.17,0-.21s0-.17,0-.23.14,0,.21,0a.69.69,0,0,0,.21,0c.06,0,0-.11.07-.17s.16-.07.2-.11a.92.92,0,0,1,.09-.15c0-.06.18,0,.25,0s.13-.08.17-.14.12-.05.19,0a1.37,1.37,0,0,0,.32,0c.09,0,.11-.07.19-.12s.22-.09.31-.15a1.37,1.37,0,0,1,.27-.14.88.88,0,0,0,.22-.14.4.4,0,0,1,.29,0h.36A.52.52,0,0,0,20,11a.72.72,0,0,1,.24-.07c.2,0,.14-.11.14-.11a.43.43,0,0,1-.18,0,.88.88,0,0,1,.19-.17c.1-.06.1-.05.17,0a.24.24,0,0,0,.19.06.23.23,0,0,1,.21,0,.18.18,0,0,0,.17.08c.06,0,.1-.1.15-.1s.13.09.19.06.12-.14.19-.19.12-.08.17,0a.15.15,0,0,0,.15,0c.09,0,0-.16,0-.22a.37.37,0,0,1,.14-.23.29.29,0,0,1,.28,0c.08,0,.17.14.24.17a5.17,5.17,0,0,0,.7,0l.35-.08c.1,0,.15-.12.25-.18a.5.5,0,0,1,.29-.09.57.57,0,0,0,.24,0h.26c.06,0,.09-.11.13-.17a.13.13,0,0,1,.18,0h0a.51.51,0,0,0,.16.1h.32a.44.44,0,0,0,.22-.06.21.21,0,0,0,.17-.12.74.74,0,0,0,0-.15c0-.06.14-.07.2-.06h.33a.2.2,0,0,0,.16-.06l.18-.16h.3c.13,0,.09.09.16.14s.27.07.27,0,.08-.11.19-.1a.26.26,0,0,0,.21-.1A.77.77,0,0,1,28.19,9c.19-.05.21,0,.26.06s.11,0,.22,0,.07-.09.19-.09h.38c.08,0,.13-.06.19-.09a2.54,2.54,0,0,1,.47-.07l.31-.07h1.2a3.07,3.07,0,0,0,.52-.11.92.92,0,0,1,.41,0,2.52,2.52,0,0,0,.56,0h.59a2,2,0,0,0,.31-.08.34.34,0,0,1,.25.06h.26a.88.88,0,0,0,.3,0h.32a1.1,1.1,0,0,1,.25.07.83.83,0,0,1,.25,0h.38a.33.33,0,0,1,.2.11s.11,0,.18,0h.25a1.5,1.5,0,0,0,.48-.12c.12-.06.15,0,.25.05h1.61a.77.77,0,0,1,.39.05.33.33,0,0,0,.3,0c.07,0,.22,0,.27.06s.21,0,.28,0,.12.07.16.09.11,0,.2-.06a1,1,0,0,1,.3,0h.27a.52.52,0,0,1,.29.06.74.74,0,0,0,.35,0,2.54,2.54,0,0,1,.57,0,7.12,7.12,0,0,1,1,.1c.1,0,.14.13.2.14s.15-.06.29-.11a.43.43,0,0,1,.39.09c.08.06.11,0,.19,0s.15.07.21.09.17.1.23.06a2.87,2.87,0,0,1,.49.05h.37c.09,0,.2.08.28.09a2.61,2.61,0,0,0,.28,0,.84.84,0,0,1,.37.06l.42.06a1.35,1.35,0,0,0,.35.07.31.31,0,0,1,.18,0,.44.44,0,0,0,.18,0H48c.11,0,.1,0,.16.08s.07.09.13.09h.38l.25.06A.51.51,0,0,1,49,10a.28.28,0,0,0,.18,0c.07,0,.14.05.22,0s.15.08.2.13.15,0,.21,0,.21,0,.23.08.15,0,.23,0,.14-.06.22-.06a.34.34,0,0,1,.18.08.31.31,0,0,0,.19,0,.63.63,0,0,1,.21.06h.19a3.16,3.16,0,0,0,.47.1h.43a.36.36,0,0,1,.22.11c.05,0,.06.11.12.15s.11,0,.22,0a.51.51,0,0,0,.25,0,.69.69,0,0,1,.25,0,.52.52,0,0,1,.24.15.25.25,0,0,0,.15.08.92.92,0,0,1,.28.09c.08.05.19,0,.26.08l.21.13a.43.43,0,0,0,.22,0,.72.72,0,0,1,.24.1,1.12,1.12,0,0,1,.2.14.42.42,0,0,0,.22.06c.07,0,.09.09.13.13s.17,0,.23.06.17,0,.23,0a.92.92,0,0,1,.24,0c.07,0,.09.07.11.14l.08.14c0,.06.12.08.18.11l.27.11a.69.69,0,0,0,.29.09c.12,0,0,.07.09.14s.08,0,.16,0a.35.35,0,0,1,.18.09.86.86,0,0,0,.18.12.23.23,0,0,1,.21.1.58.58,0,0,1,.19.21.22.22,0,0,0,.2.09h.19a.12.12,0,0,0,.08.1c.08,0,.08.06.11.14a.44.44,0,0,0,.15.18c.08.06.16.07.23.15a2.43,2.43,0,0,1,.14.22c0,.05.1,0,.19.07a.38.38,0,0,1,.16.2,1.89,1.89,0,0,0,.24.3,1.34,1.34,0,0,1,.17.35A.86.86,0,0,1,60,15a2.21,2.21,0,0,1-.09.4c0,.13-.11.19-.17.28a.8.8,0,0,1-.2.18c-.07.05-.15.15-.23.21a.21.21,0,0,1-.19,0,.59.59,0,0,0-.27.12,1.26,1.26,0,0,1-.2.16c-.12,0-.22.13-.35.2s-.24.16-.32.2l-.36.17a2.52,2.52,0,0,0-.39.28c-.09.08-.14.15-.23.13a1.32,1.32,0,0,0-.48,0c-.09,0-.17.18-.26.23a.68.68,0,0,1-.27.12c-.15,0,0,.06.1.08a1.19,1.19,0,0,0,.32,0c.09,0,.1,0,.17-.09s.08-.06.14,0,.08,0,.13,0,.13,0,.2,0h.5s.06-.12.11-.18.08,0,.16-.09.08-.09.13-.12a1.21,1.21,0,0,1,.33,0,.42.42,0,0,0,.18-.07.42.42,0,0,1,.19-.07h.17a.25.25,0,0,0,.13,0c.07-.06,0-.11.07-.19s.15,0,.23-.11a1.85,1.85,0,0,1,.33-.12.39.39,0,0,1,.29,0c.07,0,0,.1,0,.17s-.12.13-.18.12-.09.07-.12.13l-.13.18a.17.17,0,0,1-.17.12.41.41,0,0,0-.26.1c-.07.06,0,.09-.12.09a.18.18,0,0,0-.18.15c0,.08-.08.13-.18.22a.39.39,0,0,1-.23.07c-.07,0-.12.12-.21.12H57.9a.3.3,0,0,1-.21.07c-.07,0-.09.09-.15.15a.25.25,0,0,1-.28,0c0-.06-.12,0-.24,0s-.26.14-.33.2l-.21.14a.25.25,0,0,0-.2.07.89.89,0,0,1-.33.08c-.09,0-.25,0-.3.15s-.12.06-.18.09a1.08,1.08,0,0,1-.32,0,.46.46,0,0,0-.21.06s-.11,0-.16,0-.09,0-.15,0,0,.08-.1.13l-.18.11a.59.59,0,0,1-.25.07.39.39,0,0,0-.24,0c-.07.06-.15.16-.22.21a.26.26,0,0,1-.23,0c-.08,0-.08,0-.16,0s-.09.13-.18.12-.09,0-.15.13,0,.14-.09.16a.52.52,0,0,1-.27,0,.4.4,0,0,0-.28.08.25.25,0,0,1-.2.06h-.33a.57.57,0,0,0-.26.09,1.18,1.18,0,0,0-.21.18.15.15,0,0,1-.19,0H50.9a.73.73,0,0,0-.17.1,1.32,1.32,0,0,1-.34,0,.39.39,0,0,0-.15,0,1,1,0,0,1-.33,0,.26.26,0,0,0-.23,0h-.31a.17.17,0,0,0-.15.11,2.7,2.7,0,0,0-.07.31s0,.08.11.1h.21c.1,0,.08,0,.14.09s0,.13-.07.18a.28.28,0,0,1-.17,0s-.14,0-.16.06,0,.07.1.08.08,0,.15,0h.17a.19.19,0,0,0,.15.08c.1,0,.08,0,.14.08s0,.12,0,.12a.14.14,0,0,1-.11,0h-.15a.29.29,0,0,1-.17,0c-.1,0-.1.06-.19.12a.42.42,0,0,0-.13.14.33.33,0,0,0,.06.17c.06.07.07.12,0,.17S49.11,23,49,23a.55.55,0,0,1-.25,0,1.12,1.12,0,0,0-.38.07c-.09,0-.1.09-.11.18s-.13.06-.22.09a2.26,2.26,0,0,0-.26.16,1,1,0,0,1-.34.08H47a.46.46,0,0,0-.22-.1c-.07,0-.1.1-.17.17s0,.14-.07.21a.23.23,0,0,1-.25,0c-.07,0-.11-.17-.13-.22s-.09,0-.2,0-.09,0,0,.09a.21.21,0,0,1,.08.15c0,.07-.1.14-.18.19a.63.63,0,0,1-.32,0,.62.62,0,0,0-.3.09c-.1,0-.18.14-.3.22a.4.4,0,0,1-.25.1l-.34.13H44.1c-.19,0-.17.06-.09.11a.22.22,0,0,1,.13.19.2.2,0,0,1-.12.18c-.09.06,0,.08-.1.19s-.37.07-.46.07,0,.11-.1.16a.61.61,0,0,1-.25.06c-.06,0-.18.12-.26.12a1.13,1.13,0,0,0-.37.09l-.36.16a1,1,0,0,0-.31.26c-.09.09-.11.14-.1.22s.07.08.12.1.07-.06.15-.12.08,0,.23,0,.13,0,.24-.09a2.18,2.18,0,0,0,.34-.2,1.68,1.68,0,0,1,.37-.19l.4-.1a.55.55,0,0,1,.29,0,.14.14,0,0,1,.07.14c0,.08-.12,0-.19.07s-.09.12-.16.18a.32.32,0,0,1-.22.06.41.41,0,0,0-.13.15c0,.07.15.1.21.11s.09-.11.15-.17a.26.26,0,0,1,.18-.1H44l.35-.13c.11,0,.11-.08.18-.12a.47.47,0,0,1,.26,0c.09,0,.22-.16.28-.22s.24,0,.32,0,.12-.09.16-.15.25-.08.3-.07,0,0,.14-.08h.51a.37.37,0,0,0,.25-.06s.11-.17.2-.23.11,0,.18,0a.43.43,0,0,0,.22-.06l.28-.15c.08-.06.21,0,.29,0s.14,0,.21,0a2.2,2.2,0,0,1,.53-.18c.14,0,.38-.16.45-.17a3.19,3.19,0,0,1,.35-.1,1.77,1.77,0,0,0,.47-.08,3.63,3.63,0,0,1,.48-.24,1.49,1.49,0,0,1,.56,0,1.18,1.18,0,0,0,.47,0c.1,0,.35-.21.44-.21a1.21,1.21,0,0,0,.53-.14c.1,0,1-.34,1.16-.39a2.17,2.17,0,0,1,.63,0,.13.13,0,0,0,.16-.06,1,1,0,0,1,.34-.23.31.31,0,0,1,.23,0,.61.61,0,0,0,.19-.12c.08-.08.07-.08.16-.11l.26-.06a.3.3,0,0,0,.2-.13c.07-.07.06,0,.14,0a.15.15,0,0,0,.15-.07s.15-.15.22-.14H57c.06,0,.17-.19.24-.21h.36a.54.54,0,0,0,.29-.11l.21-.16a.56.56,0,0,1,.29-.09.53.53,0,0,0,.28-.07,3.75,3.75,0,0,1,.4-.25,3.91,3.91,0,0,0,.41-.2.43.43,0,0,1,.27,0s.15.06.15,0,.13-.21.2-.27.34-.21.41-.28a4.43,4.43,0,0,1,.5-.25,1.31,1.31,0,0,0,.4-.29,2.93,2.93,0,0,1,.5-.39.32.32,0,0,0,.21-.08l.14-.17a.87.87,0,0,1,.28-.25,1.63,1.63,0,0,1,.35-.1c.06,0,.12-.2.15-.24s.07-.25.15-.27.23-.2.29-.25,0-.18,0-.23l.12-.08v-.09a.46.46,0,0,1,.14-.25c.09-.07.11,0,.15-.11s0-.15,0-.23a.38.38,0,0,1,.17-.27.27.27,0,0,0,.16-.14.32.32,0,0,0,0-.3.13.13,0,0,1,0-.18h0c.06,0,.14,0,.17-.1S64.35,16.18,64.37,16.1Zm-54-5.62c-.34.09-.26-.09-.2-.17s.11-.06.21,0,.13.14,0,.17ZM48.77,6c-.18.05-.17-.14-.06-.16S48.89,6,48.77,6ZM59.59,9.22a1.24,1.24,0,0,0-.27-.05.74.74,0,0,0-.38,0c-.07.06-.12,0-.21-.08S58.64,9,58.56,9a.15.15,0,0,1-.15-.11c0-.06,0-.19-.11-.22a.14.14,0,0,0-.17,0,.16.16,0,0,1-.19,0c-.06,0,0-.14,0-.2s-.22-.07-.33-.2-.07.18-.1.22-.17,0-.23,0a.37.37,0,0,0-.26,0c-.11,0-.12-.06-.11-.15s-.06-.13-.14-.18a1.72,1.72,0,0,1-.3-.19.36.36,0,0,0-.24-.08c-.06,0-.13.11-.2.15A.34.34,0,0,1,55.7,8l-.34-.15a.59.59,0,0,1-.2-.15H55s0-.12,0-.19-.19,0-.24.09a.09.09,0,0,1-.12,0l0,0s0-.15-.1-.2a.36.36,0,0,0-.25-.06c-.07,0-.14.16-.19.21s-.18,0-.28,0a.4.4,0,0,1-.24-.12c0-.05-.07-.07,0-.15A.13.13,0,0,0,53.37,7a.16.16,0,0,0-.17.08c0,.08-.09.05-.19,0A.72.72,0,0,0,52.69,7,6.65,6.65,0,0,1,52,6.82c-.08,0-.1-.07-.15-.17s-.06-.12-.14-.13-.18.12-.23.16a.44.44,0,0,1-.35-.07,1.21,1.21,0,0,0-.32-.07c-.08,0-.09-.07-.15-.08a1,1,0,0,1-.26,0c-.06,0-.09-.18-.19-.21A.19.19,0,0,0,50,6.3h-.17c-.09,0-.21-.06-.29-.06s-.24.07-.24-.15a.3.3,0,0,0-.17-.18H49l-.18-.1a.67.67,0,0,0-.3,0c-.09,0-.14.1-.22.15A.38.38,0,0,1,48,6c-.09,0-.25-.14-.35-.19l-.33-.14a1.77,1.77,0,0,0-.38,0c-.08,0-.08,0-.13-.09s-.15-.05-.21,0-.11,0-.19,0-.09-.07-.17-.08a.16.16,0,0,0-.17.1.11.11,0,0,1-.14,0,.48.48,0,0,0-.15-.07,2,2,0,0,0-.35,0l-.27-.12c-.08-.05-.24,0-.36,0a.93.93,0,0,0-.32.06.51.51,0,0,1-.32,0,.89.89,0,0,0-.3-.08,2.31,2.31,0,0,0-.42,0c-.07,0-.23.12-.29.13a1.45,1.45,0,0,1-.37,0,.44.44,0,0,1-.25-.13c-.07-.07-.16-.21-.24-.25s-.34,0-.42-.05a3.66,3.66,0,0,0-.74,0,1.52,1.52,0,0,0-.35,0c-.06,0,0,.09.11.1h.2a.24.24,0,0,1,.16.09c0,.05,0,.16-.08.18a1.17,1.17,0,0,1-.37,0l-.26-.06h-.32A.26.26,0,0,1,40,5.27C40,5,40,5,40.11,5s0-.1,0-.12h-.39a1.81,1.81,0,0,0-.34,0c-.07,0-.13.14-.2.18S39,5,39,5s0-.13-.06-.18-.13,0-.19,0h-.7c-.07,0-.16.2-.22.22A.45.45,0,0,1,37.51,5a1.2,1.2,0,0,0-.19-.16.75.75,0,0,0-.31.06,1.09,1.09,0,0,1-.33,0h-.33l-.29-.07a.69.69,0,0,0-.26.08.48.48,0,0,1-.26,0,.24.24,0,0,0-.18,0l-.15.24c-.05.09-.17.06-.25,0s-.1-.07-.07-.13.13-.1.14-.16-.09-.05-.15,0a.28.28,0,0,0-.15.14.49.49,0,0,1-.08.19c0,.05-.16.06-.32.05H33.5l-.84.07h-.27c-.07,0,0-.17.13-.25s0-.08-.1-.08a1.17,1.17,0,0,0-.31,0C32,4.89,32,5,31.91,5S31.83,5,31.8,5s-.09,0-.19,0a1.41,1.41,0,0,1-.31,0H31c-.09,0-.18.06-.29,0a.26.26,0,0,0-.25,0,.33.33,0,0,1-.24.06.92.92,0,0,0-.29,0c-.09,0-.14.1-.19.12a.88.88,0,0,1-.23,0c-.06,0-.11.19-.18.24s-.17,0-.25-.09S29,5.21,28.9,5s-.1,0-.13,0h-.2a.71.71,0,0,0-.24.06l-.19.13h-.26a1.74,1.74,0,0,1-.32-.13c-.09,0-.16,0-.21.07s-.17,0-.28,0a.48.48,0,0,0-.29,0c-.08,0-.18.12-.29.12H26a.46.46,0,0,0-.24.13s-.22,0-.29-.08-.23,0-.3,0a2.22,2.22,0,0,0-.32.14,1.56,1.56,0,0,1-.34.07h-1c-.09,0-.12,0-.18.1s-.15.08-.32.06-.21.06-.27.07h-.25l-.12.16a.25.25,0,0,1-.3.07c-.09.11-.09,0-.18,0h-.18a.42.42,0,0,1-.23,0c-.09,0-.11.06-.22,0s-.24.07-.32.13a.84.84,0,0,1-.28.12c-.07,0-.22,0-.24.06s-.25,0-.35.06h-.33c-.1,0-.06.09-.15.13a.29.29,0,0,1-.24,0c-.07,0-.15.09-.21.12s-.12,0-.26,0-.31,0-.33.1-.14.1-.22.1-.13,0-.18.13S18,7,17.92,7a.91.91,0,0,0-.38,0s0,.21-.07.28-.22,0-.31,0a1.86,1.86,0,0,0-.4.08,2.35,2.35,0,0,1-.43.19.82.82,0,0,0-.39,0c-.16.11-.14.29-.22.32a1.21,1.21,0,0,1-.33,0,1.11,1.11,0,0,1-.35.06c-.07,0-.17.1-.22.14s-.17,0-.22.06l-.25.17H14c-.12,0-.17.2-.25.22a1.13,1.13,0,0,1-.26,0l-.26.06a.39.39,0,0,0-.19.22.28.28,0,0,1-.23.14.58.58,0,0,0-.21,0c-.07,0-.11.15-.17.2s-.2,0-.25,0a.72.72,0,0,0-.28.13c-.08.05-.39.21-.38.3a.17.17,0,0,1-.16.17.25.25,0,0,1-.18-.08A.21.21,0,0,0,11,10l-.33.21a.3.3,0,0,1-.22,0c-.08,0-.11,0-.11-.12s0-.13.08-.19a5.42,5.42,0,0,1,.49-.45c.08,0,.08-.24.13-.29s.26-.09.31-.13.14-.15.21-.21a1.91,1.91,0,0,1,.35-.23c.06,0,.18,0,.21-.06a2.54,2.54,0,0,1,.29-.24c.07-.06.21,0,.27,0A5.42,5.42,0,0,0,13,7.81a1.27,1.27,0,0,1,.37-.07,1.14,1.14,0,0,0,.3-.09A3,3,0,0,0,14,7.37a1.47,1.47,0,0,1,.36-.08,1.12,1.12,0,0,1,.27-.1A.58.58,0,0,0,15,7.08c.05-.05.19-.14.23-.19a.22.22,0,0,1,.18-.08,1,1,0,0,0,.33,0l.15-.13a.42.42,0,0,1,.2-.13h.23c.07,0,.14-.1.22-.13l.34-.16h.23c.07,0,.07-.07.17-.12a3.72,3.72,0,0,1,.5-.11l.37-.15.28-.1a.91.91,0,0,1,.29,0c.09,0,.12-.06.16-.09s.13,0,.19,0,.16,0,.2-.08a.25.25,0,0,1,.17-.15h.26l.48-.11a.91.91,0,0,1,.23-.06,1.94,1.94,0,0,0,.39-.1L21,5h.23a.28.28,0,0,0,.2-.12c0-.06.19,0,.26,0a1.29,1.29,0,0,0,.29-.1h.25a1,1,0,0,1,.24-.1h.38a.29.29,0,0,1,.23-.09h.26a.78.78,0,0,0,.28-.12c.12-.06.17,0,.26,0l.39-.08a1,1,0,0,1,.38,0h.69a1.13,1.13,0,0,1,.3,0,1.41,1.41,0,0,0,.4,0c.09,0,.32-.1.45-.12a1.87,1.87,0,0,1,.4,0,2.67,2.67,0,0,0,.47-.09,2.32,2.32,0,0,1,.44,0h.63c.08,0,.3-.06.39,0s.36-.05.44,0h.31a.59.59,0,0,0,.3-.06,1.35,1.35,0,0,0,.36-.05c.08,0,.18-.09.24-.06a.34.34,0,0,0,.32,0,.57.57,0,0,1,.31,0h.65a.52.52,0,0,1,.36,0h.27a1.2,1.2,0,0,0,.33,0A1.14,1.14,0,0,1,33,3.62a2.46,2.46,0,0,1,.33.07.78.78,0,0,0,.38-.08,2.93,2.93,0,0,1,.52,0c.1,0,.21-.06.26,0a1.82,1.82,0,0,0,.44,0,1.46,1.46,0,0,0,.43,0,1,1,0,0,1,.5,0,.75.75,0,0,0,.36,0,1.36,1.36,0,0,1,.34,0,.57.57,0,0,0,.22,0,.38.38,0,0,1,.27,0,.74.74,0,0,0,.34-.06.23.23,0,0,1,.25,0c.07.06.33,0,.38,0a.87.87,0,0,0,.36-.06c.1-.06.11.06.17.09a2.61,2.61,0,0,0,.42,0,4.93,4.93,0,0,1,.55.07h.41c.12,0,.17.11.24.13s.16-.08.3-.09a.72.72,0,0,1,.3.06h.4a5.86,5.86,0,0,1,.68.06c.15,0,.17.09.3.1h.73a.44.44,0,0,0,.23.1,1.6,1.6,0,0,1,.43.09A.47.47,0,0,0,43.81,4c.15-.07.17.08.27.1h.28c.23,0,.56.08.76.08a3.65,3.65,0,0,1,.56.08,3.61,3.61,0,0,0,.47.1c.08,0,.14-.07.21-.06a3.18,3.18,0,0,0,.37.06,1.16,1.16,0,0,1,.42.12.76.76,0,0,0,.31.09H48a.69.69,0,0,1,.3.14.23.23,0,0,0,.26,0c.08-.06.21,0,.33.05l.39.14h.33a.45.45,0,0,1,.26.05,1.4,1.4,0,0,1,.4.11c.13.05.33.07.42.12a1.32,1.32,0,0,0,.35.1,3.2,3.2,0,0,1,.47.13l.49.14a1,1,0,0,1,.31.12,1.93,1.93,0,0,0,.52.16,2.91,2.91,0,0,1,.7.22c.1.07.52.16.67.24a1.91,1.91,0,0,0,.39.14.5.5,0,0,0,.31,0c.07,0,.12,0,.16.1a.31.31,0,0,0,.12.11h.2a.43.43,0,0,0,.32.08c.09,0,.12.08.14.1A1.08,1.08,0,0,1,56,7c.07.05.14,0,.19,0a1.64,1.64,0,0,1,.3.17l.34.18a2.84,2.84,0,0,0,.38.17c.09,0,.08.11.13.12a.9.9,0,0,1,.24.06c.09,0,.12.12.2.18a.81.81,0,0,0,.27.08c.06,0,.14.11.19.14l.41.18a8,8,0,0,1,.79.59,1.51,1.51,0,0,1,.32.29C59.83,9.32,59.66,9.26,59.59,9.22Zm.45.47c-.1,0-.15-.06-.15-.12s0-.16.14-.15c.28,0,.11.28,0,.27ZM49.45,21.49c-.06,0-.21-.08-.09-.12S49.63,21.37,49.45,21.49Zm.44-.23h.21a.26.26,0,0,1-.22.1.07.07,0,0,1,0-.1Zm.45.81c-.15.13-.08.17-.19.17s-.11-.06-.09-.11S50,22,50.11,22,50.43,22,50.34,22.07Zm1.5-.35a.45.45,0,0,1-.31.1.4.4,0,0,0-.2,0c-.07,0-.12.12-.22.18s-.17,0-.37.1-.25,0-.2-.14a.13.13,0,0,0-.08-.17h0a1.55,1.55,0,0,0-.48.12c-.13,0-.25-.07-.07-.18l.24-.1c.07,0,.06,0,.15-.09s0-.13.07-.19.21-.08.27,0,0,.07.14.09.14,0,.24-.11a.75.75,0,0,1,.32,0s.12.06.16,0,.25,0,.4,0a.18.18,0,0,1,.17.19h0a.57.57,0,0,1-.22.2Zm.41-.59c-.09.18-.19,0-.19,0a.08.08,0,0,1-.08-.09c0-.09,0,0,.13-.1s.24,0,.13.14Z"/></g></g></g></g></svg>